<mxfile host="Electron" modified="2024-07-10T20:09:47.683Z" agent="Mozilla/5.0 (X11; Linux x86_64) AppleWebKit/537.36 (KHTML, like Gecko) draw.io/24.6.4 Chrome/124.0.6367.207 Electron/30.0.6 Safari/537.36" etag="ZevpHRwtmJT8en9R0uzp" version="24.6.4" type="device">
  <diagram name="Page-1" id="GSZfl2udHrfvSjpZjetq">
    <mxGraphModel dx="1434" dy="1216" grid="0" gridSize="10" guides="1" tooltips="1" connect="1" arrows="1" fold="1" page="0" pageScale="1" pageWidth="827" pageHeight="1169" math="0" shadow="0">
      <root>
        <mxCell id="0" />
        <mxCell id="1" parent="0" />
        <mxCell id="ayAZ7UuWGTsfEoH7-hEO-3" value="" style="endArrow=none;html=1;rounded=0;entryX=0;entryY=1;entryDx=0;entryDy=0;entryPerimeter=0;exitX=0.999;exitY=0.264;exitDx=0;exitDy=0;exitPerimeter=0;fontColor=#007FFF;strokeColor=#007FFF;" parent="1" target="Lx8svp4eKI0U0BjnMGVL-7" edge="1">
          <mxGeometry width="50" height="50" relative="1" as="geometry">
            <mxPoint x="495.0000000000001" y="76.84000000000009" as="sourcePoint" />
            <mxPoint x="604.4999999999999" y="25.000000000000057" as="targetPoint" />
            <Array as="points">
              <mxPoint x="661" y="77" />
              <mxPoint x="661" y="60" />
            </Array>
          </mxGeometry>
        </mxCell>
        <mxCell id="ayAZ7UuWGTsfEoH7-hEO-4" value="" style="endArrow=none;html=1;rounded=0;exitX=0.996;exitY=0.318;exitDx=0;exitDy=0;exitPerimeter=0;entryX=1;entryY=1;entryDx=0;entryDy=0;entryPerimeter=0;strokeColor=#FF0000;" parent="1" target="Lx8svp4eKI0U0BjnMGVL-7" edge="1">
          <mxGeometry width="50" height="50" relative="1" as="geometry">
            <mxPoint x="495" y="94.42000000000007" as="sourcePoint" />
            <mxPoint x="615.48" y="34.000000000000114" as="targetPoint" />
            <Array as="points">
              <mxPoint x="661" y="94" />
              <mxPoint x="661" y="110" />
            </Array>
          </mxGeometry>
        </mxCell>
        <mxCell id="ayAZ7UuWGTsfEoH7-hEO-6" value="" style="endArrow=none;html=1;rounded=0;entryX=0;entryY=1;entryDx=0;entryDy=0;entryPerimeter=0;" parent="1" target="Lx8svp4eKI0U0BjnMGVL-5" edge="1">
          <mxGeometry width="50" height="50" relative="1" as="geometry">
            <mxPoint x="495" y="110.5" as="sourcePoint" />
            <mxPoint x="624.9600000000003" y="39" as="targetPoint" />
            <Array as="points">
              <mxPoint x="641" y="110" />
              <mxPoint x="641" y="130" />
            </Array>
          </mxGeometry>
        </mxCell>
        <mxCell id="ayAZ7UuWGTsfEoH7-hEO-10" style="edgeStyle=orthogonalEdgeStyle;rounded=0;orthogonalLoop=1;jettySize=auto;html=1;exitX=0.996;exitY=0.121;exitDx=0;exitDy=0;entryX=0.988;entryY=0.241;entryDx=0;entryDy=0;entryPerimeter=0;endArrow=none;endFill=0;exitPerimeter=0;" parent="1" source="Lx8svp4eKI0U0BjnMGVL-2" target="Lx8svp4eKI0U0BjnMGVL-2" edge="1">
          <mxGeometry relative="1" as="geometry">
            <mxPoint x="487.37184" y="7.1868899999999485" as="targetPoint" />
            <Array as="points">
              <mxPoint x="487" y="-42" />
              <mxPoint x="521" y="-41" />
              <mxPoint x="521" y="-10" />
            </Array>
            <mxPoint x="486.8707199999999" y="-21.52520000000004" as="sourcePoint" />
          </mxGeometry>
        </mxCell>
        <mxCell id="ayAZ7UuWGTsfEoH7-hEO-12" style="edgeStyle=orthogonalEdgeStyle;rounded=0;orthogonalLoop=1;jettySize=auto;html=1;exitX=0.998;exitY=0.242;exitDx=0;exitDy=0;endArrow=none;endFill=0;entryX=0.989;entryY=0.369;entryDx=0;entryDy=0;entryPerimeter=0;exitPerimeter=0;" parent="1" source="Lx8svp4eKI0U0BjnMGVL-2" target="Lx8svp4eKI0U0BjnMGVL-2" edge="1">
          <mxGeometry relative="1" as="geometry">
            <mxPoint x="486.53664000000003" y="37.56000999999992" as="targetPoint" />
            <mxPoint x="490.78999999999996" y="7.210000000000036" as="sourcePoint" />
            <Array as="points">
              <mxPoint x="521" y="-10" />
              <mxPoint x="521" y="23" />
            </Array>
          </mxGeometry>
        </mxCell>
        <mxCell id="ayAZ7UuWGTsfEoH7-hEO-16" value="" style="endArrow=none;html=1;rounded=0;exitX=0.987;exitY=0.179;exitDx=0;exitDy=0;exitPerimeter=0;endFill=0;strokeColor=#007FFF;entryX=0;entryY=0.5;entryDx=0;entryDy=0;" parent="1" source="Lx8svp4eKI0U0BjnMGVL-2" target="ayAZ7UuWGTsfEoH7-hEO-17" edge="1">
          <mxGeometry width="50" height="50" relative="1" as="geometry">
            <mxPoint x="451.0399999999999" y="-7.460000000000036" as="sourcePoint" />
            <mxPoint x="641.95" y="-7" as="targetPoint" />
          </mxGeometry>
        </mxCell>
        <mxCell id="ayAZ7UuWGTsfEoH7-hEO-17" value="RPi-GPIO22" style="rounded=1;whiteSpace=wrap;html=1;fillColor=#b0e3e6;strokeColor=#0e8088;fontSize=11;" parent="1" vertex="1">
          <mxGeometry x="561.95" y="-32" width="89.05" height="12" as="geometry" />
        </mxCell>
        <mxCell id="ayAZ7UuWGTsfEoH7-hEO-18" value="" style="endArrow=none;html=1;rounded=0;endFill=0;entryX=0;entryY=0.5;entryDx=0;entryDy=0;strokeColor=#007FFF;exitX=1;exitY=0.307;exitDx=0;exitDy=0;exitPerimeter=0;" parent="1" source="Lx8svp4eKI0U0BjnMGVL-2" target="ayAZ7UuWGTsfEoH7-hEO-19" edge="1">
          <mxGeometry width="50" height="50" relative="1" as="geometry">
            <mxPoint x="486" y="23" as="sourcePoint" />
            <mxPoint x="677" y="23" as="targetPoint" />
          </mxGeometry>
        </mxCell>
        <mxCell id="ayAZ7UuWGTsfEoH7-hEO-19" value="&lt;font style=&quot;font-size: 11px;&quot;&gt;RPi-GPIO17&lt;/font&gt;" style="rounded=1;whiteSpace=wrap;html=1;fillColor=#b0e3e6;strokeColor=#0e8088;fontSize=11;" parent="1" vertex="1">
          <mxGeometry x="561" width="90" height="13" as="geometry" />
        </mxCell>
        <mxCell id="ayAZ7UuWGTsfEoH7-hEO-20" value="" style="endArrow=none;html=1;rounded=0;exitX=0.999;exitY=0.431;exitDx=0;exitDy=0;exitPerimeter=0;endFill=0;entryX=0;entryY=0.5;entryDx=0;entryDy=0;strokeColor=#007FFF;" parent="1" source="Lx8svp4eKI0U0BjnMGVL-2" target="ayAZ7UuWGTsfEoH7-hEO-21" edge="1">
          <mxGeometry width="50" height="50" relative="1" as="geometry">
            <mxPoint x="486" y="52" as="sourcePoint" />
            <mxPoint x="677" y="52" as="targetPoint" />
          </mxGeometry>
        </mxCell>
        <mxCell id="ayAZ7UuWGTsfEoH7-hEO-21" value="RPi-GPIO27" style="rounded=1;whiteSpace=wrap;html=1;fillColor=#b0e3e6;strokeColor=#0e8088;fontSize=11;" parent="1" vertex="1">
          <mxGeometry x="562" y="31" width="89" height="15" as="geometry" />
        </mxCell>
        <mxCell id="ayAZ7UuWGTsfEoH7-hEO-22" value="" style="endArrow=none;html=1;rounded=0;entryX=0;entryY=0.5;entryDx=0;entryDy=0;" parent="1" target="ayAZ7UuWGTsfEoH7-hEO-23" edge="1">
          <mxGeometry width="50" height="50" relative="1" as="geometry">
            <mxPoint x="521" y="-20" as="sourcePoint" />
            <mxPoint x="581" y="160" as="targetPoint" />
            <Array as="points">
              <mxPoint x="521" y="-40" />
              <mxPoint x="521" y="-50" />
            </Array>
          </mxGeometry>
        </mxCell>
        <mxCell id="ayAZ7UuWGTsfEoH7-hEO-23" value="&lt;div&gt;RPi-GPIO_GND&lt;/div&gt;" style="rounded=1;whiteSpace=wrap;html=1;fillColor=#bac8d3;strokeColor=#23445d;fontSize=11;" parent="1" vertex="1">
          <mxGeometry x="562" y="-57" width="89" height="15" as="geometry" />
        </mxCell>
        <mxCell id="ayAZ7UuWGTsfEoH7-hEO-24" value="DC Power&lt;br&gt;12 V / 5A" style="rounded=1;whiteSpace=wrap;html=1;" parent="1" vertex="1">
          <mxGeometry x="380" y="200" width="100" height="50" as="geometry" />
        </mxCell>
        <mxCell id="ayAZ7UuWGTsfEoH7-hEO-25" value="" style="pointerEvents=1;verticalLabelPosition=bottom;shadow=0;dashed=0;align=center;html=1;verticalAlign=top;shape=mxgraph.electrical.signal_sources.source;aspect=fixed;points=[[0.5,0,0],[1,0.5,0],[0.5,1,0],[0,0.5,0]];elSignalType=ac;" parent="1" vertex="1">
          <mxGeometry x="281" y="205" width="40" height="40" as="geometry" />
        </mxCell>
        <mxCell id="ayAZ7UuWGTsfEoH7-hEO-26" style="edgeStyle=orthogonalEdgeStyle;rounded=0;orthogonalLoop=1;jettySize=auto;html=1;exitX=0;exitY=0.5;exitDx=0;exitDy=0;entryX=1;entryY=0.5;entryDx=0;entryDy=0;entryPerimeter=0;endArrow=none;endFill=0;strokeColor=#00CC00;strokeWidth=2;" parent="1" source="ayAZ7UuWGTsfEoH7-hEO-24" target="ayAZ7UuWGTsfEoH7-hEO-25" edge="1">
          <mxGeometry relative="1" as="geometry" />
        </mxCell>
        <mxCell id="ayAZ7UuWGTsfEoH7-hEO-27" value="" style="endArrow=none;html=1;rounded=0;exitX=1.003;exitY=0.614;exitDx=0;exitDy=0;exitPerimeter=0;entryX=0.994;entryY=0.824;entryDx=0;entryDy=0;entryPerimeter=0;" parent="1" source="ayAZ7UuWGTsfEoH7-hEO-24" target="Lx8svp4eKI0U0BjnMGVL-2" edge="1">
          <mxGeometry width="50" height="50" relative="1" as="geometry">
            <mxPoint x="521.1199999999999" y="220.51999999999998" as="sourcePoint" />
            <mxPoint x="488.03999999999996" y="146.95069999999987" as="targetPoint" />
            <Array as="points">
              <mxPoint x="531" y="230" />
              <mxPoint x="531" y="141" />
            </Array>
          </mxGeometry>
        </mxCell>
        <mxCell id="ayAZ7UuWGTsfEoH7-hEO-28" value="" style="endArrow=none;html=1;rounded=0;strokeColor=#FF0000;entryX=1;entryY=0.25;entryDx=0;entryDy=0;exitX=0.998;exitY=0.885;exitDx=0;exitDy=0;exitPerimeter=0;" parent="1" source="Lx8svp4eKI0U0BjnMGVL-2" target="ayAZ7UuWGTsfEoH7-hEO-24" edge="1">
          <mxGeometry width="50" height="50" relative="1" as="geometry">
            <mxPoint x="486.20255999999995" y="159.76436" as="sourcePoint" />
            <mxPoint x="491" y="-189" as="targetPoint" />
            <Array as="points">
              <mxPoint x="521" y="157" />
              <mxPoint x="521" y="213" />
            </Array>
          </mxGeometry>
        </mxCell>
        <mxCell id="ayAZ7UuWGTsfEoH7-hEO-30" value="" style="pointerEvents=1;verticalLabelPosition=bottom;shadow=0;dashed=0;align=center;html=1;verticalAlign=top;shape=mxgraph.electrical.electro-mechanical.limitSwitch;elSwitchState=on;" parent="1" vertex="1">
          <mxGeometry x="365.2" y="647" width="75" height="25" as="geometry" />
        </mxCell>
        <mxCell id="ayAZ7UuWGTsfEoH7-hEO-33" value="" style="endArrow=none;html=1;rounded=0;entryX=0;entryY=1;entryDx=0;entryDy=0;entryPerimeter=0;exitX=1.008;exitY=0.416;exitDx=0;exitDy=0;exitPerimeter=0;fontColor=#007FFF;strokeColor=#007FFF;" parent="1" source="Lx8svp4eKI0U0BjnMGVL-9" target="Lx8svp4eKI0U0BjnMGVL-14" edge="1">
          <mxGeometry width="50" height="50" relative="1" as="geometry">
            <mxPoint x="496.8800000000001" y="426.1600000000001" as="sourcePoint" />
            <mxPoint x="606.3799999999999" y="374.31999999999994" as="targetPoint" />
            <Array as="points">
              <mxPoint x="605" y="450" />
              <mxPoint x="605" y="374" />
            </Array>
          </mxGeometry>
        </mxCell>
        <mxCell id="ayAZ7UuWGTsfEoH7-hEO-49" value="DC Power&lt;br&gt;9 V / 1A" style="rounded=1;whiteSpace=wrap;html=1;" parent="1" vertex="1">
          <mxGeometry x="384" y="293" width="100" height="50" as="geometry" />
        </mxCell>
        <mxCell id="ayAZ7UuWGTsfEoH7-hEO-50" value="" style="pointerEvents=1;verticalLabelPosition=bottom;shadow=0;dashed=0;align=center;html=1;verticalAlign=top;shape=mxgraph.electrical.signal_sources.source;aspect=fixed;points=[[0.5,0,0],[1,0.5,0],[0.5,1,0],[0,0.5,0]];elSignalType=ac;" parent="1" vertex="1">
          <mxGeometry x="276" y="298" width="39" height="39" as="geometry" />
        </mxCell>
        <mxCell id="ayAZ7UuWGTsfEoH7-hEO-51" style="edgeStyle=orthogonalEdgeStyle;rounded=0;orthogonalLoop=1;jettySize=auto;html=1;exitX=0;exitY=0.5;exitDx=0;exitDy=0;entryX=1;entryY=0.5;entryDx=0;entryDy=0;entryPerimeter=0;endArrow=none;endFill=0;strokeColor=#00CC00;strokeWidth=2;" parent="1" source="ayAZ7UuWGTsfEoH7-hEO-49" target="ayAZ7UuWGTsfEoH7-hEO-50" edge="1">
          <mxGeometry relative="1" as="geometry" />
        </mxCell>
        <mxCell id="ayAZ7UuWGTsfEoH7-hEO-52" value="" style="endArrow=none;html=1;rounded=0;exitX=0.994;exitY=0.199;exitDx=0;exitDy=0;exitPerimeter=0;strokeColor=#FF0000;entryX=1;entryY=0.66;entryDx=0;entryDy=0;entryPerimeter=0;" parent="1" source="Lx8svp4eKI0U0BjnMGVL-9" target="ayAZ7UuWGTsfEoH7-hEO-49" edge="1">
          <mxGeometry width="50" height="50" relative="1" as="geometry">
            <mxPoint x="496.21599999999967" y="395.2399999999999" as="sourcePoint" />
            <mxPoint x="497" y="326" as="targetPoint" />
            <Array as="points">
              <mxPoint x="537" y="411" />
              <mxPoint x="537" y="366" />
              <mxPoint x="537" y="326" />
            </Array>
          </mxGeometry>
        </mxCell>
        <mxCell id="ayAZ7UuWGTsfEoH7-hEO-53" value="" style="endArrow=none;html=1;rounded=0;strokeColor=#000000;entryX=1;entryY=0.25;entryDx=0;entryDy=0;exitX=0.994;exitY=0.314;exitDx=0;exitDy=0;exitPerimeter=0;" parent="1" source="Lx8svp4eKI0U0BjnMGVL-9" target="ayAZ7UuWGTsfEoH7-hEO-49" edge="1">
          <mxGeometry width="50" height="50" relative="1" as="geometry">
            <mxPoint x="497.89599999999996" y="405.79999999999995" as="sourcePoint" />
            <mxPoint x="537" y="217" as="targetPoint" />
            <Array as="points">
              <mxPoint x="547" y="432" />
              <mxPoint x="547" y="306" />
            </Array>
          </mxGeometry>
        </mxCell>
        <mxCell id="ayAZ7UuWGTsfEoH7-hEO-56" value="" style="endArrow=none;html=1;rounded=0;exitX=0.994;exitY=0.794;exitDx=0;exitDy=0;exitPerimeter=0;endFill=0;strokeColor=#FF0000;entryX=0;entryY=0.5;entryDx=0;entryDy=0;" parent="1" source="Lx8svp4eKI0U0BjnMGVL-9" target="ayAZ7UuWGTsfEoH7-hEO-57" edge="1">
          <mxGeometry width="50" height="50" relative="1" as="geometry">
            <mxPoint x="497.44799999999964" y="464.8399999999999" as="sourcePoint" />
            <mxPoint x="638" y="465" as="targetPoint" />
          </mxGeometry>
        </mxCell>
        <mxCell id="ayAZ7UuWGTsfEoH7-hEO-57" value="RPi-GPIO-3.3V" style="rounded=1;whiteSpace=wrap;html=1;fillColor=#ffcccc;strokeColor=#36393d;fontSize=10;" parent="1" vertex="1">
          <mxGeometry x="543" y="509" width="88" height="16" as="geometry" />
        </mxCell>
        <mxCell id="ayAZ7UuWGTsfEoH7-hEO-58" value="" style="endArrow=none;html=1;rounded=0;exitX=1.003;exitY=0.904;exitDx=0;exitDy=0;exitPerimeter=0;endFill=0;entryX=0;entryY=0.5;entryDx=0;entryDy=0;" parent="1" source="Lx8svp4eKI0U0BjnMGVL-9" target="ayAZ7UuWGTsfEoH7-hEO-59" edge="1">
          <mxGeometry width="50" height="50" relative="1" as="geometry">
            <mxPoint x="497" y="496" as="sourcePoint" />
            <mxPoint x="637" y="496" as="targetPoint" />
          </mxGeometry>
        </mxCell>
        <mxCell id="ayAZ7UuWGTsfEoH7-hEO-59" value="RPi-GPIO-GND" style="rounded=1;whiteSpace=wrap;html=1;fillColor=#bac8d3;strokeColor=#23445d;fontSize=10;" parent="1" vertex="1">
          <mxGeometry x="543" y="530" width="89" height="14" as="geometry" />
        </mxCell>
        <mxCell id="ayAZ7UuWGTsfEoH7-hEO-61" value="Shaft stepper motor" style="text;html=1;align=center;verticalAlign=middle;resizable=0;points=[];autosize=1;strokeColor=none;fillColor=none;fontSize=13;fontStyle=1" parent="1" vertex="1">
          <mxGeometry x="661" y="34" width="132" height="28" as="geometry" />
        </mxCell>
        <mxCell id="ayAZ7UuWGTsfEoH7-hEO-62" value="Z motion stepper motor" style="text;html=1;align=center;verticalAlign=middle;resizable=0;points=[];autosize=1;strokeColor=none;fillColor=none;fontSize=13;fontStyle=1" parent="1" vertex="1">
          <mxGeometry x="659" y="347" width="152" height="28" as="geometry" />
        </mxCell>
        <mxCell id="Lx8svp4eKI0U0BjnMGVL-2" value="" style="shape=image;verticalLabelPosition=bottom;labelBackgroundColor=default;verticalAlign=top;aspect=fixed;imageAspect=0;image=data:image/png,iVBORw0KGgoAAAANSUhEUgAAANUAAAEsCAIAAADbyGGxAAAACXBIWXMAAA7EAAAOxAGVKw4bAAAgAElEQVR4nOy9d7wTZfY/fqamJ7cXufRer4JURURBaSIdaeqigm3t5bO4iGVl7SIsKCogi2BBFEQUK9iQYgEUkHLp/db0ZDIzz++Pt3m+WRUWruO6/nbeL168ktxkJsmcnOc557zP+wipVEqW5WPHjgWDQa/X63A4jh07lpWVlUgkyIaNNCRJMgyD3w2Hwy6Xq1mzZqZpiqLIGDMMQ5ZlImKMCYJwiocVGGNPPvnk/Pnzv//+e1EURVHUNM3hcIii+Jt8Dht/TMD4YGpOpzMWi2VlZV166aUzZsxwOp14giRJp31cxlhpaSlu+/1+IsLhbNj4Cbh5ud1u3GjQoEFNTY1pmvB/7PQhE1E8Hieipk2bjho1KplMZmdnE5Gu67/Tx7Tx3whZlkVRNE0zkUh4PJ41a9a8+eabwWAwHo97vV5JkgRBwMp7WuuvrGladna2IAj5+fn33XefIAjYEZ76IWz8j0DTNEVRYBjTp09/7733RFFMpVKmacL+4AhPy3JEVVVjsRi2faZpEpFtfDZ+Edz4iCiZTMZiMafTKUmSoih4UBRFQRBgiKd4TDvIsPF7wrY/G78nbPuz8XvCtj8bvyds+7Pxe8K2Pxu/J2z7s/F7wrY/G6cNXdcFQUDymYgYY/jfNE1N04joJOQBnho0TdMwDPk/8oZt/OFhGIZpmkg1oxBnmqaQBhHhxr+lIHDTxA3b/mycEiRJgp8jIl7hUBQFNAJeF+E3+JN/Av5a2KttfzZOFZkMA9gQaC+GYWA5hm1JkgRS4ImOk/kn2/5snCpAAZQkSRRFLMSpVMrhcIB2CvAFOpOsmgluxKAS2vZn45TAGBNFkW/vnE6noiiwMzD/KG12sixzLvS/PaZtfzZOFTApXdcTiUQ0GoVFgvzHn/NjVCHLJ/J/kiQhRlZVVRRF2/5snBIQWJimWV5eXlNTc/z4cV3XDcNYt25dbm5uKpWCORqGoarqyfyfKGiapqpqUVFRXl6ebX82TgmpVEpRFF3Xx44du27dumg0SkRVVVW9e/eWJEmWZRBRM/l/SNMQkaIoyBQ6XM6kliJiJIt169f/9tuvbfuzcUpAqiUcDq9du5YxdvPNN6NbzTTNSCQCCrPb7YapJZNJn88nSVIsFovH4w6Hw+Fw6LqeTGkGkxhjq1Z9dKBsT3V5hW1/Nk4Vpmn6fD5d188666xp06YRka7rqVRKFEWHw4HnICMjiiL6d3mnUvoQjEggRrfdfMtzzz3roVMIUmzYICLDMOLxuCRJaPUgItM0ZVn+yT4PJRDTNDMtLxaLSZLkcDhIECjBSBZi1SEjlTKThl3/tXFKkCTJ6/Uyxjwej2ma0WgUHZLV1dW4wRjDDZhgKpVKJBIo8iqKAgeZjMVIFoiRU3HKJCuKw/Z//z/HSepgp3WcRCKhqmpVVVUikdB1XVVVpJrRrUtECD7487ERxDMlSYpEIg6Hw+F2U8rUk1pNPKSTmdBt/oGNUwNUCbxeLzLPML54PO5yuWKxmCzLqqoS0d69ezds2LBnz55AIEBEDRs2PPfcc91ut9vtjkajsk8xVSJVTTnFhMgEl2rbn41TBTgvCG+JSNM0l8tF6SAjFoutXbt248aNOTk5ffv2lSSpvLx8y5YtP/zwQ/fu3c866yyfz6eZRoJpquSIGRoJhup2WW9/mqahVx4ZI8iCRKNRj8eDvxIRfis2rAX/5iORiNfrxYNYEzVNQ+iA2qthGMlk0u12Y9Om67rL5Tp56zjSyyAZoMjBLyLqb999993rr79+3333FRQUgKzVqlWrrl27btq06eWXX27UqJHT6RQk0Sm7GDGHohIjLRWz0v6i0aggCE6nUxRFeGYikiQpFAr5/X58TrhxXddPpT5o49SBLzyZTAqCEI1G77rrrqNHjwYCgXg8bhjGtGnTAoHAvffe6/F4HnzwQUmS3G73c889d+aZZ3bq1AmLqSAItbguyWTSNE1d15cvX962bdstW7YUFBSgUoytZ8eOHcvLy5cvXz527FhN0xQiIsElymSSkYhaFv+mUimPx+N2u/HjwC8pFotFo1HIGsmyjDeUTCZPtCm2UWsgwHQ4HKqqbty4cc6cOXl5efn5+XXq1MnOzkYGeNq0aQ899NCKFSugXjBz5swNGzZA/ScWi1G6wntaEEXR5XKVlZXVrVv3uuuu27x586OPPlpeXk5ECD6IqHv37ocOHdqzZ4+qqIJuCjpz6KaDyGUh/wDxTiwWM00zOzsbn8TtdqMCk0wmDcPARiEej2dlZVl1XhuAKIp8k1NTU9OkSZOZM2fCsTHGEonEvn37OnfufOaZZ95///39+/cnIpfL5fP58By3263rOmOMi2mcIvD8TZs2NWvWjIhuvvnmb7755plnnjn77LNxlmg06vP5cnNzA4FAKBj2e31kkKkzicgtWmd/8P+BQAA7PFmWseDiF8AzQBUVFXl5eViRrTq1DUqvP2BDFRUVBYPBadOmMcYCgUAkErnuuusg6/PXv/61ffv28+fPHzVqVDwej8fjsiyDEJBKpbBlOt3zplIpr9dbWFiIDWiLFi3q1Knz6quvvvjii6NGjfJ4PMlkMh6PV1dXN27UmDFijHSmMiJRTFhmf/ytq6oaDocVRcFGENXol156SRTFM888s02bNrqu28ZnORDtUVoo7dChQx9++KGqqpWVlZqmDR061OPx7N69u06dOg899NDDDz98xRVX1KlTB1dt1qxZ27dvVxSldevWEydOPK3zoi7crFmzNWvWtGrVKhwO+3w+l8s1ceLEFStWTJ06ddiwYW3bto1Gozk5OfGkITkkJpAhC6JMpFjK/4tEIvBz/fr1+/zzz1999dURI0ZEIpFmzZpVVFRA2e2DDz7o1KkTckgWntoGtjq6rjscjnA43KxZs4ULF+bl5eGvhmFs3769Tp068Xi8b9++06ZNW7BggcvlUlVV07RwOHzo0CG/319TU3O650Ws7fV69+zZYxiGz+cLBoOBQMDhcAwZMqR+/frr169///33mzZtqqqq6pR0IkMiQ9YSEiVlIsZY27ZtJUk6++yzsQOAitvpIpFI8Bt4Z5WVlYyxp5566ie7Wjxu47fDsmXLGjZsyBgDJwqXZtu2bUVFRdu3b2eMvfbaa263u1u3bgsWLMBLNE2LxWInOSasorq6Oisrq3379j/5azwe/+STT/7yl7+Al8oYw9EMw1i7du2oUaMOHDjAGItpqQRjccZGjh9LMu099I1l8S9vCNi5cyf2fDk5OUT07LPP6rpev3795cuXN2nShIi+/vprsMFsWAhcdSJCkuvgwYPTpk17/fXX582bt3DhwkgkAlt0OBzxeHz48OHt2rVbs2YNHCReWIvNH3+t0+ls165dp06dnnjiicWLF0ejUZfLtXv37tmzZ69Zs+b+++8vKSlJpVKqLP6YYDQFEskgr2XrL084+3w+hCB79uw5cODAvn37iOhvf/vbhRdeOHz48OnTp2OZtuq8NgCevZNluU6dOuedd96nn366a9cul8uVSCQ6derUtm3bSy+9lIhQMbv33nsXLlzo9/sRNSuKEo/HnU7n6daFBUFIJBKCIGRlZQ0cOLBp06Zbt26dP38+YywQCJSUlLRs2RJ+Jx6P+/x+IhKIiYzIFMm0jn/AQ9qSkhKHwyFJ0vXXX79y5Uq8xQsuuMDlcuXn50ej0erqanaaKq02ThFgCbRu3frNN99EecM0TWzyYrHYs88+K4piZWVlbm5u3759zzzzzOLiYmT+iMjhcNTiohiGwV8oimLLli3r1auHpHdWVlamQTudToFIJBKIJEYCI4lZp7/h9/uxqiaTyYceeigej69cuRI/xwkTJhQVFSUSiS+++IKIioqKbOOzHNFoVJZl5ByICPRj0ALQk8FLA7m5uWBGFRcXU0ZD0KmL5mYCKQ7sIDVNE0XR5/MVFBTk5OTg1KBAExFSPAIj0cz4Z+FXAPtzu9233Xbb4MGDiYgx1qNHj1tuuUUUxb17937yySeiKCJHasNaILevaVowGMTGH+RkbPuIKJVKBYNBRIdwS4lEIhwOo2Ryona1fwsYHxGpqqqqKsIdsK0YY7Isu91ul8sFLpYkpMU30v8sW38ZY263G78AWZaXLFmydevWeDx+5plnSpKUSCTq1au3bNkyn8/Xtm1be/21HIlEwuVyiaLo9/thEzztALqKoijgRPHsLDrJ8ZzajI7JQKbsBkr8MH1II0A4RpIkQtmVkZD+Z5n9CYIQi8VQxiGiSCTSqlUr/AlJdqfT2bVrV3h+xtiv/MA2fgLO9iAiTdPASUGc53A4EBomk0mHw4Hkq67r+Kuu67FYzOVyKYqCQsjpnhq+Fv28kiTB7+KARJRIJGRZxhurqa7Oyg6QwJhg4p+V6y8qbHgHu3btmjRpUvPmzQVBKCwshMP3eDy333777t27beOzHHwHBvq7y+WCI/j5HCFFUSKRCMpuRCTLst/vh63UwvgwLQbXN5lM4q7L5cJvAOR7dGfqup6Vk00CkUCmQKZAhmCp/gucMGNs48aNHTt25F2f4XAYX0o8Hn/mmWcmTJhgr7+WA1P7iCiVSuG7xTqIVRid4XgCSmSpVArWBitRVRWJGJZWGCIilKwURUkkErzD7SdQFCUUCrndbsSamFGDw2JeCOhOcK6maQoikSAYxAxGzEL7SyaT+Kiapt1///3oQFFVFTUVxpiqqoiDfD6fbXyWgxsTCrKapiUSCdAu+fKH5dXn8xGRoiiIFdxuN9wE7BU2h9VZlmUYk9PpZCegzIXDYb/fj+44VVUTicTs2bPz8vJkWT5y5EidOnUGDhwIw1BVlRFFk1GHw8FEQVBEh9tl2fqLnB8RHT9+/O233zYMY/HixRs2bDBN89VXX2WM/eMf/ygtLV2yZAnqIjashWmaiDOIKBQKqarKaZc8tsUF0nU9FArxjnFKW17mpsjlcsmyjO61ZDJ5kmGAPp+vqqoKTZlffvnlrFmz2rZt27p16w4dOnTr1o2IHn300QMHDiDLGE/EXQ6XQEQiY4YZjYYt839QAzEMQ9O0QCAQDoeHDRu2Y8cOURT379+fSCTGjx//9ttvX3bZZWVlZX6/394CWgtJkhBexGIxHucit5JKpbD5QYyCDR/WJXDxsWVPJpNIjfExbggT0ed7Iv+XSqVycnI0Tfvwww+XLVv25JNPer1evr6Vlpbm5OTMnTv3iiuuaNCggarKjJhAJJJAAqmSbJn/k2XZ4XC43W6HwxEMBpFzql+/vmman332mcPhSCaTJSUloih+//339vr7WwDOjDFWU1MzduzYMWPG3HjjjYMGDRo7duy+ffskSbryyitvuOEGZEZkWX766ac/++wzXKlMxSCHw6FpGk8c/ttJ0OAlbN26tXv37kuXLsUKjtKL0+ns1atXhw4d1q1bV11dLYtSKpkUiURGkkCyJFncfw4j69ChAxHt3LnT4XD06dNn2bJlDz300LPPPjt79uxkMhkOh+3hrpYDe2vTND0ez2effbZw4cKWLVsqitKoUaN69eopiqKq6oIFC2bNmvXuu+8iGpg9e/bWrVsRJoKg//HHH3/yySdE5HA4uLYuX9Z/EUjl7Nu3r0mTJgMHDkwkEn/729/Ky8t5m1IqlerTp8+2bdv8fn84HHY5nAKRmdLNFJnJlGXrLwIlVGP69Onz9ddfb9iwoV69en379l25cuV9992HOo8gCG632+5/sxwul4sX0GKxWLNmzR555BH+15qamq+++qpLly5nn332ww8/3KdPH7SFw2Vy7upLL73kcrnOPvtsLMQIYH+q4fKvwGs3b97coUMHv99/zTXXbNu2bebMmW3btr3sssuICKSbwsLC3bt3N23aGK8SGclEbtVhJf8qkUjgY/z5z3/esGFDmzZtHA7H+PHjr7zySuwLZVl+5JFHBgwYUOtqj42TAGpUjLHc3NyKiooHHnjgmWeeeeKJJx588EGv1wvyx/3333/8+PFFixYZhpGbmwvf5na7cUVyc3P9fr/H40kkEpwjlxnZ/Bw8QIbsUCwWa968+T333BMMBp966qlgMIitVzr7I2q6QSTKsqoKxMKW9l9qmoZIKicnp7CwkDGm67rb7Z43b96f//zn7du3d+nSpWHDhhae0QYHwgjI7zmdzqqqqvXr16P/OhgMXnXVVYFA4OjRo1lZWZMnT548efKYMWOcTqfD4TBNc/Xq1W+88UadOnVWrVqlquqjjz66c+fOMWPGdO/eHcvoyfviqqqqmjRpsnPnznbt2rndbnQWT5w48eOPP3700Ud79erVs2fP8vLy7Oxsg8iUlThRNKkpjHLcWRbzr7Cxw28iEokg1UREdevWbd++PYL5f/t5bNQCKLLDBVZUVLRs2XLJkiVEhBSsJEk7d+4MBAK7du264oorpk2bNn/+fJD/oAN++PBhp9OZTCaj0WhlZSXKpJSeeZ45fOEnQENZu3btXn311ZEjRyKJjf87d+7cunXrb7/99rbbbjv33HNdLpeW0uOC4JYlp9cnCCIx6/RfsGNApjuRSKxdu3bx4sWzZ8+GY7/ssssGDRrUq1ev3Nxcu/jxG4Hz8DIrFshIg52FlF4kEpk8efK4ceMaN248dOhQIrrgggs6d+6MvInT6XzwwQdRyqd08MurGj9HXl4epK4uv/zySZMm3XnnnR6Ph28fCwsLkRLq2bMnlNsUIpMomUrUMDPCrFt/JUlCYYeIFixY8H//939VVVWKorjd7nA4vGTJkldeeaVJkybvvPNO48aNefHbhoUABRoqFPv27XvkkUewsYvFYnfccYfP59u6dWtJSYnT6RwyZMhTTz31+eefc3UKr9ebSqWqqqpQFAaVKZFIeDweSZJUVT2R/wOhKycnJycnp6ys7Mknn+zevXteXl6LFi127ty5cePGnTt3Pv744w6HIxqNet0e2TRJklRRYAJFJEvrv/jFHD58+LrrrjMMw+l0YhvLB4VVVlZOmTLl+eeftymAlgNdZ5IkBQKBdu3aDRw4cMOGDagIxGKx4cOH5+fn33HHHbFYDIXQxx577Kmnnmrbti2uRTKZTCaTo0ePhrAzEoTYUCGtfaLzOp1OvCQYDA4bNuycc8559913y8vL165dGwgEXC7X1KlTwfhSFIU0nQyBUrrbFFWBTNO6/jekHIPB4Lvvvot3NmHChDVr1nzzzTfffvvthx9+WFpaisePHz9+8lYrG7UGrgJjLB6PI4fMGNM0jT8hFArxFrWqqirGGCwMj4AigKfxl+DlJ+p/03U902DQaxcMBmOxWCqVikQiMKp4PM4Yi1YHWcJgsdQVI0YKIpXt32WZ/8NPze/3s7SjnjRpUv369YkI++KpU6f279/f5XLt2bOnU6dOVp3XBoeu69iucSEOzOpAeQ1q4NggRSIRj8eTnZ0N0gCW18xNkcfjgdlJkvRvd0p4IU6B7mO/3w+xNrwNLIZE5A74yTBJkWJOmbkV0+20zP64i+YZlvr16zPGBEFAtrlfv35ElEgkoGFth8DWAlVa3MZVTyQSTqcz83uGdC4Reb1eOC3IruHlsCEIp6BxhI9xw3L8i+cFiZqXjHEWlhZrQ+kZtX7sEJgsGkQpUSRm6qJ19V+eUi4pKXn44YcdDscbb7yBTwsP/M477xDR4MGDmzZtig8DegX+itfadblaA2kU2AGWVP4lU3o4L6XbhXAD9gEKAn8aZahg8crvyV1gLBYTBEFRlHA4zN8JpZMhPI+tqqrBTJPIICJJJiboSevyL5hJjGioefPmderUGTp06L333tuoUSO32338+PEbb7yRiEaMGPHOO+9ggaisrGzVqlXnzp1hhZzBZaMWQPkBtsVl6ePxuCiK8GRokEAyD1eKq6Dga+fjfU/3vDya5OIbXIMPlWXkxsG+YUQikWISGaJqWhf/YsCI2+1et27d4MGD8fmnTZtmmia6QYnI7/ejJkhpvbZrr70We0E+w9iq9/O/BtgQH1GJBx0OBzcFURTRnQnvCGvgQqicvlWL8yK8QPYD1C8kpcH4qqqqAuMzlUrJoiIIpDBy6EQ6OVPW9V8iw0lE2OGCexMKhSKRiGEYkLoJhUJ4i9wt47eIDBMiKavez/8gsIxKkmQYRiQSgfMjIugyUjpXh/4MIsKTuewG3NXpnpRzShDq8gd37969bds2XddzcnJCoRBoCj+2Xwpkpv2MxfWPY8eO5eXlLV++vKamxu/3Yw6OIAgbN25MJBLQgVNVNZlMqqrqcDhKS0u5Lgl2JFa9n/814NcLF4BZHfxxLlePpRBbHUrv9gRBCAaDtSYlQVxBVVWccdmyZZByi0ajeXl5mzdvbtmyZefOnREO66YhyYpOLCnrJJsJxbQyCDVNs7CwUNf1/v37g89YXV2N+RD9+/eHSuFPRIbxs8AXgX4RewmuHfhXimjA6XRi5wOzQGIPD3KnmCnZgwczhctPEXgJSl9z5syprq4eP358dnY23PDatWuXLVtWUVHRv3//tEKLaZJBZJJgGqJ1/Zfww5SOsLAtyM7OxpIqSRLajqqqqkDmzgy18Jza6Y/YAOLxOCdTgQsIL4hsMy+gobeIMvgymePaTtf48JLjx4/7fL4XXnhhxYoVd9xxR3Z2NjrPGWPnnHPO7bffvnLlyuPHj/v9fpbSSDcVnbl1k0xTslB/A64Le46amhoQgV555RWn0zl+/HgE54lEIicnB+2Y6MzjBoeNs73/qzUgfoDba9asuemmmy6++OJRo0bddtttqEipqhqLxZ5++ukrrrhixIgRa9eurampefbZZ8eNGzdy5MixY8cuXrwYxd/TQjKZLCgoOHLkyPHjx0eOHDlv3rxdu3bx1s9UKhUIBO66665//OMfRMQMkxiRSRJjZJJAlvafUzqAzcrK4qPAwL8gIq/Xix0GJ2XxaIunKO39X63BKSrV1dWQujrrrLOaNWsWDAb/9Kc/3X777dB/b9Wq1YoVK8rKyho0aJCVlbV48eJVq1Z17dq1sLDwyiuvfO6553guNtMXsBPPK8BFXL9+fatWrUaOHNm8efOXX355zZo14IOhy7OkpCQ3N7eystJE6CHJ0USKiCTF6vnnyMIgBQohYi4yghUBT+P0HhtWAdwqURSzs7Mh+Dl16lRUJtauXduzZ8+WLVteffXVAwYM6Nq16znnnNOgQQPsyMePH3/NNdd4PJ78/Pz777//xhtvxNWBbj1yKLwj/ReBFAekLDt27NiuXbvnn3/+hx9+GD9+PF/6sTbm5uSSYZBA2bl5otOTjFvnbyoqKig9+1BRFJ5e4iE9OtJx2zY+yyGKIlZPxlhNTU0oFOLb8datW1911VUvvPACiCogJcFfom7h8Xiqqqo2btzYpUsXSm/KsUxhpg3XVP45DMPwer2hUCgzp3PrrbdmZWU9/vjjW7duheHCHZpmigSTTC2lGaYmK2KhZf6PS11DRpOTKfDr4SKb2JbyGbI2LEQqlXI6nalU6owzzjjjjDMqKipycnKwA0M/ucfjicViHo8HRREiEkXx5ZdfPnz48KFDhzRNe+WVVxKJxPLly5csWSJJUosWLSZPnoyszYlOimpbjx49Xn/99ZYtWyKCSaVS/fv3P3z48IIFCw4dOnT++edHIpGioiJRksg0SJTjSZ10xedRrN9vIcmOxGb79u2ff/754cOHZ271TtLMbOPXAB4LnJdoNMp31UR08OBBXuENhUKyLKMnyOVyORyO/Pz8Dz74ICcnJzc31+l0ulwupK/5pKqT1EURRxYUFKRSqWPHjuFBEGHy8vLuvfdeIho7dmzXrl1FUSRTICYRk4lkkmS3y7r8MwIO/kbh8Bo1atS8eXPUwiGQAEO04wzLgY2apmlutzsWi4XDYQyZcjqd33333TvvvDNjxgwQogoKCmKxGC5ENBodMWLEnXfeOW7cuHPOOWfmzJlXXHHFgAEDMMAS+zYUC050XtSRiWjIkCELFy4877zzunbt6nA4jh8/XlBQQETBYLBr167dunWTZZkYkSmYGhNIopRWU2Od/cGrIbFCGTs85EKJSBRFXmHkDac2rAL/knE3Go0+9dRTuq5v2bLl/fffv+aaa8aMGSOK4qJFiz744INQKLR79+769evv3bvX6/U6HI7i4uLp06ePHTvW7/cPHDgQrhTpi8xiyYnOm0wmGzVqNG7cuNdee2337t2lpaW6rh84cGD16tXxePzuu+9GLoYZpEqKKAmKKpGYqA7vtzL+ZWk9kZqamhUrVixZsmTlypU8paSq6jnnnHP99ddfdNFF9vwjy8G10jRN69ixY9++fT/55JOcnByfz/fss8/27dsXKdh9+/YNGzbMMIwdO3Y0atTommuuKS4uDoVCgUBgzJgxhw8fXrdu3ciRI2HHXFP+J7PNM4G2bthow4YNr7/++j179nz00UcIXMaNG1dQUMDrwqpDoRSRRPF4mIREdq5cG/49fwJy6wimEHCgCjl06FD0llIGw4CInE7nDTfcACq2jd8X5glwkuezX+LfI6DEXGoYAJjwXHcPOZAfafomYzpjOht9xRhy0M7DW097HwZFX0x95YI3CGzfeecdSZI++OCDpUuXYkq21+vF+0MAlUgk+HbBxv8/gPiXMQaxQKR7EYBSmpUIAULTNE3DIMEkIcWEHwPq2tgfpattlN7JVVRUTJo0adCgQdFodOPGjYyx7t2767p++eWXo9tq9+7dV1xxxR133HH77bfHYrFa1Hls/NeCZWwNkSzUdR3tmyxNhAY9QJQFEg0SDRJMIiJ2+vNnoCfHpaWdTmc4HL7llluWLl162WWXYcii1+u96qqrNE0rKCjQNK2mpqaoqOiKK6644IILSkpKbrrpJjv597vDqkvwk7zHiRisPyooMCKclonEiJhamzwIFPUpHfv88MMPixYtGjRo0IwZM4ioTZs2oVDI6/W6XK7mzZsrirJz506Xy1VUVKQoyhdZiHMAACAASURBVO233w4KVi3Oa+O/EEjoCoKAdk88yNc3ZCIZY0hGxqIJYhIxhZhCJBI7/Twcb4UC24cx5nK57rrrrtmzZyNor1u3rtPp3LBhA6WHwl111VWffvrp5ZdfjvcHQX6LPr6N3xncj/LUG8AH3Xg8Hv642+0hJhKT0sZ3+vwXmDY2lVjdmzRp8vDDDyPgTSaTLVu2TCQS6HofMGCAz+fbuXNnjx49IHvar18/5Ah+/Se38d8AiL/wOQuaplVUVFRWVlZUVBw7dgyqmMgNaZpGAhHDP5EEk4TkafshDHlHSgX5ZM75Bgm2WbNmmzZtMk1T07SsrKyXXnrpsssui8fjgiCUlJRMnTo1sy5k448OXtMnonA4vG7dui1btkQikUAggGRNt27dzjzzzB9Z7jA+IoFMYiYJteLf/2SzCfvTdZ3XH5s1a8aTLAMHDty9e/fGjRtdLle7du1Axwf59td/eBsc6PRGCwj8Am8mR0KEjyXCmHRVVTPZ9ngJSm1YLsHmQlmPR5wQ9ADXCwsuSA9EFI/HlyxZEg6Hx44dm5ubS0S6rn/99ddvv/12eXn5xRdfLAgC03VBkEkwDS1CjGRJtbL+xoe/8R76yspKRVGKior69OmDYBnv2zY+y8GHaTHGMHCLMvo5sDTBU2DaDGMMf0J3rNfrRaMknBkIf6IoglWlKEowGMRkOTR20L9G0LFYbOXKlR999NH8+fNBOhRFMRwOd+7cuWHDhk888YTf7+/WrZsgy4Q2eEEmRnqKWckDyGxBxdiJ2bNnFxYWvvzyy/jMlNaIteefWw4ukSsIwvbt24cPH/6nP/1p4sSJ48ePX7x4MYYSENGkSZNGjBgxaNCgxYsXJxKJadOmXXnllZdffvmYMWMWL15M6Z093yMxxmpqakDiglGivMGbmGD3Bw4c2Lhx4/XXXw99X13X4/F4dnZ2TU1NQUHBtddeu379+h9JXJpAuqioXknxqLJ182coHYqj9oK7GzZswFxGPvkEj9vkA8sBl4Yv9ocfflixYkW9evW6detWUVFx8803T5o0CZ3hQ4cORefHBRdc4HQ6ly1btnXr1tGjR7vd7ltvvXXy5Mmo4LN0WfWtt97avXu3oihVVVVYo9FHhvCWC93W1NR06NDhrLPOGjJkyHPPPffBBx9gA5CVlZVIJOrXr+9wOI4ePUqMSBVIIWbKRkI3YrqV9gfzwgYiEokQUaNGjRwOB+IjLrtrB7+/BbiABPZ5LVu2nDp16g033LB06dKVK1c+8cQTc+fOjUaj7dq169ChQ9++fbFpU1V1wIABw4YNe+655+6+++6ZM2eidQ1T04lo1qxZq1evxpAZaEhGIhFOX4WZer3e3bt3FxcXO53O0tLSq6+++vjx4/PmzaupqSEi3l8bjUZJICZSilEyZRCJPtk6/XvKYNhLkoR2dHAYUQ3EWGI+9s6G5eDyBoyxiooK0AVEUWzatOmECRPmzJnD0nMADx486PV6ETLG43Fo96xevfrSSy+FFgW466qqFhcXN2zYkEsjwPNxpQDucTVNi8VieANFRUVXXnllQUHBvHnzVq1ahaVc0zSfz2cIFCNKSaQ4mVNM5aiClfxTfHLsPdFvAvIL/GIm7cDm//0W4J0+Xq8XTR5oxQXJORwOI+CoqKi44IILEJrE4/F33303FoutW7cuLy/v0UcfxaFeffXVb7/91uVyrVixoqKi4ssvvzQM48Ybb2zYsGFeXh5jDFbIxQ9KS0u/+OKLHj16UDrWueSSSxo1avTOO++kUqn27dtXVFS43W5GekpIisQkR1AxdQods5iHjKCJMYYIf9CgQa+99lrnzp2xHBMRhtnZxmc5IP8IP6QoClpg4dgYY8ePHy8uLkY2uKCg4OjRo16vF8ZaUlLSq1ev/fv3N2vWLD8/H47NMIxAICDLcl5eHqZT67rudDp1Xa+srISeJGS1sKdq3LhxIpHYsWNHZk6ndevWd955ZygUuu222/r16+f1eolEkUgiIZHQDCIK+Kzvv6T0TE4iOv/887koGMhhoGzZ+T/LwUuabrcbUjvQszMMY9euXUuWLJk9e7bL5YI0UWFhIRFhENxFF100dOjQ5s2bX3zxxUVFRVOmTDEMA9NBdF3fvn374MGDR48ejYNXV1dnylRwqT9RFAcMGPDSSy+NGDGibdu2WPHwlkKhUOfOnUtLS03TVETFb3hIIIUVx2T3vqR1dVikPRF8+P1+JCqxIrz11luYjDNixIh4PA6WmFXntQGgnwhzpmVZDgaDd955p9PpLC8vf+GFF6ZOnTp+/Ph4PP7FF19s2rSpsrJywIABbdu2raio+Oyzz+6+++7S0tLHHnts4sSJRDRp0iRsllKpVHV19bFjx7DI/uJ5EWt6vd7mzZtfdNFFb7311kcffdStW7f8/Pz169cfP348KyurZ8+eP/ZjaD/W30RDIEGOKNbZH9LLyWRy6dKl48aNa9q06aZNmwzDeOutt4YMGYLc+uOPP/7222+jLcWGteDEp3g8XlJScskllxw5csTtdgcCgffee++iiy5CgvCrr7668MILYaCMsdtuu40nDseNG1dTU3Pw4EFN0yAZ7XK5rr766kaNGp0kZOR57Orq6u7du3fs2LGsrGzr1q3ffPNNgwYNSktLW7RoQUShUMjpdCoC4nQmiTUihTxm2DL9e8YY2vVmzpypqurUqVMNw4DgHxFBT5iIZs6cidWhdqewcSLE43HwPbn+BL5kXE2k9Fj6GkUiEQw/xzIFgcBIJMIYi0ajOELmjAIuq19VVfUT/j0/JhfOx3Hwkmg0Cl7Wj0czNJaKslTwinGDJYkOHNhmZfzBGCOisrKyVCrVuHFjURSXLFkCefU77rjjpptu8nq9r732GoYiW3heG0TkdDq5jG4ymeRpFMYY6qJEhFzYsWPHwIlCipiIBEFwuVwulwsypkjQQroUB2cn7dfG1cTILp/P5/F4uPo0JH5BzSciMolEiUgySWQCmSRYZn8Y+BSNRtFqv3nzZiJ6/vnnNU3TNO3vf//7XXfdFYlEPvnkE1vk6jcFrjdnZ/JcMRrVZFkuLCyMRqMox2FGEFfqACkBJQMiCgQCEE49eb4C54KUPiwVmwFcevwVuTmDCUQKiaoJBWiyTv8AO1aPx9O8eXPG2IwZMzp27Pj111+LovjYY48hEY3n1E7n1ca/BbouKCMsxSRzyL4QEXZ1mKoVCAT4zg8V+erqakgGgixDaRkDONGTnJcPmqN0GQaWp6oqWKFofhMEwSSBBJEERRfdJDgMclo/f6F37966rodCoa1bt6JNrnfv3i6Xa9++fVgXBEGw+c+WAzwoVVXhz3gAq6qqx+NBLYDSutwwOLTy4JmKoiBZDaBxEWkyJBFPdF5uxCCAYaPJZ9rAy4IPRUSKIjGBDIEkk8ggybRu/eWran5+/qpVq4goFouJojhv3ryWLVsS0erVq2VZnjBhAtk6978BWLrTDOJPeJDnuUBpSSQSSBpTmjfKucNwnKCG8KEMeDnvsqVfunCYIExEkD7KNFYksYkIiblkMsnINCjJKOEy424z6TKsm/+hKArUnhFKJxKJsrKyQCBQWFiIDzl8+PDRo0ez9LQdWwLGWsCZoTLBpRaRduUCGlwrA6w+rEVQ6lFVtaamBpIxpwWeGuSd3bFYbO/evYqiFBQUQHQLT3A4HKFI0O11i2TIJilEooXzPxKJRHZ2Njy21+uNxWItW7bETwG5+KZNm/Kyh218vwX4shuNRjG6UpZleC8pPZ2aSzMSkaZpmTN/ajH8gzIoWJjp9eKLLx45cqS4uFiSpP3795umOXr06KZNmxKRruted0AgEgyFTJdBrpSoWGZ/+OSSJEUikd27d69bt27+/Plffvkld86JRGLkyJHXXnvtueeea1OgLQefKsAYQ/ETwhco3cIvYtoWEVVVVWVnZyMygHOCFhuf4HzqANEEEpTz58/Pz8//y1/+An6JKIp79uyZMWNGjx490HfGiFJEoki6KBpEpmC1/jP6oEaPHj1hwoQvv/xSkiToUkIK+I033jhy5AjZ+7/fADC+cDiMaPfw4cOQxcWfQDtHViUej+fk5EQikcrKSrzq4MGDuCKna3xEhDJJNBpduHDhDz/8MHLkSFxrIgqFQvXq1XvyySc3bNiwadOmeDweZ3qcKCKwuJLUhTiJccvsD7PnTNN8+umnd+zYQemovqKiAoqUCKwyFaFtWAg+2NLtdq9fv75jx469e/fu0qXLoEGDvv32W0VRpkyZ8uc//5mIYC6rV6+GFtSePXuuv/76LVu2/NgieZoAXxrzggcOHDh58mQUPERR9Pv9kiSFQiE0gEuSJAsyolSRSGKkmNb1f4BwqijKW2+9lUql/vKXvyD5+X//93/V1dVvv/12ixYtHn744V69ekG+yKrz2gC4DpUoilVVVbFY7Mknn/znP/+ZSCRGjRpVU1OjqmpVVRW46B6P59ixYx9//DEGtL733ntEpChKLepSiJ2/+uqrRo0adenS5brrrps+ffrrr78OU0bFpWHDhsgp6prhIHKR4Eo6nKQ6U9bln0VRRLX3iy++cDqdI0eOZIw1atTo5ZdfdjqdF1988S233DJlypR169bVbs6djZMDYuK4DeWx888/v0mTJitXrty+fTsmT0ejUQQc8Xg8Fou1aNEC8W9OTo7L5QJd/nSB9ffgwYPZ2dmBQKCoqOi6667TNG3+/Pl79+7FXC40cR45csSlSiqRapBIpkF6TE1auQ5i29uzZ0+kQAVB6N+//759+0KhkCiKeXl5yWTyww8/PLmetY1aAxRUJOG8Xm8qlfJ4PC+88IKiKPn5+Zqm8dSgy+Xy+/0gBaNxNhaLoVeIiGpqarBZxDLFucO/COwgCwoK4H1isVh+fj4GgSxatAiZYJfLVVFRkZWVZei6RKYg6WGpIqyaVXWjFu/D0FhFREePHk2lUoWFhS6Xa/To0cuWLbvttttQma6pqbGDX8uh6zraaxRF8fv927dvHzRoUJ8+fe6+++5nnnmGiEA7MAwjFovxccBE5HA46tWrx9MUwWDwnnvuadq0afPmzR977DEiQi3kROdFKfWss85au3YtEfl8Pgy6Oe+880aOHLlmzZpXXnklEomg6CVLsqAbxAyXQyUHRVjcyjpYIpHIyspq06YNEc2bN6979+49evSYNGnSihUrVqxYQUSCINSrVy8rK+skfEYbtYMsy1lZWXz+b7169S655BJd16dPn476UzKZPHr0KIwD1Hw8mTH2ww8/4DYqFhdddFHHjh1VVcULf5TuO0HIiAlHxcXFoihu27atcePG4XA4NzdX1/XGjRv/9a9/Xbp06fDhwx966CFZlo2kLokKGeSMKXKUfFGvZfw/rqobDoe3bt367bffMsbKy8vnzJmDdVkUxcsuuywajaI1y4a14JRKwzBee+213Nxc/jg6MufPn1+nTp3q6mr0to0ZM6ZDhw6Msa1bt2JdZmnuIEuL5vLb7MT6u2D7McYqKiomTpz4/fff8yfHYrFkMrlo0aLHH3/8x2cbjKUYS7CJg0a4ifZV7bAy/8wYCwaDWVlZ+N0QUV5e3pAhQ84999x9+/YpinL++efTSYdJ2Kg1EIeiaIsZHsFgMBAIgAeg63rv3r1nzZo1dOjQ1q1bJxKJ999//+2330azktvtPvPMMxs3bmyaZiQSmTZtWuvWrUGiiUQibrebnZj/4vF4cF6Px3PPPfc8//zzPp+vadOmubm5hw4d2rp1a8eOHZHoEQRBcciGTJJsmF5mEjlSzMr1VxAEXkDE+ZxOZ1ZWViAQqFu3LuiN6AW08KQ2AFgeSCtnnXXW448/jugBNU+EIGvXrr366qurq6tVVV20aFGnTp2IKC8vb+bMmXv37i0vL0f7TmFhIS8lc02pk3gNlF6cTmfdunUnT568Y8eOAwcORCIRn883YcKEkpIS/BKISCdTI0MmUVRdRGTGyLL1t6amBq+tqanRNO2ZZ55p1aoVhm8R0f333799+3aWHspVi+PbODn4/ifzRjKZRNshHuEsfDySTCaxaiMoYYwh7GWMISLOvHGi9ZcjGAwiZMYzUX3AS/BXxlg0qUUZSzA2cdwENykHf9hvWfwbCATwwSRJatmy5XXXXbdv3z58Fy6Xa8qUKc2bN58xYwbSVLYEh+VAhZ3SbPhYLIbcMgpOMAWeEwarT1VVyDIjh0dEuq5DqQg0hVORCYCXhbwBOivQEceV4LAkgv/sUBWBiOmkk2SQLErW6W8wxohIUZR58+ZBsSYajSJoisfjcOO33HLL559/zr8jvHVE/rYi9K+Hw+FgaRYgaC8QymCM4fJjL4j/+bwqSl8OSifzsFZSmtvC+TInOqlpmngmJ1qjGcU0TU7lB9dLIKYQyTLFKJqklOm0rv4GZZB4PL58+XIw7P/5z39u2bLl+++///zzz0ePHo2OmCVLlhBRJBIBHYjSXCx8cpuX/2uAnD+ftgwhMiEN2CK/S0RYN7Fc4m4tWnNQ6kVCEVwbIjIMIxwO452g3PAjRz+lScyQSNclnRRdk3XL4g+wGk3T3LFjh2mas2fPHjduHNZft9vdpk2bHTt2fPXVVxj+wSUaMHMHRFzIt1n1fv7XwJ0ZZUiBw8J+zjbCg3CNma+qBS9EURSElZR2JeACOhwOTOIF166iosLr9TqdKpk6CYwEg0RKKNbpr/GJINdccw0RQQLB5XIh2xkIBJD8gxfEdCTsfPncHLL9368Aywgc+YMQf2H/mj3JfOTXE+GwdwyHw7yV0+v1YiGGu8WmMy8vz+l01lRUkiGQKaq6QCZJpnU8KFEUE4mE2+0eO3Zsy5YtZ8+eDbUbTFtIJpPz5s0zTXPChAngh8Etw2r512H7v1qDb/Ug78znsHH9HQ74OT7t7SfD32pxasYYym7JZBJyZxh0jf0o2pCJKJVKZeXkk6GQpjhTTiklexOnP//oJHA6nZqmbdy4cciQIY8//vjgwYPHjBmDEdxPPfXUV199NX78+LKysp07dyqKout6OBweNGiQz+fj6SWbF/grcepfIF+jf6ULlGUZA63dbnc0Gt20adOXX34ZCoVKSkr27NlTWlqKzHYsFnO73WbSEAWJBDIEAc3nVtofzvHxxx9Pnz6diD755JOPP/4YvXd+v58xNnfu3Llz50ILBtvVFi1adOrUCdx9rstu4Vv63wEXpMddHltwUj5LN7Blytv/+vU3Fov5/X6QX958883y8vIBAwYUFxdHo1FVVT/88MNZs2ZBOFDXdckhp4hMoqDTYIoRU6zrfyMit9sdj8ej0SgkwLC8Yl4S3h9yVOAkmqYZi8XQL0fpQYm28dUa3PMZhoHZf/F4PJVK1a9fny+vlF6mMQucT6mEaYKXfroW6Xa7MSb4xRdf/OijjxYsWFBTU+P1esGaGThw4KBBgyZOnHj77be3bt06ntBEp8qITEEkQdRFS/0fEblcruHDh3fv3t3v96PyYxjGsWPHDhw4gDw4z3kmk0mo/VOGHKrdl/lrgC88Ho/v37+/a9euDRs2dDqdXq/3sccea9OmzfTp07/88svFixfD+JYtW/bPf/7zrbfe2rt376hRo1566SUIVVFayg3rKWjtoMDAiDP36DBcv99fVVVVVlbWv3//+fPnDx48GArS8D6iKN54440ffvhh69atZUFWkkQmZZOfTBfTJIvXX4fDcfHFF+NuMBh0uVw/d2lIuENSPScnh9IZea4qbKMWwG/YNE2v17t3715RFOfMmWOa5rRp0y688MKKioqdO3ci5hNF0eFwVFZWokyAAZGgyUDklGtuuFyuO+64o0WLFldffTXOEg6HE4kErwXD4hlj33zzzXnnnderV68NGzbMnj27Y8eOnGsiSVL79u0/+uijgwcPlpxRQjqRQAoTSNfNmHX9R8jzwbbA5Ab5Ah8s85mCIMDbgZdFRNAcwcguq97P/xrwlaILTNf1nJycDh06nHnmmQsXLqyurt6/f3+HDh2wBCHJxWVM4djcbjc4BPgrUmOiKG7evBldI/zSqKqKPX0sFuOTL8EpNgyjU6dOw4YN27Nnz/z586PRKAJNwzAQZSYSSZKIZNKMCFHS77BOfwMfA4UdECGRWOYD4qB8g/o0ESE1jefwyN/e/9UaXLEKQmSiKO7cuVMUxQceeECW5bp16+7btw/ZZl7SDQQCSMT6fL5gMIj4jxeiQBrweDx8s05EiqJEIhE8jcseOByOSCTCxRUaNmx4+eWXezyeuXPnlpWVybIMjqDD4XC6FZ3iJCdNIegUzEKHdfwrUJr5WBz6mWgXxL/4XV5VhDlCvcaqN/M/CKfTyccS+f3+srKyW265JR6PHzhwYNGiRfAOWVlZ+JJhrPBPoBqAqcAHvs2ZM2fu3Ln169f/6quvtm3btnr16ng8/uCDD3br1i03NxeFe6QboSNz1llnbd26tVu3btiDRSKRfv367dmz58UXX+zWrVvfvn2DwaDP5zNJT4o1EpEsVLkYyXqVZfaX6bo4n4LSFTYi4poHcHtomudEfK5RZ7vAWgNbMafTWVlZyRi77LLLQKtr1qxZKpWqqqpCU7rf7+dKWUQUCoUqKytxvVBEjcfjPXr0aNmyZVZW1p133tm4ceMrr7zSMIwWLVpA3rS4uJjSqRxEPLm5uXv27Dl48OAZZ5zBGAsEAqZptm7d+sEHH3zzzTfHjBkzZswYSZIEEhk5UsTiGulEpLitjD9qamrcbvfevXsbNGiAnSniWS7pz9Px0IihdCzCiQi2C/w1AI3P5/NlZWU1b9583LhxuAoQFurTp8+8efP8fj/uvvHGG02aNAmHw6qq5ubmYrFCgIJJpaIoappWWFjYvXv38847j4g0TauurgatC+VTp9OJam9JSUmfPn0eeuihKVOm5OTk8CGaoVAITT/9+vXTNE0zZFHM0Yk0qWGYlLhQZJn9QfyKiJo3b44q3OzZs7Gx4zZHGYlQyFFCJQSbYtSFbROsHRD/+ny+VCp16NCh8vJy2JlhGGj46tWrV7du3UpLSy+66KKysrINGzbMmTPH5/M5nc7du3dfe+21oIDE4/F58+YVFhZCwy+RSKBrCdlZhMYQLiIiVFwRX7Zr127ixInPPfdcUVFRly5dcnNzN2/evG/fPsMwbr31VqTeDCKByGDk9RWS7NlbHbXM/kAaC4fDzZo127FjR7NmzbCYYlg17zmHXAN6FCidNRUEActu5owkG6cFnn9RFKVz585vvPFGZtpBEASfz7d8+fKXXnpp1apVderU+fTTT+vUqUNEHo9n2bJl27ZtwzgupGbBETQMY+bMmWjv4MfBhg934T541qy0tLSgoGD79u0bN27E9PGOHTs2bdoUiQ7GmCgIZJIkUrLmEBkxv0+2Uv8e4f0777xDRC1atKiurubMbw70YoHkbcNyVFVV4UY4HMYNTsfHZYXOLjvxVQZRnmU01OFi4YBHjhxBZifz4BCOyTwgiP6Q3cUjuO78CdgOlpWVWbn/83g8yPw98sgjd999d6dOna666qoGDRpA5BXpvSFDhiDVZOF5bXDw3i5sr/l+hjEGYXFVVUGIB0cYimyZRHzuq1iGiCrS2pQmKzDGUOtn6cId7/bARot7RChhsnQ2Ea/ljGhJsq7+wTvv+/Xrh2CqvLz83nvvxRjFWCwGHk7r1q1LS0szK+U2LAF2NaDdwyF5PB5uClh/Kc2LBjOeS+1SxtRwsOOgPM4TungOaEoQscRhcaFhc3yN5i6Qb/r5/orSsx4w3Eu20A+BbZBZQON6NnwjAoUlxhi0SKw6tQ1Kd1VjwyOl598idYx+Ijgw3qsBd0Vp4aJMdXKWwU7lTgvEPrfbjZIunhaPx3FBWZpQ/WOfR8YLWZpiKIqiLMvwU6lU6kfeu1WfH/bEGJszZ47D4eAC6qIo7t279/Dhw8FgEOJLmb8VG1aBpecAZq4tuOrISwDc43DCB0tT8Pmay10XNyw+tRk1El64+0lNgZ+UjzjNtEV+XjRgQBfa4vWXMTZ+/HhKT8bGm+ayr/y92nlmywGqPfc6nIHCh0Jy/hX2aui24fUqxhiWXfDlhPREGryKZyeOHz8uiuKaNWtGjx6N4n5NTQ2MFekbXHfYKBwNMh5ohkINJhqNrlu3LpFIhEIhK/XvKb0//XFpT1cSUYTmREibZPobgU+AgTXAdXHxe94Xh80fy6Da810gX53BNoBDAecKVzA3N/eCCy749NNPX375ZSJSVRVWlfk24IPhRLnd88cpvVUrLS2tU6eOxXFoIpH47rvvUP9GLr5Bgwb4wPirqqpIINlLsOX4yVKYGeHx2zxd94vxH18ouYPInCCCu/PmzYtGo08//fTjjz+en5//5ptvFhQUcAYJVt6T9HFCCBUTsl0ul5XxhyRJ27dv79mzJ4JzMCb43oKIPB5PVVWVvf/7I4K7DL/f73a7c3NziUgQhIYNG0JiHuAL3YmA1Z+IsCuwzP6w9rtcLow9gvF5PB4MAsVzsBehDMKzjT8QeHoPiR54MvavLXP/lkEM9uv/u2vh+xMEAS3HnEYfjUb5cMQ6deogCU4Zw+Js/FGASALei/+PaAPhhZkeNEzpUPoXwXtDf0zKWPgWdV1v27YtajJgzOINHT16dOjQoTk5Ofv27TPTOq8WntfGfwzI8HE74/pGvHcJi69wYiALCGtmzDr9Fyz88MZIeCqKAhGQwsLCZ555Zvv27XfccQfIibXQGbHx+wIlXcowQf54JoMddnkSCsFP4h7L7A+GDxMEFwZFQ13Xq6qqIpGIpmkrVqzYtm0b2X3mf0DwnCK/S+n8dmbjJqdynsj/cWNFw7KV+RcMu168eHFBQQFE+91uN8oszz//PIISjKaw+yz/cIB/4ZU0XD5ObviJV/v5IxxYeSm9Rltmf8hw7tu379prr0Xlg3dMod6H2+Cc2fXfPyi41+CcduSfgUcxUQAAIABJREFUM8kHJz9CZiaSLFx/sfdEzz2lM+ngSqRSqfz8fFmWZ82alZ+ff+TIEdv4/nDghsV3crjLi3iZTzt1cpOV669hGMXFxbfffrtpmuFwGLnArKysysrK4uLis88+u0+fPkRUXFzMZxXb+APhF9dZvp7WDlbaXyqVysvLe+SRRyRJ4oT7n5TaIMp2cklXG/+FyKTJZBocD0oyy3qnvr+3zP6gFQJrS6VSmzdv3r59e15eXjAYHDlyZDKZxJw76E9adVIb/zFwWtdPvB1n2eEuZzn8p+3P4/FgzEMwGBw9evS7777LtadHjhy5atWqZcuW9ejR47LLLrPqjDb+k+Bml2mFyCcjk1y7w1oWf5imGQgEqqqqrr322k8//ZQxBqGQc845J5FItG/ffuHChaNGjcIwCbv+9kcHtz8+5SHTBE89uWal/RFROBx+8803I5HIAw888NprrxFR586dFUUpKCgIh8OyLB84cODX/Fxs/JeA2x92+dz+eI3kFI9j2fory7JhGJs2bUomk6NHj548eTIR6boej8fRt4KZJ9Ci5MpXNv5AgDRMOBz+9ttvd+3aBYGEDRs2QIuI8/UpY7P4cwiCgFChoKCgpKTEMvtDEhJndTgcEDxVFAV6cpWVlYZheL3eUCh0xhlnWHVSG/9JYEb6mDFjVq9eDS5MeXl5z549iQiUfZaeIHKSjAxeKElSq1atVqxYYTH/OTs7WxTFefPmXXLJJYMHD06lUhUVFUQ0e/ZsaIUUFRWpqmrX3/5wgJoHEa1atSqRSNxxxx3IsmG2NA97/+3OCl0j77///qZNm0RRtFL/AMogl1xyCT8Z3x+gL/X888+v3ZFt/JcgFAplZWV16dIFOo5cXOG0kEwmb7nlFkmSjh49aqUTQuvyQw89VFpaSkQej0cQBHCeMWd2xowZ8M+2zukfFMlkUpZlqAkwxtAFDIpJJhGL/TsviP1YPG6d/q5pmuiwb9my5dKlS6dMmRKNRiF+oOt6//79P/nkkzZt2oiiGAqF7BS05TiRs7Hq+LFYjHNOcdhEIgEOFZ4gpJU3ThJ8AAhW0Pdu2f6Pd5LKslynTp177733r3/969atW5PJZLt27XgtLpVK+f1+u/77hwN2UIIghEKh/Px8/gj9a0YaOIndZ3aFi6Josf59KBT6+9//3qhRo8svv9zn88HhGYZRXl7+3nvvud3uIUOGQI7IwvPa+A9A0zRZlqFg4fF4uNxAZn8jL/5mMrJ+Ai50S0Q+n6829gfHnhnAouwry/LRo0dnzZrFGOvXr188Hj/jjDOQ7WOMjRs3zuFwrFu3DrtDG9YiFotB8yUej5umiVo8v0YwFz6oshb9h1gukcrVNI3LDSCVwQUtNm/evHnz5sOHDyeTyTp16hQXF/fs2ZPPt6K0TgPWw1rqHwjpqYq4Ab2FLVu2BAKBsrIyqA19++23HTp02LVrF4zyxRdfJCLM3KFT6BK1cbpAqytol7Isb9q0KRKJuN3uwsLCrKwsvnoSEWPMwuZX0Npx/Hffffezzz7r37//sGHDotFoKpVasmTJpk2bhg8f3qBBAz7oSpIkpIcDgUAtjYB/Eh7v9OjRA5Li0DYdOXIkfzIoqCgUcoUvCz66jQzgKsAJffrpp/369TvrrLMwQKFVq1ZPPvmk2+3mGlEnWR9PF5qmwfhmzJjx3XffPffcc0QUCoVyc3NN07zhhhvWr1+/dOnSG2+8sby8vKioCKdG/KHrv2L+L8Ic8KmcTmffvn2dTmc0GoUKNgYP+3w+URRTqVR2drau6926dWvRooXT6bSTz5ZDyFDGLS8vl2V5xYoVa9eunT179ty5cz/99FPIYlRXV1v75cPiDx8+vHXr1t69e7/zzjsIMSnN9WzdunVxcfGbb75ZVFSETSQRQej32LFjtXwrmcEOrHDixIkTJkwYNmwYmlOuueaaMWPGjBs3Dr+5Xr16zZgx46233hIEobq6+tcwZm38IrCjr6ysJCKHw5Gfn4/iJ2OsTZs2LVq0iEQiyWQyU4vNKkSj0S1btgwYMGDgwIHbt29fsGDBnj17uF/0eDyDBw/evXs38m6CIKA3XNf1/Px8K+sfjLGvv/4aMl6hUAiH4nrCEBCORqO1PriNU8SqVauIqHv37r169XK5XOeffz6+/Kqqqt27d2/ZsqW8vPx0jwmrqK6uzsrKat++PX8cMtEzZ87ctWsXyHVvvPHG9OnTN2/ezDLUpGfOnFlRUcEYgyrBhAkTYCS/KgjAoYW05pooiq1bt16wYIEsyz6fD5ERXDEkByktUGzHH5YDOidQdzRNs6Sk5Morr8TYrQULFowdO/bVV1+dO3furFmz3G53mzZtIKD264H1F4U4l8tVVVU1ePDggwcPvvHGGx9//PHNN9+MQcCmaYKMjK1/JBL5cTbbrzw9T3YjyJAkadiwYZFI5IUXXvj+++8RqBcUFAwcOBDSHIj/beOzHJD0AyE0FApJkjR+/Hh04TRo0GDw4MHHjx8fMWLExRdfjNmqFp5a07T69evv37+/SZMmkB4oLi6+6aabXn311Yceeuiqq67Kz8+PRCKQzKK0KrogCEeOHPlVdpC5jUNKKZlM7t+/v3///jt37iQi6BZKkjR58uS33nprwIABNvPlNwKWFN7tVVVVhYlAjLFXXnnF4XDUrVs3mUzWrVuX0qk4q8AY69y58xNPPHHBBRdggo3L5TIMY+TIkevXr1+/fv3KlSsHDhz4/zTHMzRiLDMF+FVZlv/0pz8dPXqUiEA45WqTQ4cOXb9+PeTYbP695eD640TkcrkSicTgwYM7dux49tlnf/bZZx9++GEsFoO/qKystNYFwLjPP//8J554AmfHQOdQKNSpUyec9KKLLqJf4p1YuQ4mk8nVq1d/8cUXRNSzZ88bbrihadOmO3bsWLVq1axZs4hoxYoVnTp1svCMNjiQV4MX6N69+/vvv49CiN/vb9OmDQ97Y7FYbm6uhfqLsVgMp7700ksXLVr017/+tUePHuecc055ebmiKFOnTi0oKHjggQeIKB6P/3zdt9L+GGNHjx6VZblJkybvvfceEk7NmzcfNmxYVlbWtGnTHnjggVtvvTUrK4udWB/ERu3A5X8wZ+b8888HyQPFiQMHDmDlRbhgYf6fm1RVVdWYMWPKysrWr18/bdo0CKB16tTpggsu4GNdf273ltkfPu3atWtVVe3duzcy4Fzssn///lOnTvX5fJh5bNc/LAfqYE6nk08+wjbL7XZrmla3bl3GWDwedzgclicfEHHDrTRs2LBRo0Y8JYLh016vF40jYOj9y9u26k3gh9WqVatYLFZWVoZgB6PeiGjXrl1EFA6HkabHmHgb1sLhcPALn0gkEPxxTqggCG63GzSR6upqq06KETQ8rMQuEyPjUGv1er2pVKq8vBwpuZ+83GL+c3FxsaIo77777pQpU/bs2YMU/EcffTRp0qT8/Pxzzz0Xz/z578DGrwRyLpyKh28YkR8fwYCJVNFo1MIqiMvlCgaDbrc7GAwKguD1eoPBoNPphAmi+vVjqYMIquCZsJJ/qihKr169oH/197///YEHHuDKa5IkGYaB4jSfFGzDQiDPDz8EK8TCxzdegiBgiXS5XBZmwRhjWPGR+cMNDLEmIojR4wcQiUQ8Xq9BxAQyBDIFYoKl/k+SpEAgsGLFCkySpjQtEVOAR44c2bt3byKyje+3AMto/MaaC7NACRhcUUpn/rjx8YQIMmK16Mv5RTUBpN6IyO12YxgMEXk8HpMoRWaSzJRskmSmROv0x5PJJELxfv36LV++vHfv3qArYmL2fffdN3fuXI/H8/P3asMSMMZ0XY9Go5QeCx2LxTAHC2V9xHxo0YBovaZp2KtBzJ4yxs6cOtCRROnRh5qmBYNBymgTgTOORqOCICS1pECiSJJgysRkybSOf8+HOjDGLrroom7duqVSqQMHDpimCX4D2vVcLpetf/BbALQjmAK2fbjL+3YxfApVB55/4ClD3pd4uibocDgMw4hGo36/HxEuP7ggCJCk4tbvVhxkEpnk1hxKSnHoipXzB9ENhQZjDPz0eDxITvL3Qemdig1rEQ6HVVVFFRi1EFmWkRaprKz0+/0of0Wj0UAggHbYaDSalZWFGjGWyNrlZSRJwlrv8/k+/fTTsrKy48ePx+PxQCDQtm3bLl26SJKE7SBLmYIgkkmKQTKZEmMWzx8kor17937xxRc7duyorKxERRihyYUXXhgIBDp06GBt8dsGkJlSCIVCGzZscLlc8Xi8TZs2brcb1ubxeBAl4BLAL6ZSKSQFM+eWnzpw2Hg87vF4nnvuuUgkcumllyYSicLCQk3TVq9ePXXq1Jtuuglhst/tISIiJglRgZJMjFvG/wMD57vvvmvRooXP58ukdyP2JqJrr72WMVZVVVWL49s4OTRNA/2OMfbuu+/6/f4ePXp06dIlLy9vzJgxoVAIxLtYLKZpWiqVOnToEJ6MwR6oy5/k+Cfi/3FMnz79nnvuYYwdO3aMP1hdXf3ll1/ed999O3fuZIwxk7GUwZL61aPHqALt31dmWfyBsVsfffTRDz/8EA6HDcNQVRUj4MvLy+n/a+/Lw6Mqs/TPXerWviQhBIgkEAxhEVnCGgQZoBEkDU5omh4TFhGZtM3T9OCDY9sKdjvTyKi0go6NwLTQKAiRFhA1Am6IytriQgLpBNkCkqRSSe1V99b3++O1vl8NIG3i5Wf/fO778PAklVv5UnVPne8757znPUROpxNeGlx8vdY1AIiiyFWNkWpet27dhx9++Pbbb7/yyiuvv/46NiiUxVavXr1q1Sq/388TcshLt2NdDNo4f/58bW1tbm7uxo0bO3bsSEnyPcQ6unbt+re//U1VVRKIJJHJUkS0xkRzRNJv/iWWrKqqEkVRUZR58+aNGjUKVghxOExhxRHV4P9dJ3B/pmlat27dcBDv3r17r169OPcJoni1tbV8y06dOd1WOByOQCBw4MCBsrKyQYMGVVRUrFy5curUqTk5OVDkEARh1qxZq1atKioqwtGfEWligiQWkzTd7AAnAJRiFi5c+Nhjj1GSaYiAH4NyoBVizF/VHXhLMSs6kUg0NjaOHj3aarXu3bt38ODB/fv3xw578eLFjIwMr9crCILX641EImlpaTwp0b7SvMPh+Nvf/ta3b19RFKdPn/7uu+9WVFT0799//PjxnA4oiqLP53M5XYloTFRkkxQhIUbWgG77L5Lso0aNIqI+ffoEg8FwOIxEFGMM3cuUzHwyIwuoN6LRKB9FLghCTk7Ogw8+uHjx4h07dmRnZ0+fPp0xtnfv3l/84hfTp0+vqKh444035s6dO2HChD/96U/0HZIS8XicMebxeND9rqrqP/3TP82cObO+vv6pp57y+Xw4Ffzf8XGyQozC/iAlSJF15V/Jsjx9+vRHH3109uzZTqezsLAwJyeHkhlIv9+PFAyS0jqua4BS8q9EBNrBuHHjUH7NysoaNmzYs88+O3bs2KysLLfb/cILL9TW1v7nf/6n3+/Py8uj7zAXA/7S5XJ99NFH06ZNQ6GlQ4cOU6ZMqa6uXrVq1axZs7p27RqPxzMyMkhlxAQi0Sw4BVWway49519C8KpTp05EVFJSkpubi4o40KVLl82bN3NFQAO6IxwOQ+0Y4d2lS5eIqLW1de3atTfffHN6erqiKIWFhZ07d05PT29tbe3evXv//v0VRQkEAlarFbzldqzr9/tLSkpOnDiBAx/0MBB5/OxnP/vrX/+6cOHCIUOGOBwOkgViRALZLTaRCZEm/fZfWZYdDsfatWvvueceVHjRAS/LMs6FqM4xxtr3Ig1cG5C6s1qtsiwj81dSUjJ48OBx48Z9/PHHjz32mCzLfAqf2+3u3bs3vkXKWtO0SCTSPtfgdDoVRbn55puXL1/OGFMUBaJ70Wg0Pz8/GAw6HI6xY8cGAoFIOEymBElqnAICJSyyrvpXmqb9+c9/liQJ9DL0QvOPI86C8IUGBVV3pArrjBs3bvv27agF2+32wsJCi8WCOCASiYiiWFpa6vV6MSNSURQEwtw624rz589nZ2dPmjRJluUHHnjglltuGTt2rNlsrqmp2blzZ2Zm5r/9279pmma32wWBqVpMliRNYIJMisWmm/1xmqumadOmTVu2bFl2dnZqqQMlOCKCdKZe6xoA8JHGyc9sNo8cORKpBpPJhBSdJElcKIgxBhV4FEthiO1zfqqqZmdnQ/fo9ttv7927d3V19R//+Eer1aooyvjx4wcNGsSX9rUELG6nRqSaHHEm+YJx3ewPVLPbbrvtgw8+KC4uzs3NxZ5rs9mCwaDVanW73ZFIJPk5MJo/dAbyL1xYEWUxZL6QonM4HIqi+P1+h8OB9x93B2d0Lq/W1tSsLMuctRAKhbp165aTkzNp0qTULY5rcbjdThC8ovEYiYLFZtWT/yfL8j333JOZmfnXv/5VUZTW1lauAMKlW3mUruO6BuiKkQegunGdK4fDgVvgdDphZ5SsAsPg2s0/gMQA8j42my0ej2MfT52IxNO9sWjYTKqJYhYhKjBVi/n1nD8oiuKBAwcefPDB8vLy2tra0tJSTruNRCKhUGjYsGG5ubk4I+u1rgHgyi0lVZkU//PMv47vPzwfXx2RBxFBphLkGoymSaY+NJESIksIjASm6/xBInr11Vf/+7//W1GUXbt27dmzBwxHlKJNJtPWrVt79epF15zPbkBHpA6t5A3qYArqtQRiZ1mWo9FoS0tLx44dIZAfj8fdbjdXh5FlGdsxI4kRJcjEiBhJeu6/Z8+eTU9PJ6JYLIZTBWMMPFiz2ZxIJFpbWyGjbhjf/zPwijC+hWKujvGfIAio+JnN5o4dO2qa1tjYaLPZnE5nOBwGv8FqtUIYiTGBSCSSiX39T899sGvXrsOHD9+4caPNZlNVFSdQn8937NgxdGHm5+fjzGHoX10/sBTWOxEhCsYbDs+n+4c/EAgguRaPx202W4cOHRCRoJrCo5OvKQ6MGAlEEpGUEPTL/4HYMnbsWKzq9XrT09Oxz+Iv0DQtEAjgcGok/643Us/+XHj5On3soYtPRKijCIJw9OjRYDDYs2fPzMxM3hKAuisTiBJETCQikek3/wM5TBhfIpFIT0/Hq43FYoi80B2Hiw0VrOsHfuAGQLgnIh4EkK7vfzAYNJvNiDOsVuvLL79cXV3dr18/WZYrKys1TRsyZAhSgIFAQDGbE0RMIBISRCQmdOUfANh2wbbFZE48DoEOzsbRfV0DqeCM5U8//TQvLy87O5tSNmUdz392ux13tqGhoaKiwmQy3X333VlZWdj333vvvTfffLOpqelHP/qR2+0OBMN2u1UjEhiJjImk6WkHmEmHbBCCbbAqEokEz0Z+3Ydi1D+uA1BYR84LCYdHH3109OjREB8LhULYiBlj8IVcBQ9qzO1blE8TWrFiRU1Nzbx587KzsyGDaTabb7/99jlz5uzZs+fcuXORSMRmtQqM4uG4Fg0LLGaWdO0/521UyEmi7MEYQ/8RJBBAjtBxUQMc0PUGAwpU36NHj06aNOno0aOYBUJEmFGKFATngiiKAu3KdtwauJWDBw+63e6SkpKnnnrq9OnT2ABxQZcuXUpKSv7yl79YLBaiRDQWt1pNdodVJIqG9eO/4JW0trZqmgb5D5Q9wIvENchCtZvqbeAaiEajbrdbFEV0eguCsHPnzlOnTlVUVBw8eHDv3r2apqFHk5IFCdwIfnfaF53AidbW1o4bN+6WW24ZPnz4yy+/XFlZCZtuaGiIxWKDBw+WZbm+vl4URckkkkCSJEhE6S6nbvaHCOjSpUtwgZgFglk0/FXxzKehf6o7eIUTN6KlpaWiouKnP/2pzWZbsGDB1q1bI5GI0+k8fPjwmTNn9u7d++WXX4KyhadzCYS2QpIkn89XX19fUFAQj8cLCwvLy8tPnz79/PPPh8PhzMxMTLv0+Xw2my2mxkmUQmrsq6ZGjcikr/6L3+/Pz8+XJGn+/PlEZLfb4eovmwxrFD+uB1B7TU27vPfee1988cWrr77a1NRUUVFht9uDweCsWbN+/OMf33nnnXV1dVDBg0fA1K52rIsWd4/H88knn0BNwe12z5kzJzc3d+XKlVVVVUSENijGmCjLYWKqLFtcDpvdEovox3/B/N8hQ4YcPny4oKAAO+9lo45gfNcjBWoAZz5BECDIsn///gsXLsTj8bVr1xJRPB7/4x//WF5e/s4773CKAHo+MBAVFJh25GVUVVUUpXPnzhcuXBBFEb9BUZTbbrvtpptuWrdu3ZAhQwoKCmw2m6ZpAgkSEZEgikogGImrCT3nzyQSicrKSiLq379/c3MzPo54nB97+SPtW8LAN4G/t4yxRCJRVFQ0Y8YMTdPQ7T9r1qw+ffowxlRVbW5uTn1iNBq9duc5/53sav3niUTC5/OFQqHFixefPXuWMebz+RhjuPuxWOztt9+ePXv2gQMHGGOt/mCDLxCMJebeNV8hseX0GZ31x5ubm5955pkFCxYUFhb+/Oc/79atm9lsDgQC6AspKCi44YYbiAgVax2XNsAbC1VV9Xq9Fy9efP7550VRTEtLCwQC//7v/z516tSTJ0/26NEDKoAokFosFj4NmjfrtGldQRCQ37733nuXL19eVlY2bNgwLoqqqmp1dfX48eOHDh0aDoedDpuDSFUpHosRUVjTr/8Xb0FZWRniqbq6uocffhhlX8BisRw+fNjtdjudTsP+dAe4VciqKIpy8OBB3vjocDjy8vLef//9VE4ehBD409tdEeXFra5du5aWlu7fv3/fvn3du3c3mUx1dXWRSKRfv35FRUVEZLVaVVWVZVGWGIlxTUyoon71D1RgEMNDdp0bHzJ/+MBBBNhogdMdnOPJBSdSm/wtFkt6ejoXaGP6hYCSJIH6abVahw8fXlBQUF1djQEwQ4YM6d69O4j+2OItFoVII0EjQWMCaWJCT/2/SCTy5z//Ga9cFEXQvk+dOhUIBHw+H3ryKKmUoNe6BjhYkvnC9xZ+zr6s7ZXpV3/CrHX+Ndoukd9GDRYuKbm6SpQgUklQSSAiXfdfk8lUVlaGaiAlC76UZNvzsBcUWWP/1ReJRIJr6+IsyPuPEJrw3ZlSnOV3B0vyqyGxgtuK/yE0DSTb80iWTUQiJczEiEjSef4HEVkslkOHDl26dAmKYOPHj8/KyuKzH7BN67WoAY4rWc38EdTiOBFa33Xxy1NT2Rh1yRiz2Wz4G/gACEmUKUGUEEnzkOYizamb/VksFjD8Nm/evHjxYr/fD/H7gwcPhsPhlStXms3mBx98kM9l1WtdA1cC95tvOPg69QIdz3+UYujgMZjNZt53G4lEcNzHBcLX5D8ikolEIv3sALSLrVu3lpeXo8kP0UZ+fr7L5Tpy5MgTTzxx4sQJIkJYrte6Bi4DP9vxvCD/mj/e7lbzq4ITFxRFsdlsgiCEw2Hk/ywWC1o80ZhMAhEY+GKQhBCJQT3nXzLGVq1aZTKZSkpKtm7detddd/n9fo/Hk56e3q9fP1VVv/zyS+SZjMPf9YMgCJC645svsnpciCI1QPnuQIsnxD1456XZbEY1hTsaTsMmkUhkJIRJjJEQ1fPvOHfu3KeffkpEr7zyiqZpb7/9Nn4EzpUoivigYF82KPjXCS0tLQ6Hg7Od+VYbi8UQqPIp4LgLaE3Hc9txXyAfzZ+ImvJHH30kimLnzp379u2LEz/+FwTGSE1QTDKpipki0ZCe848aGxuRcwkEAhaLBfovRMQYCwaDFoslGo1CZMkIQXQHnI2iKKhGxONxGFwoFLLb7T6fjzc/QJ0Ip0NYDyXT1+1wCuhsRKOZ3W7fvHkzxMcjkUhdXd3u3buHDh1aVFSUFGZgmqaRwIKBcCRMsqToZn+qqhYWFkLzZv369dOnT0fisbW19cCBAxs3biQip9OJ1kx9z78GKBkE4I3Fmc9ut1+6dKmqqmr48OEul0sQhFAohI4Ii8WSOqKSiDCRph3zZyDro2max+N57LHH8vPzBw4c2LlzZ+zIBw4ceOutt5xO5w033JCWlhYMfp36tZjTJNHkdnXSk3/AGPvDH/6QynAE/4+I0BZ1+vRpfihu9xIGrgrcNRzykP5gjC1fvlwUxQULFmA6AS7Dm3/hwoVz585d9kuucV+uoX+P2sY999yzaNEi/iBsKRqN+ny+uXPn1tfX88c1TZszZ64kms+fu6Rb/IHk5z333PPjH/8YtHuwelCFC4fDO3fuzMnJYYy1tLToG38ZoGSSH8d8TkF96aWX7rjjjs8++wzXQBCDMUZEmzZtWr16NadmXjYXrk2Ix+OnTp268cYbx48f/8QTT1RVVeEwwCcuLVq0qLKy0ufzESWIItFosyjEEoloKOzXOQ8ny/KGDRseeeQRjB/B/LGxY8du27Zt1KhRGA7rdruN85/uwNGNx5vhcPjjjz92Op1PPPFES0vLa6+9RkTYeSVJisfjFy9erK2thb0iNGzH8EHAYrFUVlZOnjx50qRJgwcPrqys3L9/v9lsxtbncrkKCgrOnDnj8XgaGr+SJDKbTbIsi4JsUdL0jD+IyOfzZWVl3X///YsXLz5+/DiqwJj8TkSxWAzRFtTB9FraAAfOc8g2bN68edCgQd27dx8xYsQLL7wwdepUIvL7/dXV1TabDZnhw4cPBwKBXr16QTW5HUA0DfnARCIxcuTI4cOHP/7441VVVdOnT+ezNjD/KLNDJlFcFKRwiBLMZpH1sz8i0jQtLy/vF7/4xYQJE8aPH9+3b19KfiI1TQuFQk6nk4/i1HFdA5QMYDm9xWw2b9myZf78+Rs3bvR4POvWrcPj77zzDnanqqqqeDze2Njo9Xrnzp1bXl4Ov9jWEBjGB61HBECapj388MN79+5ds2bNxIkTCwoKkA5saWlxuRyqqppMFoFEkUwOh67954iwnn322ccff3zy5MnTpk0b/NCGAAAZDklEQVQrLi7OzMzkIq+G27t+gP3hwCMIwpYtW2KxWE1NzcmTJ5FwXb169YIFC4qLi8eMGZOWlvbII48cP358w4YN4XCYD19oBy8Bld8BAwZ89tlnPXv2xMR7VVXHjRvXrVu3LVu2IPUjCEJWVpYgCCTIRIJoSghS6KumRj3Pf+FwGCYoCMKuXbv+9V//tWPHjgsXLty9ezfXIqZkm6qO6xqgpLAVKh+xWOyZZ55ZvHjx9u3bt27d+uqrr/785z9fu3YtpHmhPxGPx7t06WKz2TIyMvjZsR3S8KIoqqrarVu3Y8eO4bbGYjG44U6dOv36179ubm5+9NFHR44caTabI5GYLClElEioCRaWlahu9tfQ0GC322tqatasWTNz5sy0tDTQu5999tni4uJRo0atWrUKEwE459uAjoACFd7YixcvXrp0aeLEiZIkgQpwxx13CIJQU1PDSwAul+uGG25obGyEKDImFbRj/gfanTp16vTLX/7y0Ucf3bNnj6IoyG/Y7fbTp0+fPXt2xowZgwcPZkkOGJGIgDuRSAiMsZtvvvn48eMDBw78+OOPv0tymKs94ySxffv2urq6pUuXcnnrjz76aODAge0Ycmzg7yIWi4F+hxPYiRMncP5GhkVRlM8//zwnJyd1zlEqCxMmCPd51d8Pq/D5fN27d8/Lyzty5MhlPwqHw83NzWvWrMnJycGhq6Wlxe/39+rVa8yYMeFw2Ol0MsZEkQRBmDlz5saNL505o2v/EYBNFr0giUSipKRk7dq1r7zyyrlz51AFhxabMQJOX3DhW4ic9O3bNxKJRCIRj8eDt/qmm26CacIFEhFmsjkcDlmW2zf8F0CjLSLcpUuXHjp06MiRI9nZ2R6PZ+rUqWlpaVzfnL42eolI/FoMQ6/XzzXOg8Ggz+f78MMP9+7du3r1aiJC5VcUxYyMDFmWjSjkOoEriWN7EUXR4/HAq3H9F74jwwXY7fZUsn77nAInlCCJM2TIkCFDhnDGMX4kCMKFCxegzotnoaaisw710qVL165de+HCBbPZDC0clED69es3depUj8eDUZ96LWqAg6dONE1DTIBCMKodYLjwkw+koSiZtf4u81eR0BUEAW6lubk5LS0tGo3C+HAkQz26c+fOlz1XT/vD5+x3v/sd6j8ou+Xl5ZWXlxcVFY0YMYKSQq2UIsRuQC+YTCZMkuEJPHDuERdzWQLG2GX9XyzJlOYs+Tati7kvVqvVYrEwxjB6jcuhOhyOVLpTqvotVNHabH+cPQ8Hi29TX5Wmafn5+eXl5QMHDhw9ejR/Igah8Ovbuq6BvwvsNniH4Q7xPyawcb9os9ngCJOcvK97zhF6Uop3gOH+3f0KfUZ4VigUQtmNMQanm+po4GW5lcfjbdd/4b4dDpa/Kuhg/v73vx8zZkyfPn3ANkMqCK+BWz3pOn/CAIcoig0NDZmZmfwR6PDhTsEOwuEw77/G5EHYHxiBeBz3CMQq3Fww/L5p3dbWVqfTmTrfi5J1L3SlJRKJUCjEWa6paLMdMMZgUqqqhkKhPXv2PP/888XFxffee6/f7+/YsWNjYyMmfzgcDky7g8lHIpHS0lJMBNGXAm6Akue/zMxMXgiBxcDPoUuNkvOPfD6fy+WCm8Q1PPPHK8hutxuutLW1FVLy37Q0cjqIbCKRCEJpHgyBhnLZRszRnv0X+SRRFF0u109/+lNN095///3S0tLz58+Xl5enqk3ijzabzWDel5aWQhbE6H/THXy8Knye1WoNBoPoRuOKCNidMZGKJadzwS/yEASTZLgjhJQ8Qsmrros+I0VR4C8tFsvJkyebmprA7L/11lsFQeB7/ZWpjzbbH08U8akKlCRB8D4PtDy1tLQgHfp171MSOOca8Ye+QATq8XjQ6kApJA9sgjxETSQSOKwjb0dEXLUbXtNsNsOYUg3xm9aFXUYiEbfbXVdX98Ybb0BlXlVVp9N57Nixm266qaioCKHPlXm3NtsfXgxE44jo8OHDmzZt+slPfmI2m7t3775jx47W1tZAIGC328PhcFZW1r59+xAL8ymM+KQa9qcvAoGAx+PB7gm9UU3T/ud//qempsbr9RYWFo4dOxbKVCtWrMjKyiorK0Ne9tVXX73hhhtGjhx59OjRHTt2NDQ0SJI0bty4qVOnXtVjXQYe/DY0NLz++uu5ubkYBExEkUjk7Nmzzz33nM1mGzFiRCgUwiy4//V81nb+vaqqkPZgjIVCIcYY9nhO++YA7ftK/VMsZEBf8AnzjY2N4XAYha/77rtv1apVEydO9Hg8n376KWMMAcqmTZsYY+FweNKkSUuXLo1EIr/5zW8kSVqwYMG0adNuueWWtLQ09Ev4/X52Tf0/XLBo0aLy8vJgMIjHUWhhjDU0NMyePbuhoSEYDCIfmUgkZs6cKYri6dOn23wOg+symUzotONpTETvNTU12GrxU4gioCOVMUZJmXLD+V0PYOMjooyMjFGjRuXk5OzevfuJJ56466673njjjbfffrtz585erzc/P3/q1KnPPPMMciXQi4dEwahRo1auXFlRUbFr166ysrJ+/fqdOnXqqnErhyAIDocDBbf58+evWLGirq6Okrws/DEPP/zw6tWrIcdx2dPbbH/8HIqongNNAD179rTZbJs2bcI5g4j4tEHEJegVbeuiBr4NIpGIzWZjjNXV1R05cmT16tV45+12e1NT08CBA9PT00OhUGtr63/8x3989dVXFRUV4XAY/gJ7FO8OcblcK1asSEtL27FjBy7gUh6XLYpHDh8+PGHChIEDB06aNOmll17avXs3kiSBQEAQhI4dO9psNq/XC+8TiUSQMrTb7bolQXBuJaJYLJaRkcHThDh44guELEbn+fWApmnYiwRBOHnypN1u79ChgyRJX3755bZt26LRqMPhuPfee6ECmJmZ+dBDD/3617+eNWtWeno6hn9wvW70yMqynJeXd/r06WtvVoIgYOgG7n5hYWFhYeFTTz117Nixu+++G+UQp9PZ0tLCG6OsVitCAqdTv/kLRJSXl7d06VKHw7F582bQwniaG58h7n7bJ/Vv4Brg1YtgMIgPOY6DFotl165d+/bte+ihh6qqqjCc9+zZs7Nnz87MzHz66adBV1YUxeVy+Xw+SkqZIzvjdrsZY9fgC6uq6nK5kNYlIkS+v/rVr0aOHLlhw4ZDhw599dVXRJSRkXHmzBkiwgBekPQURb/+cyKqra0tKiq6cOHC888/7/V6J0yY4PF4MIsVqc4ZM2bgSqP5/DoBGYbBgwc3NzevX79+8eLFnTp12rFjhyRJvXv39nq9kAjCNr106dJ58+b17du3sLBQ07RwONyhQwciQjLv1KlTe/bsuf/++7F3fdOKSFZPmDDh9ddfnzdvHhq9W1paRowY0bFjx7/85S+33nrrxYsXFUXp168fEaFAkpaWpmna+fPn9ew//+STT4jIarXCzZpMJn5GRHd+JBL5NlLrBtoBnpEIBAKMMTDffv/739fW1l64cGHNmjVWq/WTTz5hjGVkZOzZswd540mTJhHRunXrGGMPPPBAdnb2rl27Pvjgg2XLlimKwvvJEeEyxrxe75X956FQqKmp6be//W1NTU3q4/hLXnrppSlTplRXV+NKCIMsWLBAkqSzZ8/q5v8YY1arFZlubK/4u+12O28sgF0iHW20AOsLnG2QWI7FYrNmzXI4HE8++eS2bdtkWXY4HIsWLerZs2cwGJw8eXJeXh5jjIjuu++++vr6jIwMTdP69++/a9euJUuWKIqSlZW1bt06MIhbWlpwjLsqkP+zWq0zZszYsmXL0KFDhw0bBrqD1WptaGhobGycO3duQUEBqsOIAfx+/9dhDdOJf59IJFD5xexDq9Xq9XrdbveePXtQwE4kEs8999x3eIcNXAuoaoZCoWAwmJmZyW/iiRMnMPwCgxgcDgdnhuIpYG0h+PB6vZIkuVwuOBGbzcb5Svhtzc3NeXl5l/HvufRRfX39iy++qCjKoEGDbDbbZ599dvr06WHDhk2cOBGlFC69NXv27A0bNrS0tOh5/svMzLzzzjvxNV6qqqqTJ0/GI3D4nCZpHAH1BSe/2Gw2EFJARCgoKODXgP/mdDoRHaJTDhkxbEcOhwPdQ6jLwVy4svJVwRjjXSOdOnVatGjRiRMnjhw5EgqFbrzxxjlz5jDGeB2Pj4SA82ttbW3nyC9KFqc57Q8RRnV19dGjRzt16uT3+zMzM2+99dZUb4qTLISqjRS07uDMK05IufIabNNgXjHGoBrKu9bhGniCDObC+XxXnU6jqiooAZy+2rt37169esEuGWNg6OF/Sspjcl3o9tgfPi5w45hqp2na5s2bly9fXldXB9ojEXXp0sVkMi1btuwnP/kJ/4TxP7cd6xr4BwSMlSUlplPNlKHDI4Vox65IX7fZ/uCxiQgKz5D3f+CBB9avXx8KhShFAqehoSEej8+fP7+2tvahhx4iIl7MNlowf0jAyYpPE8bmhlIvNz4knHXg/8G0Uxs4KisrEVjA8zHGsMkyxux2eyAQWLJkidvtXrBgAWwulSVr4PuCjufvy+Z4gSEq/u8pp990gmxP/ZcluwRAdXzkkUfwo3Hjxu3fv58xFg6HfT7fgQMHfvazn7lcLsbYL3/5y4sXL+IPNcQ3fkjgWyrXN0ckwEWnwYHi11z29DbbHwi04M2qqlpVVXX8+HFJkiZOnPjKK68UFRXV19cLguByuW6++ea1a9dOmzYNJ4MPPvgAgTq6ML/LazbwjwOeXKOUiAeOiZLMfk7Au9Lpttn+UiVqYrFYdXW1x+PRNG3u3LkIqrt06YJzAMjPzz77LP64999/XxAEPN1o/vjBALozaPgQBCEQCJw5c+bUqVMnT57E6D9KaYy/MiRvsx1wvTceTPh8PkVRevTowXNOqZ30iqKMGjUKgvyCIOApvDvGwA8A4XAYZIKWlpZDhw5VVVWFQiGXyxUIBDIzM4uKinr27AlJIMaYYlIEJghMFBgJrF36fxAbtNvtGOMLZztw4ECe8knlikmSVFhYuG/fPuz9+Knh/3RHyow/tbGx8cknn3z88ceRk0N7x7Jly2bOnJmdnS0IwpNPPrl///7OnTvb7fa77rqrd+/eKA08/fTThw4dkiSpT58+06dPRxqvtbWVz264KsCgiUaj27Zta2lpmTx5cn5+PrLWu3fvXr9+/dSpU4cOHWoymYgR/plIFhiJCdbm/Rf7Om/Xg9rNNa6Px+OpbCu8HUbxQ3ckEol4PB6NRrHJbNq06emnn8aWZzKZtm7dumzZMnz4e/XqtXnzZihSHDp0qKysDJyA0aNHv/jii7169crNzd23b19paWlTUxP0ultbW79pXYg+mkym//qv/6qsrPzVr36Vn58fi8UsFkswGPzRj35UWlq6bds26N/HVY0liIhki0UUTBpre/4Z8a+QHKbIW+e/yaXJspxqsghBuEaOAb3A339orxQWFm7fvn3hwoWY+fHmm29OnDixa9eu9913nyiK7777Lher+Pzzz00m05QpUxoaGmpqanBP4/H4iRMnYNBmsxlJjKuui9t67Ngxk8k0Y8aM3/3ud0uWLJEkqbW11eVyhcPhPn36/PM///POnTvnzp0rm0xxophGQUYxWUxIcpv9H2ILmBFLtlFyDf8rAQkEs9kcCoVQdjT0J68r8GlfsmTJiRMnqqqqkGp9880377zzzmg0un79+vvvvx+N4kQkSVL//v19Pt/x48eXLFnC23Q0Tbvppps6depkNpubm5uvscWh4+SLL764/fbbJ06cWFRU9Jvf/ObgwYMulwsZumAwOHDgQL/fHwqFYpqqEjGJRcJNshrOFNU2+z+MmUPUgxqixWJB1/tVr2fJoShwnGCq4eltXdrANYD9V5ZlDJkaNGiQyWTavn17fn7+li1bJEm64447iCgej+fk5AjJcehIU7S0tASDwZycHHybOiCOiEC+uob/Q7ud0+m0Wq1jxozp16/fiy++eObMmdtuu83j8fD5SpFIxOSQGYUUilrZxc6M7Frb+QdodUskEsFg0GazjR8//q233srJyfF6vVe9HpSvaDSalZWFMwHa8du6roFrA+otfA4qEf3Lv/zLzp07H3jggR07dtx5550g/wqCUF9fz8tXvOEoMzMzGAxy4wNvACmVa8/r0zStQ4cOfr+/sbGxe/fusixnZGTce++927dvX7ly5Zw5c3JycojIbDabzWZFMocpxEgSmYmIiLVd/4oXmMEhc7vdQ4YMsVgsubm5V72el3pRHcaxw5Dg0B088wUD0jTt7rvvfvnll1977bVjx449+OCDFovFYrH06NHjnXfeKSsrw33B7cjNzY1Go3/4wx+Ki4thfEQkyzJ0BDDY45tCxnA47HA4evTo0dDQQEnJLIvFMmPGjA8//PDFF1/Mz8/H/EGr1apqMpNccaKolNtAJhIy23P+wzZKRPiUQODom65H/xslif84LhjQHShHcSUhTdNuvPHGgoKCadOm5ebmDhgwoLW1NRaLrV69+k9/+lN5efnnn3/++eefP/PMM7fccouqqmvWrHn33XcfeeSRTz/99NixYytWrJgyZQrvnb0G0B08dOjQ995779KlS/BNMIyioqL58+ebzeaFCxcWFhYqiiKKJBIxIpM1PUr2i5rYnjwcd10oxNE19UHof5e6ufJwO9Y1cA3wghO6axVFaW5ufuihh5qamubNm5dIJEAKHDx48I4dO5566qm5c+e2trZ27ty5rKxMEITRo0dv2bLlueeeg4JKjx49SktL4Ti4CiDPteH2wePi//T09ClTprzwwgvjx4/n3SFElJGR0dDQMGHChAEDBsAoTSaZESWYjwmBiKzf/F8D3y+wBaH5AY+kpaUNGDDg4MGD+JYTooqLi4uLi8+dOwf6JnigmqaVlJSUlJScOXMGOT+ec0a9AArSNpsNCRD+O7HjOxyOkSNHBgKBvXv3HjlypHfv3h06dDh27Jjf73e5XEOHDsUJ0iKKKmkRNRYN+0hUNR3nnxv4fsH7/HnPtclk4tVOvlMh7WKxWCAFjiQGCrhExBhLPccjOsHvxD4bjUa5dhT/HwUwRVHGjBkzYsSI6urqL7744ujRo126dBk1ahQaAEBSttotoiTYZNHtMJvNgttuNezvhwNslCiso96KeS/IgMD/ce+IdBgCQX5A4urwuJiHvfy4j9oBhhhAzAo0AFi/oihms7mwsHDAgAE8xQs1haSIVoKpYUES1EBYC7FYyPB/PyDwjCzvscBUVVSn4K54c25yFBFRUpTXZrNBHRT1NEoqNfKsLSJoZFK4wilaLeH/sAS6fPjcG0VRIpEI5NHcTqeQMJPKOpgcCpGo6Tp/0MD3CHgyqBFw7Skub0rJsxpvvoFYKG+WxTU8iMG3qWEit8jm5mZs4kTk9XpdLhcGd0FrmZKau5D7wUJwurIsE4kUjVNCC8eYRhSO6zd/wcD3C+7M4Paw+YqiyIsZqbaIB8GVp6SmMj8j8ggjdTQN3GosFrPb7RhpRETp6elEFIlEcJTkvE/4P57rQIwsSVIoHJWd5nBcjWV4rJmdmWIz7O8HAq7tzGXsAeSicS4EyUqSJO7wUj0cDAiuC5aXWibAT6HmU1lZWVpaKgiC1Wptbm7G3u33+9EAhKYfnA6bmprS09OheJ6WlhaOq35Ntblcb7+1O+EPCFK78n8G/jHxTVlV7vm+SUmIx7+UrN1d9gshk4BCSGlp6YYNG1577TUwS5D0xlaLdCCedfWShEBEIgkkSPKQoUPsZpOe8y8N/LABd+jz+err6zdu3LhixQqr1free++53W40HEFQIbWn/Uogjw1/3KVLF8P/Gfi2QKba4/F4PJ7s7Ox4PJ6VlZWbmwuNQE56xxffVJLlYRAGPRj2Z+BbAXx6BDRI+yUSiWg0iuIHT2Jf2QB0GXiTABGFw2HD/gx8K2BYg9lsRuyC8AKlkcsmvFGKGOuVQOcQLrBYLAYPwMC3BZ8jFA6Hw+EwmKDRaJS3AKNAQkQ4Dl4VXKQaNC3D/xn4VohGoyAfULKIEovFIpEIT9YA+JqLZFwJHCIjkQjM1/B/Br4V+HADZPtwyAO5PZWmBf+HyspVQUmhN5PJFIlEDP9noA3g2UEe5PIpB1zej/4ev5PnI43zn4HvGYb9Gfg+Ydifge8Thv0Z+D5h2J+B7xOG/Rn4PmHYn4HvEyIlNaNRXaYU+qsBA6mAYaAFmCWniV91pum3n2/69YQQxtilS5cwsRPCH3r/8Qb+/waXwEIjCIzE7XZzU0vljH57/qgYj8cVRUlPT8eQakEQgsGgrn+5gR8CeFsnvkX7UnNzM/h8lFIRobboW4iKoni9Xq/Xq6pqKBQSBAFCDQYMXAbsjUSkaZrL5UpPT79yqgf25W/v/2RKlpYvXry4fPlyvh0bW7CBVPAGOey8H3/8sdfrTUtLQ/23/T0bra2to0aNwtfc5gzjM3AlRFEEe4/PLrjxxhu9Xi9LmVkOVdxvD9npdBYXF58/fz4QCKiqajabNU3DNNjv9cUa+McCDMtsNoPwJ0mS2WwePHgwn45JKXrg3x7/B0DOzNYWzKFcAAAAAElFTkSuQmCC;" parent="1" vertex="1">
          <mxGeometry x="310.4" y="-73" width="184.6" height="260" as="geometry" />
        </mxCell>
        <mxCell id="Lx8svp4eKI0U0BjnMGVL-3" value="" style="endArrow=none;html=1;rounded=0;entryX=1;entryY=1;entryDx=0;entryDy=0;entryPerimeter=0;strokeColor=#009900;" parent="1" target="Lx8svp4eKI0U0BjnMGVL-5" edge="1">
          <mxGeometry width="50" height="50" relative="1" as="geometry">
            <mxPoint x="495" y="125.75" as="sourcePoint" />
            <mxPoint x="761" y="150" as="targetPoint" />
            <Array as="points">
              <mxPoint x="621" y="126" />
              <mxPoint x="621" y="150" />
              <mxPoint x="755" y="150" />
            </Array>
          </mxGeometry>
        </mxCell>
        <mxCell id="Lx8svp4eKI0U0BjnMGVL-8" value="" style="group" parent="1" vertex="1" connectable="0">
          <mxGeometry x="685" y="60" width="70" height="70" as="geometry" />
        </mxCell>
        <mxCell id="iwQVvJGbmcrfN9H0NsgA-1" value="M" style="verticalLabelPosition=middle;shadow=0;dashed=0;align=center;html=1;verticalAlign=middle;strokeWidth=1;shape=ellipse;aspect=fixed;fontSize=35;" parent="Lx8svp4eKI0U0BjnMGVL-8" vertex="1">
          <mxGeometry x="19" width="51" height="51" as="geometry" />
        </mxCell>
        <mxCell id="Lx8svp4eKI0U0BjnMGVL-5" value="" style="pointerEvents=1;verticalLabelPosition=bottom;shadow=0;dashed=0;align=center;html=1;verticalAlign=top;shape=mxgraph.electrical.inductors.inductor_3;" parent="Lx8svp4eKI0U0BjnMGVL-8" vertex="1">
          <mxGeometry x="20" y="62" width="50" height="8" as="geometry" />
        </mxCell>
        <mxCell id="Lx8svp4eKI0U0BjnMGVL-7" value="" style="pointerEvents=1;verticalLabelPosition=bottom;shadow=0;dashed=0;align=center;html=1;verticalAlign=top;shape=mxgraph.electrical.inductors.inductor_3;rotation=90;" parent="Lx8svp4eKI0U0BjnMGVL-8" vertex="1">
          <mxGeometry x="-21" y="21" width="50" height="8" as="geometry" />
        </mxCell>
        <mxCell id="Lx8svp4eKI0U0BjnMGVL-9" value="" style="shape=image;verticalLabelPosition=bottom;labelBackgroundColor=default;verticalAlign=top;aspect=fixed;imageAspect=0;image=data:image/png,iVBORw0KGgoAAAANSUhEUgAAAOEAAACyCAIAAAA7yz90AAA1qnpUWHRSYXcgcHJvZmlsZSB0eXBlIGV4aWYAAHjapZxpkuU2smb/cxW1BGImlgNiMOsd9PL7HEZIVaWS2evqzpQyIyPu5SUB929wOHDt//2/zvWPf/wjxLvHK5f21F7rza/cc4+DL57759f4/gx3/v78fu3fv/n3v33/euPvDyLfSvydfv751N/X//H9f17g56/BV+VfLvTM3x+8//6Dnn+v//zlQr8flLwjb2L9Xqj/XijFnx+E3wuMn8e6a3/avz7Cu3/+/n3/zzDw/+Uf7x/fLb8v/su/c2P0VuFzUow7hXTzZ0q/N5D8P19p8EXjT3/stwJfp9T5M6b+eycMyN+N05+/eN11vNX8ty/6t1n586u/zNb8HYLrr7OV4+9L0l8Guf75999+/wrl72flG/p/+eT8/H4V//37e8X1c0d/GX3/P2c953tmnmLkylDX34f64xG/r3jdy0f40c/FrdW78X/hEu373fn9ENWTUFj3vF9+z9BDZD5OyGGFEU7Y398zTG4xx33FxhcxTqbLbz6pxR4nMxlS9nc4sTGHKz3M4vymPaf4572E72P7Pa/v0x4+eQVeGgMXC7zlv/59/bdvOMdUCMGxnOMbK+4rRgeb23Dm/JOXMSPh/A5q+Qb4j99//eW8JmawOMqmSGdg359LvCX8EwnSN9GJFxb+/snB0NbvBRgiPrpwMyExA8xaSCXUcLcYWwgM5MMEDW6dBIovMxBKiYubjDmlytw80Y/mLS18L40l8u2L7wNmzERJlZx7zDImK+dC/LT8EEOjpJJLKbW08pReRk0111JrbVVQHC21fLXSamvtab2NJz35KU992vM8/Rk99gRoll5760/vfQw+c3DlwbsHLxjjjW9681uut77tfd7+jkn4zDzLrLPNZ/Y5iP60wI9VV1vP6mvssAmlnXfZdbf97L7HIdROuk4+5dTTznP6GX/O2u+0/sfv/2LWwu+sxW+mfGH7c9b4bmt/XCIIJ8U5Y8JgkcCMN6eAgI7O2f2EnKMz55zBNGRFidxkcc5WcMaYwbxDLCf8MXdX/JlRZ+7/a96ulv9t3uL/68xdTt1/OXP/OW9/N2tLDJ7fjP1koYN6J7KP14z48B9c9Z9/X3//g5rCzvc8bfMsbbVUdhqr9jfnc3PD+b374eL57avXNVa/GN24IB7AIa0z+gHcbsaArAvz3vF9eGssa+3aV+Oudugr770LQ/G8rZT3eWrp17PL2qnukfupabYdyjgMw2q1rBTniIwiD8kw1dOfWSqZ9LbQa0t7Qn7Vz40Tyq6tA1DpmbW+c6eZ+o4E6Epc9OZOxmklpjLXKTzQ3Lul9407PE9Y7a3t5MFLYNpWxzvq4dtnlsykpUHsDGKprlNB3tEiATvvNWta70r1VGaEWZr9lJEa0XbX67uJ3LwJnv3kfZBA+d295clNFWK9MtE7MqTz7QGkf9/3Tvst6Tw1bp6DAO/XmruHWsZL7BBc9X5yfuZJXIsxiesseGGfjcwJ+0GLbT4urPjOJwxGvFRu67zvtWqbeTFMpezV89zvXd5ZWtiFyM73hksZ/HnGaq3vuy5SIa7SZmBAiMox+hsPSftkbpe46UztbAP+JWsyGuYZyqzxf/n39T++kKEKTOtd9uHzE/LoaUXGJRccx8CsveO5ttHH3e0OxVeSJqQ5Dz+5RyckyDeiuq+Sx/2F1Rqnbh4lvC0T1x3urvAb4M+Fi7PJuMIug6Q/M6VNMDPlhVlgDkjYVk+YmyTYbfa3hlAXd7tTXE+aqIbLOyOJItle1s1luO9VBzl/8mTUOyhV3jRXg1hrfAA7NctsBsByIjrzNcbFTBHtbfGBazJf/VmL16JNT+qj7/TU9OwbPAs5EiGp8tX6JDjDcEAxHp1YgbIXmr0QYy8JOceX0+TxLikAeIHUbA8p2EyzTPCNSvby1OTJ08cimvt4yrpq7wkMr5OQBwQ3HxPAyBOeue/AA4Mi8V1t+4I3r7T9msEgj8u9SfVIZBHZCWxIY5LSM5ClkwcvzyYBDyDeJ4MMZhzIJIPmm+lBMT3IZhRZa4PcZETOk9vFLZJn6WFguOuYmYq2GNGXJCtrjLXJxnYDJuJwBYnTOc6ZoJzi6DewBpNd+wAFTNcZA7AIADhDGdIBmknOlV+um04BG1N9ByQwyWTQ+jyxlNtAGYls/AQ7Qw/rnBtwXKFCNtzSAtAaiCeGAETiP4/TB4+VhNt9Hsf2+yhiJHChFsivHgtzRMivw1g543fqBzG7ZuBqcAhRmr3F9z03gfWunVfMkx+tGHj7lYii54F2wdqNrANpy3i4cd7ZB69/3glcBvR0A44WIQCW5gM5tcM9vPixZy9UbXlGyEwUN4qk+jR0bl++gvkAj4kAb04ejSfPsAq6FpWQidDii3/+vv74IiKjc4hcAoCB3d6aPsKB7h7/TnzH+403mcxMEJ1P33vsp5Bb+VxhkxVjjFlId8ZzF+5slQMuK//nISI3CPXz70BqkRgJSIEFmIgX9gUC+wv3hzhzBPkjsVLfDjYCAWRkA/jLAz8X2KXeL1rzvYk3oiOrQMoZPEn9kqqStN+N88GzHXLo56HOSScya1DsSzCQWgvBSo4hfKq0MDEUdZbTW4Vax7PP1Y0VSDKXmA+yB5U6eg73zKO9La0h/9WzF5E6edT2l09UF/CwGzE6F1mcyfyb+AW7G7nJpzWysbVQFADyPkCL9wDVa34jlB5g8weouZ8ENZeLoU03dAwazLZQVKRwZ1ZQcIvQSqJqgbQHl8kTckxtdR6NlFVq7fHuPPZC1jwkFZgNboDJWxUIoTB3/QmYJDJB+EQG3QR1VjIlaHdFZGc/xBja6myy9UIpkHQkGPd3T8I373etXCtJeSN9EScOHux8yjMnXyJ1ngMaA96ZDERjAD03kc3ffCyTUNdC1AXA+EF6EQAdJQThn5buDQtwscDnM/PflGtL4GGyPfHXNSqJxV2m75vR7yHl2gpBVq2wb0QOICcgKTiU+QlE40JiDhCeYNgBpHnj9WE0kftCcOTHhNLxMrwB9o5P3vzVUEFTUdteUI9b48bQF22iHVBnwG5i+kM9pCzwk3hI1BUy4DRwt6LGQvPV8ARYDfit1+rDbh34DqQ5U5b6WwrjtspVMVOLxINyCD8ybhG1pTBQCHtRZx70NE9vxYIJ3dJUBg03tzCAc56olNmul7CL0AqCCAGHbgKAlZcjZgQi4YNeW1Bi3VnkRujcg5wusDggGgleTEh+8CIBLs/o2YMcHIrsyOdxc6hMpGSfeAJC6qA+sQRbK3GQNOe8ClXEEohKCJdrSAIETmgwJLN74yZqLXok0qFgLyrpG+ZkjInd3hI3vLmw+v2Ytlvjc18wIHqe+4fZeO4GfAO94A/ojYxBo2+UtujvkwAAybStQwwM0AVqiyed98VwoN5I0ZQFDdTi6ryUnAQbCXt4lThJ+QCdaL4WABVyCd26a0xgWoa7eNPFuJ2HqUYxwTYw98ZRYOXAspbPQWwCOJX3oOwLU8YstgELb/gxEjUYGWJ7vddUKSDEMy6wI4vRN8DjC/imhlVTLDCUDFOaWCPimNsiEcK9yU48BciGu5v5AnBKywqYt9cwMkM5Xy5xekUWE2tYIV1GQadvGPWJcD+MCsq8SB5o5428cV3n5oYG9wDwqdEBASBrkMf5kzTkO74ITCdbGiKCQI4HaavDATNwYQAjQXAhin+0GayvJnxQwg0milAK+pFUxzy+2byCeWBMRgqh1pfuBUwNMULRm1wb50Ne6HLEBmYMJp4AQBqiN5ls7uSNPMuNVykIC277FB5DakBzkqKf5L9e0g88QPvHQ4gOLqXEqsAHap25R8h1GHiAHqsiBIDBV/E3EAS6c17N2KerZ63q1DWikg5skg1oKRyiJ3EgUCGB1/DUT4+ROSTBuTnmB0JAr8D6+wKfb8gRsHxRgXiC2DpYFjJwwJuyYfhiGpt3g8kDjEEIMky7j5xwDEndegHfIbz1TowuAAk9h/WQVNJZAnMfYwfU+dAwlTUfZz0Oma/BNQtmBrOZtV4IUnRpR9y2O+BKsAQvojng3JkJCCBbKWIwEk6wnIjR5LkR/uiChDQvPuKFgkDXIGLAHsaxWfTdCSEL2aC7YDz01Pug+zB93Grp97vD+goU51lIB7VMzRdsBngy62uDnWEFuEr6hiQejSwzj/xMTCojud7MyK0JRnRg6S4/RgpsPXqRiq0oI1dmpz8o8yN2vsHaHGmQt0jPBYkeUoBobPDD9DkgawwxCLytHy2h/xUrvvhu3AGUjqkkEKsVFJXcOlmjj2YGN/L2/QB5wpkExgTKBPwZBMw7edexTgi7BZ3Op6AjMn7k02pI0vo+MS7g5AWg/bRyZ+Bg8x8ByyxeWOnG2AA76JEDCekMiMI2GdOnn+roc2s4IKiB6UMT88StKzrOeFPXqJRBruEqVL4fDQ8GhNEnJz63BToBpCDqi8qqXPHBh6PoKhcFdpBcReuHobovEvynirERhAheYpwcJHszYEOmZBD9AVfQUVWUBtv5EmG8VT9tf7/CKNcjekcYVNLGpqzPQwWsAbw7JtFO6EcMD3QbeacGNcEd8DhqFpDle3A8gr3BnwRrQRWh6zsoD9H5dBg0jEzrghiqwjoRDqlj7Mi+AgeGgnRtFjqh9YugJJAHP7SWAfdWYoRR2DkzJoQ2kibhRJFyt/zXtatj+siiAZ7wRrFhszKJSFACkDiUFy7BwmIeHMaJDRhC5EOCM62QDy4C5zKl1tCZIbwZnkwfcz0f0Ux0NtFhueItkH97elBbJ1K9YGh5amxi5B8RsslYzI0NBjk0IA/hUy8gBnkDdbaYMwGL1YT1CQ9A9M1QJGOEkyUL4Vqyfr3j/Twzum+M25rb3Znjq1gmAvMRxR/x4elPqlA+T9vMQhXyWn48SlJ/g69hJhATI8dcE9ES7xAhSD6FtHpRfURSxg09gdDhE2eYxC9TtYZLAOfWGa3DA2B43oeAwQUWRQnYcUmOAAUDrzpcGQ5GucXXHCQiCIsFwGdMDGL9XfI9Oa1QgawJ0PqU6iBdj5YZpYnk3y98ERBePC4mMt4j4MtbRY3i7hQwBOdNTKEPsB+jvkhrfHgD09+LJC4oalQVFiJzed4F1KMG1lffI2R2vS2NMqiLz85KHOspFjrJAZJhmiIYsb6w7hGKwGATypgQUzqPao1xgJI/tVIQevIvwPQmdBHF/c5A0tI5pvtCMoaiDK0JgWrpBXBYXKRCLVLtLTbhQ2sivRHLKTFljCC6DQQjB5kSAvTaXKZBHRaJKkjCxyEhxpJPiW7I7EbgJuRmNFeeZN12WILaMJjqBBdHPlyCuzQBKSKug/6F0JyQJiTiG+pNMhD/wCXEgM+0UPqsVyRM1pkZy4qqTfXhFrw/5uW+gQ4YbJDBGYQcS9AicrZ3sKPKlDsh45ApB0BqNxGbradfQCD88h5FFpeHtVHer+VmIDe7lAge4GEtHIKMkEm+F7CDi3jjZJAcL8Q3qvaFoIghhEAZyvwTtrHGrUIKiqfWN8iC3amxYCcGN98wl0wG9px54fafDvej5MAjQhC9FOCKJ97RagyXiUALMzYLAi6a0nshCwbeC3qz6MybkcWY3+faOGcEwZEAYoR4HlIVNbbJh6LQmrIsbh+o9fl5ovVOEHnycjQaPDMY7YYV1dxasXkRdNUCFGL9Dfj+nuSMiOTv7f0WCPWhLU2LCc30KMEabzi4oGvsB4fxqEz0Kjek8dVTmH/hKCCZKgqGEN5f5Rp5BiOT8S+Iciphi9frz30FKA/HgNklfVAdX3UBFbH+WT/5829oaANS+cAhA4QDayCLGGao82r3F2jrDPiN55yzRpTq6Y+PmyzStFgqo8DYIW8/eCRwEboW85vOko9mjOJoa6NYiZPGvQZUFET4WlbHoAfIN1kWWRZnIiMUxsTOErioUNTUItcV+JdFDMu6Kj5oAOkBV61bBgDopupt4+sRq4hchgrjhaHaph7s4EwR4oiQC5kBNSAOmNMnGLfQHoiBsMqqAWRrt+qD7nhxOQzhvFF/ZHd7iALcG54AJLy8KgIENfYw3i8/dIYwidgTbQWka9UvrVDz5xEAzHlOIq4e0Rf3dTQu11IEMDa4R+ATWOvIdXU07l7XMTdmMVhOf8g5/DXyWdVvKR0EQ0QT64jGKzQMWn9056Af48VYP2jbWoEKVCJIzaWAT4aayAsW54+VaUZV9EOIJXkEPIL6wKADg+Or7GHAf0TGlIkl6ip+ijHHUcw7Q6OQkUsYSbEdcRYKWHLvXPeHqx2+Wp1xCzCX6YOEUy41ZDHTpDVDnLlWMiy3TdcYsO83yDwnjuJARxMrC/EUHC42shJXLvAiPBXHDbYuRCnOoUu7mm/L6nWQHBDuWxMQxTfSdZevaE2ePSgshKZiAJ+XhtOJb31RbrOfDhVjdj6+tV5o/Yn7vkN6XwPpwg6j0Z7Y8CKZgO3MOzYKsTeUHCAioM99LL1jNxBrBETBOlAMwbbHVy4As5mQQpzDe4hWS1TwE1A3W/iWtkTwCtnz6kMCcafQOdYBrVlQvRNaIwOefa2ltjwAGfEMKTBTLw4Zq4HZfqaLHuiEhXZmJpjzMgox1Z574w7BmaQPqzNcxF2Sa+G2F8Z7moU7Z4u3AFj16YM5D+PJ64aRiR6gzj4JzHe1tpiwUaeEi9nCuAVmuBxwA/zNX/EjE6WQLIgp5KSXaMBForsPnKEHIGyxPPVBFr83Ngv9G2VXOBJTSUDtuYvfe9MGqBDJNymP2GeyXvwnMhRxOcR4CAKJjRTH2wVr/gwHFIFIARd0jBiF9dVsYIpt405NNygHNs/xoryRQKDM/SKl4MfpasfJVwL9UkZZ3jmCJgQkAmtaBN0W+AHHUnWwKCzzC7YCbJMVd+tIr6ufGepVH2FnF0k4jZWtwy4kaT/3cZ0C0QCbLvSGay5g1stF3wPWWdomN/C0KoIDHWUGr+FHClZ8ipsDVVHFjc3jvha/t2CsZuQO4EF08D7p7RbKXR/JcOmlc8g6vV3Uc/1F3x1U+xtA+L5udB/0AxjpDxmz8rkotClGO/QbgYRuQw5fC6PUppJq4BwKcghzGHFxsGMrYR59kaoGhosalgFZWbAkTFETjGhyiTJd6FjumXt6UPSp3a9GamNKwWdAMzG8Or28XToG0gsqE7u2yMH+uh7dnhHnmdfNBxGuA008N3oHoEFpMMRdOQFiwwxMATinRRurEk37WzjE54q4sFZ8z3vFii94EJYQ+SRFEHtFH7Lsy2EsXA0dAZJSziKOn/t2NRUQy9+KBv/8mPj64wsUwiJLIWKXlTA1PAHgpsqyCGZFN5L4L6IGBQLfg1tM0z5I2zVQtcVv/5jyySi42IuKKgRCDKAnEVxzJHQBIpAFaQxCPi5B3lZvwZ+o9Jz39WyjBI5jRBWcBRZlxgAP1JG5q2Xm2ZDrpDsSjUh9GhLu7qEwQYPQ7HNEgI0AasriGxnGyFV0jfVA/RTGDcuG9HJJa7vkujrTCnymScgB6xokng3f/6bvA/BHIAiKJ41PIKP2ThB0BxOQV9i4x0TCWvX/5W3TKOxvFW2Wc/EiUHwcsPxA71/tIbwpfMWYKomtACQU66eM0aNttLIvKs+NtWjQFcl39bJ/De9BELwTMIQntst6MDJTb1UtGvWACrISbKrybVk6B9k9u25LZJt5nQd9AYBvZgpfohYSAp/AQeLieZlAAip39JXDRXZjGws/B3gSCX8fknbA+x/dRet8z2tlSCVx47AI9whS42/vrvV7Ur8rFhbOtix5o1JKd0FrXb0+J7xrC/CWdxPGzPaaT1lbQwJvNo/hQhP3ix5JEXD9RCTc5xLKM+bdr2MDQ5F8HoYXWLOkVZEg3nvoFoOAm43UZXoiLJAWThb9w13xPyNel98HRhCaoEhmuHksA3rWQixk9CFksb8CBngHXeSNA+ML+AMh3qX8heI7rg1d9+r36xp5/pa5ST2L+AhexD/D51JqJ+4rZA1NlbZPReugeeLrWqp6p1vWv1C7AzN7LDGS0rUcW3+4lxVczMxWW4fSfKksEIaFHJXsQbXb1Y4b1YYXuLA6gObjWut5SRRsix+bsPbgVycRkM3FRQSGByx49DWv44OfazCbciA/9QI4n4CSJ1K5SNXbl9gBYbhcelup3Jr3z0k8hqs54mINeAK5heEvLARKj7nW4OK6MmTDBWE5PtMaouWSgkjsOHkyUbceRswoKtchXEG5lU84nMsPz8xmJhH25w2R3RhQpuS5O4kKzJAKjvD9Qk/IWLSb647RItIEmxnbnC/XAZLFNAzLBK/R+tFGv0AGYn0QOdXlLOTFkayZuJFQd8S1Y/Q4B/xrtevBB3F3ByJ3QQCUBGaODRojCWQrETw4uNuqNIFrIIYwyT77SApQAijzZu/oa6UBspDWoAg2sCCXjusYTeyeBSYoiA9jXXOemVKU7tYGopFwPFiFi8zhqaKdAev9Fn+fbPUQ8ukExas8LRGNjjUG7R+IYsCKpTLBkP0Sl+qTyqXBKAGoxUu8KNyRQIYIcJMEG/WR+vcLr7NsCUVeANFQbbEadIM2ek9i5SJjH0UzQ5OJeQSQ6RSECthgIJYYMkyStqLBVEtM4Ht4khRufkxI3rjG666f+yYDbTdzoT7qG9MGNu16+9vGnZS+lX3yPeJNowNyIWG+2rJ6k+Tgbhc2y2aLVbfrDFYlYXTLZ01Neiz2Txs04HUfHZF5J5g2VCfluOwMt2Z+CnujLO1eQBrdgBswhZ2z64vQgywIkGV+ZTQjQ4kXDufSx+jTshoLVTBBbW4IBrSbYK3UDozhSvFLhBAYLgK/LtlZVdnBlf8KvFxOMJqn2dyNokefQYowDwnhAo4t21gLS2c4rARVuLTamoVzq8ykHZNJ2CAikAWDjFeb6GYJllCL1Wvk38N4PgUd0+GQlRlOCL3dvNVKTcIfvEfZsMOF+GpP7IQ7n78YEuh5TtdzQwaDVkEWrgaOIW7sdoMLg9P8hPt+8RyhVTsQy+XyHEPcXRI2LCe5iXKuy14YOyoJgpy/kgLJAv8hKHBsh5fbybb5Afr4vS+7Z5j65qaB3Gqttm6/ca87DW30iY1AaEwV0F2BGJcfHQCUX2Di+wPaYCkvBovb2O22owbO5VZHQkFBllyW5ARhoRR7IkhRKzRNo5zFvKjneBgq8FQHGW0/RMH2G8HWI05i/ni1kuGZRdhin7vl/sSwhGLdZ8fP1isBqgG1rwougjrZomJ/gRB8GVRUd7Ho/wy147SxnyFhrDKcmX9i5UDuCEn+SeB/reevCiuB5/AjVgQCZqZdlirMFsiA50NYELPog22HJSKszmgFBL3zgMm4EqTfCyEgeMj/om3OMA1v3Tgu0J9ZS3aiptMOPnyIidizmbaNoIi1N94WEdO1MSw3V+KlewWLSIDxi38Fzh6XpskMrT585gI16l656nJDJHVPtYJnM8plQyXemsma8KGtj8qGUuwdWIiHXl/CqwCtURmRLe1UhtjEvGf66QRiKqEjG1WfbBND7Xapv2MTd7fLeHZjKgXjyU8arnYQjygLomcx75h8G2MGHvm9kErPBFRnWAFBfwwqbiYQfMuaJkGMuwJgrbg8xFM92xWSRqLDDBm/lhAI72Vx2lYLdAsW11ahyaygjs+dLCFi/m6biiFf7dACq20BwnkEImsLLNiSkS740Vr619U57fwKCNKGlXFtqdV4AMEkwoUXV+2KY9Y+LUt37UE/4qJw++vrG3kenI2lbq1dUr/w+q0tKbljtJisl6kCTSAc/N0GiTEcCAiYZMTtMsFlzHGdyEvs6kNGbkm5xfchFQq48gOglj/xOlz0qOXCWK6xFbUTinjcF6mMAEcTAMqQbFbN9WNVhuhjionrZvtZRYAx6ks1VFAzMJLNthgH/Och+7EJNndY9sNy2Drokgu+Y6flskV3TQr36kiBf3NZWrYlrVpzDQjLQDbGeJ2vPdky7N1AqB2rC7PyLFLQ9YlNCAunA9xlXGsVa3ytpSbE1rINcKHY2mwuK0esJXPHt0gpLZpthhXkDTxpwmJ8XVtkGZPlyv4G1cr7hSujJ0Lacpy2Je6vXsKkTIwCXuuB4RBwmL7g4jC6ABCyYR3n9GbQhsy3Wz7nAitfxOkGJNJ3r5Ap0Vq/hSeegUlAWeBzQKiBF47l2AeyQLdXF2EDJNk17Mm87IKxJS8xZVj/onCBsu0RFUEAVsZtMWsEqK2lsStZjRzEByHQi42zYbvAYheD3XGdCbi/djmUz/f0QcKTW5ONFcCDasTVKzRog+EgNXQsz56QNWh+pLNsXVR0LuPU6MLPMpYRE8xCeaApANf+D1J5bZeX6m2vfepjAj0vFiIkMHzOaisFBuHYHF2ZlaJcKDuObz3dMXIRlOxAIpXplZJNrrZgoOktjEOZj8wLkkPqX9l0IFh4BXj3PaLSRpphoNdNPhJV8D8qjvBzlXPt91IkAzDvfoadRLwBslqWu10eBxIRVQ3XZ88HsFh5L0nzuGjV3IQw22C0cdnPjA/emSvf9VvSJoM+W4UJ6cw0qgPk5LXEzG1oA0H2EyKS7JRLKj+oZVzoJaFt2jHCj12OJD2CzZcWmBhlGJBriDz2A5LQDCdzD4B81rugL62MvhFLQaxsmw2xpVbj7J1/P8sM9c0d+CxcYoU9LbZNci86jESTtuBGRLb7EmLxsW6ocdccJuhbg8L6ExZBgWJV0jVJ8qW6+LHxS2WhsY8SnhBJFsgutC/TiaB+IQVEA0bSms0CBEhybDWRQsxZMOhI0ggufU6XD+ufXCi27px2WRG2dpdsnks29EMxhFwG2CYGsnxVq4FyQqxt5sCNaDbN4jK1dAPKH4DGRYwt5vVhBu2069ML4st9vtluf0JEPlgP1Q43jKjHtcF/xCZye922uq15LdWHNRawAQhtiiB7ymA2SPHgT5NK1ZWTUcBCW1lQjgBSYWS9C+xpmBnMJuHJMrQQaqQwIsgiiF0jQJ5h+dowAm3S2g5Rby3KewTtixwnLpGDaVwYMCR0scpru/vtOj6pqcWeA+0DHtg9zSUHHtc+QLzJp4t3ce8ILMpMv/tCf6TXuzjK1mSbvEsNfBgku7f76IQ3O+Nf23xAE3uukbXWOJHUY1hIcDnjPbiKO7aXGeIdDC4f8ICmC+3gau3zWNvZDpc9EJbep120FZ2Hl2CGtl3142n64tahjRO4ECCG34/eZmeSwm3tBw/Bz0ftI712HPEF5P2QoBslDKQiRonaw3DjCpv7DVxpuZVRVmvAJTI6MeZfAyWzZyeOOsU+2AmQYgVhFfdm3V/fyfuY5cy5S8gI0clYVU0nyOGKJXKN4SOPse1E2Km2LZAIjMatL8oXwvXkb0NQdB+NzfwjfO1y7559uUmLcHJtiwC0E6G6V+Iz1zYduifpWzy6vr7l83XjBRegTrdTBzSBopHHRd1m49pHUYQuqtUGe2jInlsQRV+a3mD/kbXKD1nBzM+YHozOALGtLA/ieNir9m+rpHxflzrrsQtM2XjB9zeMhyZeBOUMn5St5ntELgJ0LuINoYuJevFbWPipDLQLgQvZ2JBA4Wt9pRwGc4HVhEvmvQ9e4itcrgodY9IsrD19fNsRXbIiFHkOzDjJo13riIhXPEKSI//d7NOZ/VeLDrvbkBfc/mstpzAdiCZl1EhAYwGcB3gcXEHmZciaAY1HO17asTHEvstSiTSb58a3grt6dNe1nXAYmTj6j9bB1vI/+pzYJ46ajYiwi9vE0FDnsXO1G2gAGXAG4RANny7oT7Jp3u4sG6w3jOCKjj2G6SrEmKS2ixu/DhwI5gaL7bWQbcX9T9Ypqlodjhtf/75NR8QTWj0rhDBWNg0SEYxSf92c1wBjN4DFnY3yN9m3lb+lFt5uT9G5XZomycluNH8404WTcW19KWwPN5fZbYpB9/BWq7YOqU3AkbdOHTPme7uWrE1ZYcP7rmhwjy1eIwImj8wvy85HDdQZGdiMEOKHA1Mu9eP+QTY1RjesyDISHEecvsUEuN8F2mljIA6s2Rw3cuTPY2MmA43ustXEwtSyqxJfgglgVE/9JhR9izKoz/Xu/W2ewMMNHs8S/uOOGiSSm0wmvhOdnNPkLTlahXW/RAL1mUvrKQLdjP16Sl9go9sqcaq2FXU3SvBAhD6hZ0nCd3x1WdjY8kPEvRBmqEL7lW3kvudlA5/u0wqygDGKnZoYC/ezEI7ZCkoPCGZe5VJt8nkYesSrncmuZbid08VMwFx3YT+qHtKVZFucXYOE4tDawGTTx9hIxCM+1hKsK0FeeEINXMSu125Hr9qx7xJicivE/Jaum6t7sTMvGXXqFlQ3aBA81hlBn/Jp2gw8zQfKbu5Lyu5bUYuGbsHb1eFkpcZWBFIZxzzhvQR7jvOixLL1yYOKsVXfohDT75Ii8x0/acT4FffqJZhyWJX91ovPq4BZe9/fMuh0JRs743qPpc9746YuRJWrjA9Z9BiRqpifVT0es9iYwqc76Io9ABn9tgh/DzS4i8CT3m+r1xXxesR+4Va3Bf1ks6vVpjgYLzfaFULHFv9wwFkLy/Y6v9tdMUlm29B4wBxrKsJ7F/54bex2c9jTbQoXX09FQfKpS4zD4361gPJt7LKrCI7ClujiLzfuPS64aFcRe4j07IZKBpighzYYog6FukmkBXuagBXc4V2DzUbqFCgq1euOX/0By2ZfG+DttvCBWzvu0+cBMwNsTLmJ0r7fo3uxNQbCsXlq2mM8x3UjQcFAW3GxsJDWshpH8HWj6IYayJ4JKpYB95SPxMB+ctBFFCwDYw4y1Cvbpqt/vUkJfHZQaTT7wAAK8gJYXNDM11W+CgP0Dt3rQMfhyZgMMv/rG3kQwDjTt9hGBCcNd1EvorHI66T43vaNWnJCQhIOdmu7/bcDCPg0Prk1IACdzS1BfcEFHDcxVxdY17x7nJlkczNqvr/Git5WP49NCEeEcQF8oE2I3zrKdbsJ7/RplcqjDuAFFKFdpOFbOMeyDDcRxt7PB7VulubzwH68R7Cr5FaNXva7kxUMFWpuEHbwO8oAoY/IRlHbbPQvNeh8N4SrK9HflqK3YXwQLLNc8caluiEsyHkvNqED4sceDTQoU35bga3ZhnvX8wvSpiJccP5EX7p569cIfN0BGdabS8IJbIx22Njbb+e6raZ4z+VJHlUcS5bxAlrcJn/miul31xNIvq/sgtQb7Ct0Q1EqFgDOZ0RfazXffqYSAm+D4hn38Uy3xm8g0rXRaQsIc3A93bUkGwoHAeO2fKwQBIAPGxOVy4O5lp3t1cc8orVue//JK/xlZXYZPACTOGr1E7xaMcbMmox1JkGDoWzW+FD3j5HmxjTSeYP/gA6TyKNbM3eDULkeV1enw2Y53Q2FK7sLbeaCLXKH3WMTAbfyBYpcFu8Zt77DHRsMrXXSci1b/4CCb1O9hf9IyALe0ivcZ0tYZVqH5Dy2NaZc3R2BRKlAzbeJ2VC93KWWxgT6id31IMLco1BIbgirOrGL8beZxJ352wYeMO2nXvEcO26nGTGuaJFfccds4+/JY22ze9uiK85aWecxoTq/bskF/8+Uj8uVlcHeX0vuyeDROw+TyQUPvF9D3W4Ke7YChgnctkJ4kgDJQkoJmm6QmguOine17ojeiyRtAOIZ4r0gIIIcMav9wkJW9xJsmybxCu6RGe4agxK7+8x7Su636dvGhXb2RZANGf/MIIji5rqfAd1k2E11TuBEN/pHm5KbO+XtoQFVI09craog/SaPlqwMeXoD4pdRdzseYpLXwBMA8UgNq4BscF9jAET7LAUlQRA2G5/TusGqdbWfLSopIzLSRDomtx0ctKP70O347y3jIdyohn7JLqvbxAcOvt+qF4GAwnazIFGMcjHy7Ap7sPqu0i73tqNabKQKMJYbW97XJRP+PVDgMJOFa0bFfYX16tlsLzuSx8yqVR19lN66dWm3BYbRwsUbbNHkzcAbjAqBkeP4Em7k2eGKyPOJU2ZcoNRvafGNvMP6f9gVQLezwjqJ7VDBFf3gqQNkUpUFdD4BvXFFZJulOSYypa91kUSp0aZf9zgmTMWLGurvnTOAk6wjfcuNtrLhTtx5ATeFywIFfNlsyP42KvPPJ833RHehECjwqUWGZp8X1DAecqyCHFZ2klXKn108F1nAuC6Li5bgNziDRgAJIFl040CxIDpgz9uOGlgvQaBIqPRNz3TngJnVr+0WN3u33S9maawoLwcCVc35egsgn1VCG1KQj7ZNShPoO88pcXcpQ8L08wL4wsr5t+b4nm+Jwaxilrh0v99hPx+o1eQUt6LYQga5bOutMLru6sILFrfrwPzk8DjdDjXI8v5Wqfjsb+8H7yTLSDYeqCtwX9IiPpKnezh5BYPd0Inz4WYZ2GRTj8C/mR874RLKKsHZrh/safnanbeYrT7ccogAEjfI0At2K3aDCuKVzy2eEcUQNreuED5uMfMUhGPnIONKGI0n2llr42R18+5iErtNOu1OX1nP000eBxc7M1Hm3Oty4/qxnZPPuN0b7mL5t8cLVnsQbLaP2pB9MTIv0/bTldOXg3VP990T0epTFJF1IqwkIonAO77/NFtcg4c3MUPWRMM1xnERbTXtkxVhZPPtip6teC5oPN2FtFsecGHXLdb2cpAsXzMVQN8AY8zx9LgtxuOdCE5Ym7Eb1uRduhpzq1BW+5qJnXC7FY51hvgdA1LtPwpm07V28hCNYx0I+8u839JH+uDZTXtk/NALMXwdf4EUnG5RSDCwFhqbAErjaUtE8+3n6wbv/3E2y63g++oYotUGi4N1H7dp2ChJNNcnJ+Txcy0/iawft9sD0VbFGkpyT4StH8vdR6cqC7ZBvlzqfzEh2L4QbpxgsX6I0Lo3aTitm7qzCGcNcB65Dm6wATARTdONQHbWPEEbk77t8tueHSDKzbnBOuSbi/VST9Mg+oG0ez/pW5/+WaSzF+mnqlAB1uSwbfsnLDcRULZmOREXBIPhJn7TcVfEsnOVmfCoFzdlYY80Xy4EFYTdsotj/xTKsvdZnFSh6hpuLyKFyL9lB/YN/yiPiUSJ+fZuLFbYNkmijG9nBjf0NZkF7PJwvRxee36egsEJanY4bzquSbE9PRXjRlRWoLyQnUoaaM7KLQ6BiLOYgqvr97j6VF5EMO5kcs6eBXf8QQEuoww3PUDlNwTBA3rMjBvxMqMzvwMGUBvbXfAk7Z8d7ukxaIara2G8k+nIFsru7xnIIrfAu43mdXugzee9gRUPytX1r2u4rDmsmW6lGCK3f7ufrTX6M9cSUI999fx0l/BNn2baFU9OWs2N2+io69hdDN5zDWK9D3vWhFlxlURwkzURXeDoONXFZCU6a4un2z0FcyJZuIvrdSuvdRboqX+ldPu6QnZLHYFgT6+NfeABji0wcg+ObwbXoN0Nb2OR4nBdSDBPGHGrdQ/d1Qw+HpzGKtjO4gamWYlKpar9n9qBRLTY/VYet7QApdCIgh3yHAQQUNytMWcDCg5ADpUZLIDD8t21X4/OWPZArG8DdPWUDxc+E9F+Zbe1PF9r3wbfH+3lufvX5MjY3Th2kAKSdkS7HzDsjrV/YtuyXjdewy0MYA34g0npNtOhFJZyha+YcAg3Eqm3Zwzsr0ZG3sThRghbVNDdLuCvx1LXFb7Fqu6unNfN62d7FhEs5oaJ+BIwn7cJvPygJEAGq9KWQVv71JtHrUFuGL/q3kjIjnCxHd7KPRQNp38nQny7Q0gS9REqG+7ar8cg3N2VQFJfLHEDUyaj3eaH46nvxO1zs+/50D0zv1ozZVNz8l9rFMiQLZn7erLVJXII/BGzsSGPPs7tMYiJ821YsR9625LumUlwdElnfU57uBfcPfh89NMA0N51dBd3ZRXg2Hs1EKjfOm+C+CtaOm9blsCGr3UeR0SEBbQMzvujhlFdqbZK1t2cQ4jjU4CcjZq2F9FWnuTyp5uK7teiTXAFjFFpk4u5Fbo5n+p+pgn/z/SvSlh7UEh/eGCEqVuZAZZginpqTsSnQeJdWQ7+9CBu3MzPAozDccMSqHvh6x6IxEaH+1s9K9+Sg40FmTDo1llhePyMWyyRRuPjGDcSH6ApV7sN3/TiRaywKTg0FtFmBHdRQlAz9Y5Qar18wiHCQV15szzvivG2R2+47g+mP/WycQ92JL6OXeL25NtBz2B6Roi7jjxfpzE/BRWJ+Tkx3t0lVI92CJ+oVaBdgHL+mlxt5onfljJ3LLwW45j399s+79FjXzcYQ25AgP/AkJ1gqAtQGLV0pe88LGewbeiDoLSfWpHeo9Rc7m8XwTOtu9yk79HzuvY5sMQGrW3F9fHkin9ZpSB23A1lF3mtXxvda4VwIbcQ8sujTYpt/9GfapuJRj2yLGITbPmCxk2CYGH6thIXhutD88ylsQDfgomnZkCzpDmWO1bthBuWs42VlmQ8DkSrxLhGCP+1StrciMwTYJJT8RA9QcSd9eenKBXdgY7rcdXP9j10drBF6NVmkvTvy1ylT0SJiHV9h0Z0lTuQGDFd8GAMduK7SkzyNzQnFv9y0wzqt5uVj7V16LN4vAGoQ8pVMrVUkcD9fG5mSy48oyKJZvtWAa7UkIdcyOEbNmESfd0mMje63PbmTotXSINd4rEOEo8ly3asLbwu4LoCqvTBoV9cE/3NpTDGYWT3WaFsvvZI7N3raXIebPN+0OTKdnaPkI24wb2T7sdzte5cj+Un15L6d0yCp0J0m2rxH93O7u3uN3gGZSE9ilL2v3MfYvu3kaxaIbusY8YIbQbixfKehVOmA+biW3j83NzkfCf7jew+J2fI+fxFoZVciNGdylfxeJvYdgV8XBtx8eC1AW+64VR93opo7bqAx2ghJZ4cGK7hgu4Zz/0wJvd7ZSzabjYSe1iCG0KHa9GVec7uxrunO2zIIUL0a/cEa8AOhtMufqLIA79Oxh2RUjXdw42h41v90vAkT5jS6aVW3KfZ5ndeYd02NlW9i8sp7SBrokdo7n4NtIU6rVW+KXIvqbyhJwlC5s9VY9vaOzTaPDEA3WVRogGo8M1tETEuxOi3sRwZD9NUV4GCH0p6I3wCn6Adiqllu64Qep5j9qyJ4GaYXUGaKGEP1kkX8hAPfWu/lGbfeqGEgpnFvZIr0a889eaEmrKHMkAIMxEg3Gz3BOKvt+RC2RFO37ae5hlNsOY6cz23q/e8yDa7qjF9ti4Y2kslNk/vyGtP0ttlgmdHsp9kAdJnxkOQ3IyC+x08irKqIvFHKG3u+yHW8XKfcEK7FczSKtGOahxcmVd5b3QApDftiYdo1RY+ULT9LbilO+lP0JIuzG+Vsa6xewzXcnuGAPTe9vpNN4OW7qKspzNVt5KQ7TXbFM5Fk6kvfnAtIsA1K1epJO/+Had7u31RH0sWkC+luKbzrjo93rHfy65wdB6uEC02ucI6cTdf5/lqw9P9uIk+SO7zXA1asvHJorbn8DK1Hcngfp3XFiwY8zuNLedVtoc0wime+MCs27qHrYBc242qhdw8McATAMbXdzgeKTG70QedkkiVwixIPXgFUL14jM7j6VAowugBmTx5u6yp2N8hetb5nRS9PeZQxn3djs8T4eRc4XS54GcVEJmIQsVHjYVGvAvceLmC6qkOczN/TLBlJO7A3XTfrsYMt4Qdgweads94yPGgVNxIXt1DfLvnt5d64YOqG0xbwRfdYfw41+/EFi7V3W3i8RJubnNPDoKbmdjFNUFw5TsEtDCbAcEO3qHz3IUbZGDSclhw9RjViS1SDhAc6B2PqeueZ5fhB0tdzKuWwUOQpmpkT5fwGdvHTmZPn7AnY7hbAOc6A59zu8XB0wqFXEsTS0717I+41denX8T/C6DdHm1oB863NoSr43PtiHalrBB9zX0QrkCXhn+/61cGvauru25u9AyEJ0XPYUGiVKjQTaRfQXmBg26ptaD82E47sIk+iGcyfUXoetv690fv/fU/HrPZbb6CfNwuaW9WtfVqk1Du6waqntLs+b+6pmDdHULPTEjy1Fb3VYH60SPIfiznap4u8rpQ4FIg4zHTz3YHw/DDI5wsr/ZLKDB6/JjH7/jbXefLjRkI72IVOWIjb8+keMrPiUnuakOYPnxq/7pYG2iAlAC9GK2fU/VmcDv2PoupQxUHex5xE8ja/d2vGz/++ZLv9LPb01e/749/vpXxeRHZEWX0+6go3X99Sfn196SC+53HfSUbBqbrwHCF20J5d/iaX/SeyW7Lc76ndvSCJ38Oiz//fGiXZkK+PD0oe5qpHUeoxmyPhveKgP8+l0Dw2CFmpP3xoT+P6jnI3QpBq9D/tYgdN8ZwHV1G/Nn+6dmOjO2Y/3lawO/fUIf9Rff1fwCCIbq6JDKqhwAAAYRpQ0NQSUNDIHByb2ZpbGUAAHicfZE9SMNAHMVfU6VSKg7tIOKQoTpZEBURXLQKRagQaoVWHUwu/YImhiTFxVFwLTj4sVh1cHHW1cFVEAQ/QJwdnBRdpMT/JYUWMR4c9+PdvcfdO0BoVJlmdY0Cmm6bmVRSzOVXxNArQggjijimZWYZs5KUhu/4ukeAr3cJnuV/7s/RqxYsBgRE4hlmmDbxOvHkpm1w3ieOsbKsEp8Tj5h0QeJHrisev3EuuSzwzJiZzcwRx4jFUgcrHczKpkY8QRxXNZ3yhZzHKuctzlq1xlr35C+MFPTlJa7THEQKC1iEBBEKaqigChsJWnVSLGRoP+njH3D9ErkUclXAyDGPDWiQXT/4H/zu1iqOj3lJkSTQ/eI4H0NAaBdo1h3n+9hxmidA8Bm40tv+jQYw9Ul6va3Fj4C+beDiuq0pe8DlDtD/ZMim7EpBmkKxCLyf0TflgegtEF71emvt4/QByFJX6Rvg4BAYLlH2ms+7ezp7+/dMq78fuzpyxGZmxfUAAA0aaVRYdFhNTDpjb20uYWRvYmUueG1wAAAAAAA8P3hwYWNrZXQgYmVnaW49Iu+7vyIgaWQ9Ilc1TTBNcENlaGlIenJlU3pOVGN6a2M5ZCI/Pgo8eDp4bXBtZXRhIHhtbG5zOng9ImFkb2JlOm5zOm1ldGEvIiB4OnhtcHRrPSJYTVAgQ29yZSA0LjQuMC1FeGl2MiI+CiA8cmRmOlJERiB4bWxuczpyZGY9Imh0dHA6Ly93d3cudzMub3JnLzE5OTkvMDIvMjItcmRmLXN5bnRheC1ucyMiPgogIDxyZGY6RGVzY3JpcHRpb24gcmRmOmFib3V0PSIiCiAgICB4bWxuczp4bXBNTT0iaHR0cDovL25zLmFkb2JlLmNvbS94YXAvMS4wL21tLyIKICAgIHhtbG5zOnN0RXZ0PSJodHRwOi8vbnMuYWRvYmUuY29tL3hhcC8xLjAvc1R5cGUvUmVzb3VyY2VFdmVudCMiCiAgICB4bWxuczpkYz0iaHR0cDovL3B1cmwub3JnL2RjL2VsZW1lbnRzLzEuMS8iCiAgICB4bWxuczpHSU1QPSJodHRwOi8vd3d3LmdpbXAub3JnL3htcC8iCiAgICB4bWxuczp0aWZmPSJodHRwOi8vbnMuYWRvYmUuY29tL3RpZmYvMS4wLyIKICAgIHhtbG5zOnhtcD0iaHR0cDovL25zLmFkb2JlLmNvbS94YXAvMS4wLyIKICAgeG1wTU06RG9jdW1lbnRJRD0iZ2ltcDpkb2NpZDpnaW1wOmRlYWE4ZjBiLTVjMzMtNGU4ZS05NTRlLTZmZTQxMDZhYjkzZCIKICAgeG1wTU06SW5zdGFuY2VJRD0ieG1wLmlpZDozYTJhMThiMS0wYzc3LTQ4NzMtYjgzMi0wM2Q1ODk0YjBlMDQiCiAgIHhtcE1NOk9yaWdpbmFsRG9jdW1lbnRJRD0ieG1wLmRpZDo5ZTc4YTg5Mi05M2NhLTQ1OWMtYWJhYS1hMzU3MDUxMzgwZDMiCiAgIGRjOkZvcm1hdD0iaW1hZ2UvcG5nIgogICBHSU1QOkFQST0iMi4wIgogICBHSU1QOlBsYXRmb3JtPSJMaW51eCIKICAgR0lNUDpUaW1lU3RhbXA9IjE3MjA2NDAzNjkyNDUyNzAiCiAgIEdJTVA6VmVyc2lvbj0iMi4xMC4zMCIKICAgdGlmZjpPcmllbnRhdGlvbj0iMSIKICAgeG1wOkNyZWF0b3JUb29sPSJHSU1QIDIuMTAiPgogICA8eG1wTU06SGlzdG9yeT4KICAgIDxyZGY6U2VxPgogICAgIDxyZGY6bGkKICAgICAgc3RFdnQ6YWN0aW9uPSJzYXZlZCIKICAgICAgc3RFdnQ6Y2hhbmdlZD0iLyIKICAgICAgc3RFdnQ6aW5zdGFuY2VJRD0ieG1wLmlpZDowMTVkZThiYi01ZDYzLTRlNDEtOWE4Yy1hNTA4ZmZmNjBkMWUiCiAgICAgIHN0RXZ0OnNvZnR3YXJlQWdlbnQ9IkdpbXAgMi4xMCAoTGludXgpIgogICAgICBzdEV2dDp3aGVuPSIyMDI0LTA3LTEwVDIxOjM5OjI5KzAyOjAwIi8+CiAgICA8L3JkZjpTZXE+CiAgIDwveG1wTU06SGlzdG9yeT4KICA8L3JkZjpEZXNjcmlwdGlvbj4KIDwvcmRmOlJERj4KPC94OnhtcG1ldGE+CiAgICAgICAgICAgICAgICAgICAgICAgICAgICAgICAgICAgICAgICAgICAgICAgICAgICAgICAgICAgICAgICAgICAgICAgICAgICAgICAgICAgICAgICAgICAgICAgICAgICAKICAgICAgICAgICAgICAgICAgICAgICAgICAgICAgICAgICAgICAgICAgICAgICAgICAgICAgICAgICAgICAgICAgICAgICAgICAgICAgICAgICAgICAgICAgICAgICAgICAgIAogICAgICAgICAgICAgICAgICAgICAgICAgICAgICAgICAgICAgICAgICAgICAgICAgICAgICAgICAgICAgICAgICAgICAgICAgICAgICAgICAgICAgICAgICAgICAgICAgICAgCiAgICAgICAgICAgICAgICAgICAgICAgICAgICAgICAgICAgICAgICAgICAgICAgICAgICAgICAgICAgICAgICAgICAgICAgICAgICAgICAgICAgICAgICAgICAgICAgICAgICAKICAgICAgICAgICAgICAgICAgICAgICAgICAgICAgICAgICAgICAgICAgICAgICAgICAgICAgICAgICAgICAgICAgICAgICAgICAgICAgICAgICAgICAgICAgICAgICAgICAgIAogICAgICAgICAgICAgICAgICAgICAgICAgICAgICAgICAgICAgICAgICAgICAgICAgICAgICAgICAgICAgICAgICAgICAgICAgICAgICAgICAgICAgICAgICAgICAgICAgICAgCiAgICAgICAgICAgICAgICAgICAgICAgICAgICAgICAgICAgICAgICAgICAgICAgICAgICAgICAgICAgICAgICAgICAgICAgICAgICAgICAgICAgICAgICAgICAgICAgICAgICAKICAgICAgICAgICAgICAgICAgICAgICAgICAgICAgICAgICAgICAgICAgICAgICAgICAgICAgICAgICAgICAgICAgICAgICAgICAgICAgICAgICAgICAgICAgICAgICAgICAgIAogICAgICAgICAgICAgICAgICAgICAgICAgICAgICAgICAgICAgICAgICAgICAgICAgICAgICAgICAgICAgICAgICAgICAgICAgICAgICAgICAgICAgICAgICAgICAgICAgICAgCiAgICAgICAgICAgICAgICAgICAgICAgICAgICAgICAgICAgICAgICAgICAgICAgICAgICAgICAgICAgICAgICAgICAgICAgICAgICAgICAgICAgICAgICAgICAgICAgICAgICAKICAgICAgICAgICAgICAgICAgICAgICAgICAgICAgICAgICAgICAgICAgICAgICAgICAgICAgICAgICAgICAgICAgICAgICAgICAgICAgICAgICAgICAgICAgICAgICAgICAgIAogICAgICAgICAgICAgICAgICAgICAgICAgICAgICAgICAgICAgICAgICAgICAgICAgICAgICAgICAgICAgICAgICAgICAgICAgICAgICAgICAgICAgICAgICAgICAgICAgICAgCiAgICAgICAgICAgICAgICAgICAgICAgICAgICAgICAgICAgICAgICAgICAgICAgICAgICAgICAgICAgICAgICAgICAgICAgICAgICAgICAgICAgICAgICAgICAgICAgICAgICAKICAgICAgICAgICAgICAgICAgICAgICAgICAgICAgICAgICAgICAgICAgICAgICAgICAgICAgICAgICAgICAgICAgICAgICAgICAgICAgICAgICAgICAgICAgICAgICAgICAgIAogICAgICAgICAgICAgICAgICAgICAgICAgICAgICAgICAgICAgICAgICAgICAgICAgICAgICAgICAgICAgICAgICAgICAgICAgICAgICAgICAgICAgICAgICAgICAgICAgICAgCiAgICAgICAgICAgICAgICAgICAgICAgICAgICAgICAgICAgICAgICAgICAgICAgICAgICAgICAgICAgICAgICAgICAgICAgICAgICAgICAgICAgICAgICAgICAgICAgICAgICAKICAgICAgICAgICAgICAgICAgICAgICAgICAgICAgICAgICAgICAgICAgICAgICAgICAgICAgICAgICAgICAgICAgICAgICAgICAgICAgICAgICAgICAgICAgICAgICAgICAgIAogICAgICAgICAgICAgICAgICAgICAgICAgICAgICAgICAgICAgICAgICAgICAgICAgICAgICAgICAgICAgICAgICAgICAgICAgICAgICAgICAgICAgICAgICAgICAgICAgICAgCiAgICAgICAgICAgICAgICAgICAgICAgICAgICAgICAgICAgICAgICAgICAgICAgICAgICAgICAgICAgICAgICAgICAgICAgICAgICAgICAgICAgICAgICAgICAgICAgICAgICAKICAgICAgICAgICAgICAgICAgICAgICAgICAgICAgICAgICAgICAgICAgICAgICAgICAgICAgICAgICAgICAgICAgICAgICAgICAgICAgICAgICAgICAgICAgICAgICAgICAgIAogICAgICAgICAgICAgICAgICAgICAgICAgICAKPD94cGFja2V0IGVuZD0idyI/PjzlLCQAAAAGYktHRACHAJIAigl/0V0AAAAJcEhZcwAADsQAAA7EAZUrDhsAAAAHdElNRQfoBwoTJx1M/cyuAAAgAElEQVR42uy9eZRdZZk++o17OvOpuVKpSlJJhcwhEAgQJBAhoKKMDiAXpKW7RXGJ3e3wQ/TH7XboZTu0dy0V9YqIyxZEFFuUWTGBEBIzkbFSSc3zdKY9f8P94002JQLtXXetbi/m+6PWqX322ePzvePzvh/WWqPT4/T4Cx7k9CN4zaGUUkrB52q1Cp+DIHi9/WGqSymVUvAXIRTHcRzH8MNarfYqcaC1Vkp5nhdFEWwRQsBBXnXwOI7ht77v+74Pl/cGF/MmG/i0HH29EYYhxhhjzDlXSmGMtdaEvO6sDoLAsqy5n4UQjDHf923bBqhJKS3LiuM4iiKMMaXUNE34ilJKCEkOAriUUmKM4VCwP4AYPsw942mM/pUOrXWlUsnlcn+m6JVSep6Xy+WEEEIIy7KiKDIMI4oi3/c5547jwGETuEdRJKUkhJimCZiO45gQAiiE4Xke/DAMQ0op4F5KmU6nT8vRv96RCL8gCBhjeM54PTTDV9VqNZPJgCDknCfKGmCnlKpWqwBi0OmGYYCEBusCXgfsPPdcUkohBAjdudd2Wo6elqMaYwzQUUoBWF9vZ9d1HceJogj0suM4oME9zwOBV61WbdtmjCXWJ2MsUeJKqcSQ8H0/iqJsNhvHcRAE2Ww2sV9hH7AEQKaexuhf6QBfJwxDrTVjDOTWfwlo13X/VP8mtikIwjAMDcMQQiilLMsCCwFMT/i3Vqul02lKKbhQjLEwDAkhWmvDMBK74g2E+mm//q9iUEo55+l0mnNu2/axY8d27Nhx5MiR19u/Wq2C7BRC7N69++DBg6C7pZSg0xljhmGcOHFi7969YKRallWr1Qgh4JPZti2E6O7u7u/vn56enms/gN+mtRZC9Pb2PvXUU319fRjjWq3216LOTo/XHJ7nwd8gCK644grDMNatW/cG+0dRFATB7373u1wud/XVV881MYUQX/nKVzo7O7PZbCaTaWpquvvuu4Mg0FqHYQj+/s6dO1evXm1ZVlNTE6V006ZNBw4c0FpPTU3B8Xt7e2+88UbDMBoaGjjnq1atevrpp/8aXsRpjL72AGyB2XfgwAHbthcsWJBKpR555BEhBOyThIcAhVrr48ePb968GSF0zTXXAGphz3vuuccwjM7Ozq985SsPP/zwzTffTCm94447qtWqlDIIgqGhoYaGhkKh8Pd///ff//73r7vuumw2u2bNmuPHj8PBq9Xqxo0bEUKXXnrpd77znQ996ENtbW319fW/+93vYC4FQQBXMve8pzH6Jh9gjFYqlbvuugsh9MgjjxBCrr/+eoj7KKWiKAKYVioVrXW1Wv3c5z5HCEmn09ddd93s7CwguKenZ968eS0tLfv27QP0CyHuuOMOxtgvfvELONfHPvYxQshdd93lui5s+ad/+ifDML71rW9NTU0FQfDwww8zxi6//PJkVnzjG98ghHz4wx+GE8VxDPNKSglX/qYZp+3R1w3gG4YB0fKHHnqovb198+bNl1xyyRNPPDEwMEAIgdASuNUQbHrqqac+//nPf/SjH0UIlUqlfD4fxzHGeOvWrVNTU9dff/2yZcvAuCKE/M3f/I0Q4tlnnw3D0HXd4eFhQsi73vUuiINGUXTOOedEUTQ8PFxXV2eaZm9vLyHkkksuKZfLkJfavHmzYRhHjx4FRwpjnCSoEtfqtM/0Zh4QUUcI/frXvy6VStddd51pmjfddJPruvfdd1+StISwpVKqt7f3jjvuuPLKKz/84Q8zxiAXCoKtv78/juPVq1dDgGl6ehpjHMfxwoULDx482N/fb1nWpk2bhBA/+tGPQCpTSp944olisdjQ0ABy9+yzzzYM4+c//7llWRATffTRR4Mg2LBhAyEEYlIQlnqDTNj/Twc7DcfXG57nZbPZ+++/f2pq6qqrrjJNc9OmTYyx3/zmN5/4xCdyuRykLhljhJDPfvazUsovf/nLYAPYtg2Rdq11c3Mz53xoaEhKyTlvaGiAwNbExEShUAAReOWVV/b09Dz44IOc80WLFvX19T3++ONbtmy56aabMMaEkIsuuuiDH/zgf/zHf9x6663nn3/+8PDwz372s2uuueamm24CEEMuAMD6Zovtn7Y732B0d3e3tbWtXbu2UqlA5PL222/HGP/whz+MosjzPM/z4jj+xje+gRB6+OGHoyg6fvw4IeRtb3sbOC5Syv3791uWtWLFiunp6VqtFoahEOKzn/0sQmjFihVHjx6N41gI8fDDD0NeCuBVX1+/e/dusCxBYB88eHDt2rUgKfP5PELooYceetUFg338JrNHT2P0dQNJ5XL5C1/4guM49913H2jtKIp27dqFELr22mullKVSSWu9d+/eQqFwyy23ALOpv78/nU6/7W1vA7jA+MhHPoIQOv/887/+9a//7Gc/u+2225YuXdrZ2blkyZLdu3drrb/3ve91dXUtX778u9/97qOPPvr1r399yZIlK1asePLJJ+EIW7duPfPMM1taWv71X//1kUceuf/++y+++OLm5uYf/vCHgEhIriYxh9MY/asYUspLL70UsPWud71r06ZNW7ZsOe+88xzHaWlpeeaZZyB4ed55561atQqca8/zhoaGbNt++9vfDuFPAPfw8PCnP/1pyHkahnHuued++9vfvuCCC9asWTM8PDw+Pj5v3rxCobB3714wFbTWP//5zwuFwlve8pbh4WEhxMUXX2wYxq9+9Stw6n3f7+npWbFiRT6f7+7uBhIgXDaEHU5j9E0FRBgApiQ2FEXRU089VVdXVygUli1btmjRoq6urkWLFi1fvry5uRkhdNddd4Vh+LOf/Qz87rPPPrurq2vDhg0rV65ECOVyuaVLl/7zP/8zoAeCoHv37t26deuvf/3rkZGRQ4cOdXV1bdmypVar/fa3vy0Wi+95z3sSER6GYRRF7373uw3D2L59+/T0dGNj47Jly4AkBTq9XC5//vOfz+Vy9913H8C6Wq3ODe6+acZfu88EefCT8xUhSIJTSimlTz311PT09AMPPHDxxRcnFFJCyI4dO6699tpf/vKXH/nIRxobG88999zh4eE4jpubm6enp4UQYFaapul5XhiGCKG+vr7m5uauri7TNMHv3rt3b3d397vf/W6gMrmuSykFdGYyGXB9gKFSq9UKhQKEAsB5l1IyxrLZrFKqXC4Xi8XEkIVgmVJqLrXvtM/05pGmc8VPd3d3V1eXbdtHjhxJ8pmJnLvyyis55w899JDruuVyGfRsuVyu1Wr79+/P5XLnn3/+5OQk7D84ONje3t7V1RWGIdiss7OzN954Yy6Xe/TRRz3Pm5ycrK+vnz9/PnwLGaOjR48uWLBg8eLFo6OjrutCmnTbtm1JknZ8fPzaa691HGf37t3Jtfm+/+aTo6cxqpPE+lx1f++99xqGceedd1arVdCw8PpB1N13332U0i1btoDbVC6XIdUURdHOnTuz2eyVV16plAJF77ruFVdcUSgUPvOZzwwMDIyOjv7DP/wDIeSWW25J0pj/63/9L8uy1q1b9/zzz4+Nje3bt++aa66xLOtrX/saXNJPf/pTx3GWLFny2GOPzczM9Pb23n777YSQj33sY9Vq1fd9MH+TYMJpjL6ZwRrHcRiGt956a7FYfOihh8BrBqiBuPI87+jRo+vWrUulUk8//XTirABKjh492tjY+L73vQ9EL4Dm2LFj55xzjuM4tm2bpllfX3/rrbeeOHEC8K21rtVqd955Z0NDQzqdBt3tOM6nP/1pIQRcgFLqm9/85oIFCwzDMAwjl8ul0+nbbrsNDpLYqQDQuSGFN8H4a+eP6lP8t+RfyBtt27ZtcnJy06ZN4CHBbhCWBwTs2LGjp6fniiuuaGpqgm/DMDRNs1KpPP744/PmzVu/fr1pmhAPggD7Aw88cODAAcMwtmzZsnHjRn2Kb+q6biqVQgi98MILL7744sDAwIIFC6688sqOjg7ItSqlXNfNZDK9vb2PPfbY4OBgY2Pj6tWrL7jgAmADSilN0wQrNooizvmbiVp6GqMnXaVkS1IRCilNKFGyLAsAp7WG7eBsAdMefCk4Gjg0CKFyuZzL5RLcQPY/jmPLsgYGBhoaGiALBaeu1WqmaYJnliQzYbYYhgFzI4EyTBIok4KDE0KSEr+5NSqnMfqmgumrkHpSy5ziuifohG+BW+Q4DshO2BnkpRACUDsX/aCsweMulUrFYhEhVKlUstksEEQAwVJKwzCg5sTzvFQqpZTyfT+VSkGZVDI3MMaAyMSRJ4QkW5I5cxqjf5Ej1lprTAlSGlGMMIpiwQ2G1VxQzrl/ql4HuQhpjbRGGCPArlJaKczZnyL4VQbD3CEQAU+MEILxyVMTjChQlJIfqVMMH/IKGWUu1HSsMCEI/gV+08nokkR/PLXgb0Tg8BQhpJHWCLZjEymMKUIIoz++YIUQRlorKWPOKUJESkwpfs1be81Z/edoquTykh/+OUd488lRlQgVQggmJIxCzjnF7PWg+NrcvCiEYOSpYtCTjzKOIiCRJO7zybJ3jBFCSqu5oVZCCFH6JNYJQVqfBDrGgp188nCK5P0RzMCPfZVEZ5TNueZXdiDolZet5+xANP6jGfnKv+GpDwS2nzwU50prQpDWEu5YKYQxgSeE/2QavAaS5tzFqza+wTR+46O9OTEqUCyVZIQJJRgmBBOpJCVEKvWaD4hS89VPB2GEkEA6waXUMgngM/VH5LcEjq/3EDESWil9qpr+5KvCWJ4UXgohRBABYEklGT5J/SSYzAVlKOeUNROSvECi1B+9zuSznKMNTn2HMEI0/mMBjhAiSGuEqZSS0lcMG0q51piQ14DRXOS9sQ+afP7/UiT4ZsszYUmQ0oQwTqiWChPKMEMaMTTnVb3ygDVWr378p96xTt4jRYQighHGGhGMlDiluwnCCGuFhJSJRMT4FAA0klIpjhXG+pVtiGBMEKFKIYSwBmWqCSFaI6IpPsU6f+U4CGGNrVN5I61PKW/gqFPyRxrh1F3GdM40mbOHkCqBzinESISQiTAANAEuxlgpidArtvVrSLg/Aevr2cGvKWX/TF3/ZsMoxRRJjRnCGMdCU6K1UlgjzSk8HzAvtUZKYaU0NzD648QMOlWH+YqiTJ7jSf2nEEYIa6QRUgpjzDhNcH9SYBBQwoojhjBNcKIRUlJjjFGEMRTra6SFRgSf3As0sFJK/bG9K0DanjqSQjBrFNgbcJ3qVDpXI22wuTaKRlojqbW2/0RvwIhiz+AG2NiEnORo//l25xvs8Cp7dO4xX4X+1zvgmy5fr3S1VqaxgSnxw5ARQhQiCEUhSXqMwaMBP5qZJ0kkc9OhCCEmCVTEQ20xcN2llDFSnHPTNDHGQRCAX59KpTRCQFmCBD38REoZzXhQ/QzuP3SI0Fpjw4SKDt/3IUp/srUODhKHjDEGzAGMMVME/oWrTWwPxU4CAQNANQJcm8RCCMwApTUAVGmtUUQQQpjoV54X+DEOnd/WgbDWmr3K+nwDn+nPFIRzd4aH///KZ3qzYdT1Jk4M9YRaYpMHcYQQIlJjhAQxdCLkMIbQppTSi4OkCh7ssJO6Mj6JA845BEeBpeG6LmCOMQaIpJTatp0QTKGTGTBFhBDlySnGmGmeRCQAlBCCLRvirIDRV9w9GYPGhHp8zjn0KqsrNuhQK6XCMAyCIAgCQGoQeokEJRpRQjDGFGELW0oJrbXSQmuF8Em8UoPDEyAEnRS0GCOEGtLF5uZmxkyIkZ16DskDw3MF4VxZqOc0AUCnmv7N3QJ/oR1L4oO+sSP1JsdoKZgenOibrJUVI14cCiFUGCspQ00TGQk1FeKknGR6TiF88j5ijeZm8JNHaVGulIJcJTCVoPAjiiJ4tRCw5JwDH8+zBZw06fkI3+JIQbQ1CciD3DVjlmAUhOhJ+FIyl1qQ1FGFvg8yESNEMWGYAEyJaZ+8RRlrLTHWlFJCkXYwxpgyTCmFMwBYz3EXx3HMmXXqak/CMxHYcwO9r9LXc8GaYBTUQvLckm5qSYx5bvfM18DlnB5Br8YoZNIgsEwphTwKRFsg5gx9CZVSmUwGur4kXbvgt1AzCfouCAIIa1uW5fs+XHqSiUlmGKgz3/cty4IXD3eYhKMNwwjDEOqB4OdweyCc1CnHWSnFOd0TjT3Yu+1EbZRmDZvT4kzUVlGGna/meN/EqIqUcIxpHSFkNPg0NFUSk2cGpwaNZYQZ1VproW3bVrFmiGKBCMIyiiWW+bpibTZMOynhBUTJSq2KDIJPNRJTWgutYq0CEdjpFJ0kNRGa2QxjTHg+joQQEeGEIwNeJ4eAv1SABqlOvnJGKMY4iQmYSpm2VQuCauAxy5YKxVFkODaveAJhO5PWKK7NTNimZacLk6VanirHMInlTPquYRgtRrqIWGMmn5upTDeYR8rjUulS7LspyqVujFh2Tf4SrR3BMEM+kiaKiWL/1w++P3K878YbbwRSLEySL37xi7Ztv+9979u6deuJEyc8z7vuuuugiOXQoUO//OUvZ2dnly5d+oEPfABoit3d3du3b3/uueeUUitXrrzooovOOusshNDExMRXv/pVM5UulUp1+UIsQimlwfj8+fNvvvkmJMtKWMpMxehP+KOGYUxNTR07dqxarQIgQD2B0kEIeZ6Xz+dBBgVBoJRKpVKQJwRSWdK466TBpBRgjrGTEiuVSkFNDwQyLcsKggD2hFMkgieRTADKBMrJ0ZqamhYuXAgJGK01pbRBp0Ynxge8Se4wZyaoi/h7N24puNobqrhpUsstGRofPTQ7Oi0ClEGT0kOuQFpTwilhSkgZRFLFJjewaUZCVcZnkOVQzjnobkKyCE/MToZSzZamLcqFiBDHIoiQwohQyzCJRlEklAK/StpSi1iLUjUMfCRFKpXBSoW1IKI1ZNsEkyDwkFKIGxCV5cSE2xenQrBIaYxxjWCmwtAPKCaq6qowMgkVpQoq2FGswukq4iSTSzGCJyfH61rmz0RTPkY89ut52pmNL1rS2ZEpGAp3LW075k2vzvszpekT1cmnx46Q+YX+2PU8jxCipQykpiYhjI2NjO3du/f+b3/XcZyVK1eCINy6desXv/jFhoaG9773vT/5yU8effRRy7Ky2eyqVasIIT/60Y++9KUvMcZaW1tvuukmzvkLL7zwt3/7t0eOHMlkMq2trffffz/G+Ktf/ertt98+NjZ27733KkKx0q7rUoYty4rD6Prrr73ttr8JlKXNmKMKQ+rVGAWqDqXUsqxUKsU5hzpd6OkKOADjDAg4QohisQi8tVwuB9YYNPGqVqsIoUwmUyqVoBRdn+q8Bb0zIbkM/ocQolAoAO0IunDFcQzF5tCwDoQoIQT8D8h9J+SJV6KPHmYG96SfdvWlTasuaz1ztmdybHjyjMYFvo8E0U3cWLJ4oTm0f89YD3ZshNlJA1FpFElDIq64rkSM0tZi0We2UjgOFdYs0jJtpgq+ZwaE22lJpV9zmW0Ti01UpotGXvphBhlFM2OaOApChikWtKw8rzQrDWLb3DAtA5NIKoNx2zaFEEoKSk1ucYKoECLClFKtlNYIYaw10hJrSRTGmBlphBA3lMWNKIoiTWzbCEPtYR9ZJjGtQiYtQ1dIwVM88KsayRALUYmX2YWFKCf2DI2yifnt7SdKY5riznxdm89XtXSYdnp7MDRD/XK5TAjBjBKpCCIIq8bGxg0bNjzwnf/7V7/61c0339ze3i6EuP/++8Mw/MAHPtDc3AzAEEI899xzt9xyS2Nj44svvggaH/pkjY6O3n333YcPH37/+9///ve/33Gcl19++a677vr4xz++evXqCy+88LHHHlMaP/PMM//nP//vFWes+uLnv1Ao5KD9m1Qul4pxO9R/0hkQJkGhUBgeHnZdN5GIIKuASX7ixAnXdTs7OwFDCKGDBw9yzru6uhJDOI7j48ePh2G4Zs0aABNo59HR0ZmZGYSQZVmA2nw+v3btWsg1Dw4OhmHY0dHBOQeXGWztarU6ODgYBAHIZjDUWlpampub5xLOhRCI0rDiFv34rMZ5l89byUeFGFcXrt/csHBxJmXPjIwe2bsn54dXLzib1sIDY72BwxBjAsVU6iwyz2hqX9zcrmvBzInxt553abFY/PGDPzl49AgzDa6lYVs5hJuzuSXzljc2Nu7bt8/MWWXtO0qOz9ZMiZrrG5fWt+WRNTM2RTSRQlbrCyRWZRIJA0kpVRBjqS3LZBXf5tw0U5RSIZQWilJupDKeXwMzjRCiMZJYaqQ1wWZIpFaCGkEsEUU6y2ex4PmUKUMS0ajsYc61Vp5fKxSbp0ZnLaURR212fbGk7ZlgYnTq/Hdc9tZ3vTPfNC8Ow3i20v3Szr7eExd0dAyP9VODJqYXpSRWMQ5DbjmXXXbZ6tWrX3rppSNHjrS3tyulnn32Wc75DTfcUKlUwjBsbm5Op9Pbt28fHx8nhBw+fHj9+vV79+51HKdWq+3bt+/ZZ59961vf+qUvfamlpUUptWHDhrGxsX/5l3/53Oc+t3Xr1uXLlxeKxSgOstlsW+u88847F5gMCKEUkwilkSBseuw15CildHZ2dteuXWNjY1AjC7BzHCefzxeLxd27d/f19a1fv379+vW2bZfL5T179mQymZaWFvAklFIHDhzYs2cPxG6gPwcYAy+88MLQ0FBdXR0wIyGOc+6553Z1dZXL5RdffBG4Gq2treAag/06PDz80ksvBUFQKBSAkVkul5ctW8Y5LxaLcBbwgqdTzJRqo9P49o6zzCm5a2/vTX9/x8ozV9YwshDq6lzW1jRv29Zn8mljeV3bgRNHKOcoFgghUxNb685s0/XnXNpo537+0C8vXXFBx7y2B7/4Lae30thYHwmFiG9yw/HVBZtXn3nmWS1xtmesT7njaZ/12cw2nJCRsemS4lmteX1Ds9Z64PgfCFKmTSvlShAENjNkrNwZF5OYMYYQUUoxahiGEcfSdV2HOzCZMSWJg0IIQTVPI+Tk0j6KG9vnOQ25wZmJTDaLXR+HAmFaHS1nmzK1WHuVctq2TE/VvLAhna7zFSkHV1x11c2f+JiVdgKEkFA2Ix1dHT+5//tGil2wYOmvDj8vG2QQBBY1iWNwxBEKkVLFYvHtb3/7nj17du/evWHDhu3bt4dhuHLlyq6ursnJSUJIQ0NDZ2fnL37xi9nZ2enpadd1L7/88p07d87OzqbT6b6+Psdxzj333MbGRuDEhGH43ve+95577hkYGAiCoFgsKqQrlUqlVIZIWRgEpmUgxBDKgrtEm5pfQ45CXEYI0draumHDhnQ6HUURY4xzDg2I8/m8YRjj4+OTk5MdHR3QcTOJqoBhMDY2Blq7p6dn1apV4EL5vm+aZnNz88aNG4GIWalUduzYcezYsa6uroQrOdfdS9pvGIYBpe7gVNm2TSlNp9Ngm4LdLKWsyGBxfUM76ejEuef3Hjn/iquXrFtZiXxKrKAWZGx7/sozziGyu+8Q1qzY1OyGcRD5WiuDMxVEPCKL8m1LmxfsOeN4LYonp2Yt7my55LJiPjs1NaGUmnaDWhAuW7JqUXvX1HR5x+H9pcib8T2KFRWyMjbhKOfsNZ0LOtsXLlxUc/2Z8uSR8YFSuayRRiEKvYhqkrMyLdyWShFCDMuglEqthBYqkxvRsVIKbFCEkD7lJqfq0zIWNmfpIGyNrEKYZqVZUo1ixprMxvfceM2hY4ee3f/8rK7KUDKGXAM7mSIOZQ5ZuULqbddcnUo7wUTVyXJiWpUgYMVCx5krDr/8Un2xDlMKfaYopRIhjbRhWQgRjsny5ctTqdSDDz545513PvrooxMTE5/85CeTIJ3WevXq1U8//fTvf//7vr6+arV6wQUXQDAOIdTf3w+0RkppJpMBsmIqlQIXXAjhuq5hGJwy0+SMMa3Ua2apXo1ROD3nPJVK5XK5efPmQbPWZMGAWq0WRRGwxXbs2FEoFDKZjG3bczmLw8PDMzMzy5cvj+N4YGBgaGiopaUF5CtYq8BFP5kZohRKHWAOAFLDMITZAqcGSyCfzzc0NCTktCAIwHSGYwKgU76f0TikRq0aTpa8M9ef5wZRncUCL7DStlao7ActCxZMjA3nlVHPM5OT/QJpTRUlxECMYOpW/UPjh20nTZkxOT2bKeTmL1ogo5AHjtTCIQhTUizkSrPT46MjfX29XlYFkWtLkjXtNqOwadnZt11/c5qnmJWanJ7qXLzg3p/9aGrP77nSWpKo4mft3PKOJTef9dZFizvTaae7+8iOXTsnJsaYxVKp1NbBQ1pirBDFBAOrSSNCSOwKgzDTpzbJFmZZV0PTlRvPlVp1z46nI/OqlZdcefbm4eHhkdkJZJq1Ui3CaH7j/MIUp5WAZAoqZ055lYZsFmEfKYViiS20fvU540d7pqujmWwDMA8xp0qhilcpco4xjbC+7LLLzjvvvCeffHLbtm1bt26llL7//e8HXzYMw/Hx8eXLl69fv/65556Dfhnt7e1aa1iXorOzE2M8NjYGcieXy8VxXCqVhBCO46TTaSml1pIxghCanZlx3WqxmP+vMapPdbCGWjDAO3hCra2tq1evTqfTcRzn83nTNEdHR48fP75o0aK54SSt9djY2MzMzGWXXTYxMTE4ONjT09PW1hbHsWEYYEhA0Y/v+5VKxbbtCy+8ELx7KKRMYuDgYIF0d123p6fH8zyoH2eMdXV1dXZ2AqATDdCITFNK4Zij5XKxuU34omgYyJvmThZJIShihuVoVBsYMyc9c9xTiFiOEeg4EMLQWBF67ETvvmd31Chav2R51a/2HTnee/ioxspMW1KLFGaFfJ0slQZn+nb//rnSUD9fkLOUKBM+G7hZbijDmKhVntv/Ui2INWeXv2WjEZG4GiosHcO0GTEiEkxWK+VwfmtnoZA71n2iLt+wdu06x7FOnOiZGRhAWhGCDUwJwhQjgjClVBNqW5aOFKO8VK02aOfqi9+hKC4L8YenX9z1621vf6YK+TsAACAASURBVN9VZ3at+f2RXYEXEY1sbcjRsu1nw6kSrW/EjRntpFG55uW4rnrZdFpoVJ10sx7zR2cMn2pDB0GAuKYc27ZNCUGIcKyzBWvNmjVPPvnkJz7xicHBwcsvv7yxsRFegeM4lmUtXbq0vb39gQceUErdcMMNhULBtm2I5HR0dGitf/e73/X09HR1dYG4+fd//3fG2Nq1a0919QdZExuGUSgUEMa1Ujmdr3sjjM513svl8sTEBNSFUUqB0gtrZWCM161bt3379kOHDjU3NwOmAXae501MTDQ3N5umuWLFioMHDw4MDEBstVarwZ7lcrlarYJPBko/qciB2DWYxTBfwQMzDENrDdcDxkBLSwvcJ7hWoH1cqftdMeLXFpn5Wmmg58Dz85dcM60ydYhWdWQwM61QrX9kUvpHxew49jg3/Vpgp1Io8rOSTvSf+M8TJ7xKFcXmH3b93q8EE+XZvvExu1hAU0gLKUTwlg0NB/p7u48c2nF4T66ttSQDjJ18HMccl+No/PixF6YeONbb7SttEosMHe0dPlaVwkA0T6g02GzJd2vy0GjviumR4V3bIze86h1XtzU3MoKOFJsGn9+OtEJKE6QJwUqpSIRBFGlEA4RCEUdCSk2nJ2d0oJpbWpsdu3fhwMt7djfveWlVx2KOrJp0LYOVvIgrFNlkrEgyRHgvHVv0lgaZSZsyFplUSUQ5Zhzq3f/Lg88GDRQRV2lkmhbSWiPMCYb0PucUIbRx48aHHnpo9+7dhJC/+7u/g0VOYMUpIUQ6nV69erVpmlEUXXDBBSBrIFC4cePG22+//Zvf/Oatt9764Q9/eMWKFffee++Pf/zjTCZz9913v8K6QgQhLBUKI5VGzMkW/gs5ChoZyscWLFhw0UUXQX1CuVw2DCOZIggh27aXLFmya9eunTt3gvSu1WqGYVSr1bGxsaampgMHDiT2ZW9v7/Lly8FUbWlp2bx5cz6fh7YFYM1cddVVEIKFDkqQ2EgKJwDZXV1dF198MRhqUH2BEIKsoGVZYI1ENpsUQV95sqE5I7jetfPFeQuWrFyzCkUKeBayGvX3Dw4ODVeqNY0piWNKqJRSaeRT3VuZsjTJZdJWU/2///ah2nS13Mybliyv1KqhH+acgnb94+XRnzz7KOdc1jtVFYQMe2EcBJ5ZsLSUkxMjg5XS7OSIYswXpO84mp4ZkXGoFfKERAbDnLYtbNl88ab9e/b+9ulnLrvo4qWLl5iMTE2MuLXKyNgoUhpJRTAiCCukhZJKCYPbCCGJtJQ6EHp6YnxgYMAPo4VLu9K2NTk5OTgyPKlqBqai5JFY1lF7pjp+CJeakT04PLT1yWeKra2NSxdEXmw7HAt8cMeul1/YbXJ7THrHZqaW5pZijBEhGBz8V3LC8Tve8Y5vfetbpVKJMfaWt7wF4KiUchwHOqCfd955hUKhVCqdddZZoAOz2SzowFtuuaVSqUD7IKh1aWtr++xnP9vR0WHbdrLYWktLSzabdV23rq7uT7Ojr5ELhUSR7/tQKQaAgNIcdGqtN1hvYNWqVRMTE93d3el0GuKdGGNoz1mtVpNasHK53NfXt3r16lQqlSTN4at8Ps85r1QqU1NTuVwuEZxJvBP6gNq2bVkWgBLmcVLlAydNgq8BwdPC756ZaG1srGspDA4OPPbzB4PRkZUr10cUjY6NH3h5/4meI/3lMZ+oyfIsMUxCURRFhBFl2cNuNfL8Jt4kpmvjU8Mpw1F1uKZdncdOIROHseZkTJQGDr2wYOHCyI4HRkfNlBNEoQ3cDymxFiaTuQxjlkmE9iqjsVeyKYliFcdKU0Es2rG0bdPGC+87+v3KzHQ+m9Fa9vf2VmenRBCEIsZKY42w0hhpRDBCSBMKUoNSiiiDNxJ4rufVVK1qUVKrVXoH+0jBIaG2qtoOFanO0vp8YGtdSMUu+cMfdtJ8unPDmauWLus5dGRqcGzfCy/2Dp8IimQ0dEUx+5rkTo0QsAU++clP7tmzZ9WqVZZlQezPNM1PfvKTQ0ND6XS6o6Pj3/7t36rV6po1awzD+OIXv9jS0kII8X1//fr1995774c+9KHnn3/e9/1Vq1YtXrwYfGh4j5TStWvXfupTn2ptbW1sbHxNlslr5EINw0in09AGY2xsDGprAFjz5s0DfJTLZc/zbNtetWrV5OTk9PQ06NyxsbEjR460tbWdf/75YDgLIbZt2zY+Pt7f319XVwdpJ4hqwWJFcBxwfSBlAHYwSFPTNDOZTKVSAXtgamrK932wfT3P6+zshERAEupXQiFuTMTu3tG+tan5rM46Onx06tGBp579LXWsWbc6ODYUE0EabFxnkpDjQGutENJIYa9WE9XAYIwwvsAputEoiUJmcklRGAlNMUXYpYLYxKuGU9xjjEVUUiwppa2NTa5WKvQp15TqwJ9VvqYCN7U0Wz5KIQuFsVaREEoyncqn6tNZorSMYhGHvucqpWzTYphIoQkhDGtCgLd2iieiycnMMKUMKUIRpdjkBhEiZZrZbMb1/aaWBn+qUlBWRyazfM1SXEjv6zs2ODwqU8WI6ie3PlU8smdbc/PRo0cjKTBFJGOOht4xb0i0pl8vew4zf9OmTRs3bgTnFTCUTqcvuugiuCTG2PXXXw9vUAjx0Y9+FLYbhgFshHPOOWf9+vUQ20Gn1pdKMvILFy687bbbgLGQ9Kn8L3Q9CEtAUtLQFS7lnHPOgQA7zACEUF1dXWdnJ6SLgiCYmJjQWre3t6fTaaBKUEo7OjrK5fLIyEhrayug8MUXX6SUgkiuq6tbuHBhS0tLUnG2b98+aKQIhblXX311XV1dPp8/duxYT08PwFcIAYGMlpaWZDlDrTWPFSdcG8aRieHICOenG7N1bDLwp2sD3mzoxqGHwlmvPNFTqRkxS/MgEkJJygxLUx6rjtZF61asamtrT8e06PGhiZGS9GKHhbISa5ItFGQwE6gI2RwbNJ3LNkZNOpBU4sj1I42kH0VYaYwI45QQzqmUOvRCbRqcsjAIIj/SmCKksEJYqCgIgyDSGpnc0EilbOcU/ZQSrJVSCJ1k+HPG8CkGs4pFFEVB6PmBF3k+1gpTkkqlGSZckiXNbVuWr1tz7jl1dXXD05P3/uzH+3q748amfByZ5dk+WY6dODBwlYky8Ub8kqtqpKYkl0oppJSe0zYZIwSvCVbtKZfLEGcEGyzhVwBwk/ALBH8gxpTgEp1a0Q9EEmAD1vRBp9pZJnSc/9oeRQgVCoWzzz4b8jrgi0B0c8GCBZlMpqury/d96EYE6SVw8xFC2Wx2w4YNgOMkmLVo0SLHcSAcvWzZsiVLliS1vIyx5uZmOBRCqKOjI5vNAtUtjmNwwpqamkZHR7u6uuB+oCDdcRyMcX19PTRfAFuWMWZIFNY8wpmnSa83O+0HRTOdJ9wgzFU1TwR+HMyEtYr0bSdTyBRKcU16gQpjg/F5qcK6jqXnLlphMPP44d55hVZq2+Xh7oBIms9yakjDIaEb+h5hzESUCiXDWLhxxskEJVfbBlbE88WsEVcjoglGkUhlHT/SgQ4dlhFayTA0nawKFcGsrlCfzeYtO2VaztjgUFgrW5ZNKeWUUkIpwpRIBWFIjEUsEEKMUowRJhprLWPh+65QiBmmV/NyCzOzUzMW5RnTbG9u3b/vwMKm1uWrVy3vXPLrvc9P0rDDzNQiorwYZ+2pMBhTnscVtlmmvs402NxV9l5V7CWESKVSsMYkIAxeKzgqkBEFIy0BruM4c2OIsA4v5FmgLzskERMGY1Ko/arV/V4bo0B04pwvWLBgLu8fhDBsmTdvnp6znlU+n0/SUW1tbQkHClAITbYymQzQfBYsWDCXawi+UeIALVy4cOHChXOvBG6goaGhpaUluWdoVZzMuWQRTimlwjpUQnGuiKkQGZmtjZRnUppghQzGsVB+FEqsuZWRvh7rHq9rqzcom3VnZeCTTDacqfQdPh56wcxMZXR2rEr8IHA1ZxohEUs3CIOaRIKblHNF/VKtNDmLFUaKGG4gMM2Y2UULl56/fHnVq2DGVSzNUG0rewPTE2kTcUqYJBYxK5M1r+I6Tloj4vlhKpNLZ7NuucKpQRHVUimptUYYIY0VwhgppBVm/CSv6lTXNIy1jJUSSodhTBGtlStSRJPjE9u3P+8F+hg6cOj4seNjxzNOClvGNIkmhU9tU9Q8TYmyCOOGQtithSGKcfNrLzWZLC0J8shxHHhr4CpwzuM4ThaGTNwDyA4mDENIA8ErhgwRRGmSfRLGBSQRAbuvi9G5a2MCuiHTA80IoI0bCHxIPoGWB0cPspGAKrig5AbmNs+YW5MOzpNhGMCJhIxRciiYCUn4CcxTuE4gqSR0J8A9pVQZ1Eg72qWq6kckRVOOJFQKJRCNIomVRsxAiCBNTMSyJitPT9fV1QeWgatSC1mtun42yOULNjY402XsTg1NTYwMa04d6lRmqsqsNy0bo4hpipEyOafELFcrC526GSGNjLls+dqL3/rWslfxpdQhdqL4V/0ndk+MCxExgjkmROLpsenu7h4nlSkU6jwvcP1AY4oxJoya3MBaaykQOlUrQjDGWCJNKcEYC4jTqRhSa4e6j01GbqlUqpbKlmGmbUdjtf/Qyzx2jKx9dGp4PKrkDbsURTPSo3VZRah24zo7zZHyQ4mYKTCxU87JfB7QMxBOik9BWEZRBHGYhI9GKYW+FQlnFPx0iMAkK0/AS0m2JF0wALIQRJrLLn1Ns5i9Zh1JoqkTwxY+ANcpYfEhhAA0c43cuezUpCt7sgNkhuZW5SZqIuHMJtc6l7AHkIVO7wma4REkHGSllI3sIIx8GSObp904cENJcEAFijxu2SmDS6mqIkYCcUqjIPSYzJf8gjYryIu1uurSKy5ce85YtazjKIfReGXqc98fGXTLVKOQuNohwh2xU/m6ukIcu7VajSmko7jOSo+Es/Oy9Wh8Zt9Lu0kpCoOg4rnpXNZV1cGRaZMyaUVeICmv57Y9iQafevSR6uSMLJV6B47v/sOOnC9JHNUIxqZTCyvU0jSSljRMzYPQZRaThnLDkGCuNDPMzOxM5Q87d2ZyuTCMx3qH6gL14osvVHNsUgezYdjR1sBC1ue7MmPPCuaJipBBS66+UvaEFRkZIw6mA5PF9QVeE1xGfiOiKcsL/Tr7VE2slowbFCOCCdD20KnF0kG+AM0IAACESZAaUspkIXSQLwBfkGgQJUy+TUQhNAJK1qR81SKo/908fAArGMtz14WHUg1g380lcicyOJkAYJjP1fVJy08wqbLEyEta06RULVtO3ookczXlTnlwTJoOs2yLUI2J73oOYRwzrEkkwkhLO23W1aUcLqOZUdu2OWe2gVK24VgG1kRRGVkq09hiGEZs4CiKPIUDTDAlMSEoYw+VphZmW7rHh14+fCSOovqmxlKtmk6z8ZJnZ9LpPPWrE0EQ45hWAu+R3hcMhQIWjwwfKT/0g04j21ZfPx1WC6Y5PVaKUWzZTkWFUuOYqlhKXpPZdE5KJWIZxxL54fM7d3OTBSaZGp8KpapoEaeNsu+nLNZXnkZuaGYKOgj9cskwUIrb4WQ16+QREt5MNUO4o/nsRFAgpm06UxFKkCGVRuSUMaa0VhJEYNLJp1KpQDYH/sILTdZTBYECfd0SzQlyB9QgOEawMurJUMwpqv/cI/xPYhSkY1J4eaqUmya0ZSllFEVAUQU4wv6e54HpCZEmy7KAKA07JE1mwjhwmBFOliQLcw1N1Ynqsvy8opKFxlbWvHqof6AcueUoLMV+KmUHrkeg7yzjEaqOTA7u2/sCHj7R198bEl1vpITDS6UxSlHayRKDRrZS2IpFHARRHIdxjDAyCCZIY6KE1Npy7JSVaSgUR4ZGK37VzjplvyQoElgLrbDBTGxpi5eD2kTNcyenWNqixBkbLR90Zb2TqskgKE97phBaMh4qQkOiJdUxUpyiQpYEXjhTKZnMDOPYKUWUUoqRG4fEsQXSoedjjKXW04FLC6asTq9btOrS9edRLYSSMWZOvk7GHsKi3rCqnhfl0vMLDX2jx5+aOpTMcyllglFI+4FJCuzPefPmFYtFrTXgFeqrwCQDHc05n5qaqq+vh7C367r19fXgbw0PD9fX14PIDIIAguWJ6gaHBxTjq6zi/26MQpgT6Ia5XK5QKMDE6u/vB1O4oaEBJi7kVGHWgu8/t4CEMTY8PIwxbm9vT8pLOOec81K1TA2eNY2Uj5c3LNmy8pzmiFU8yRgrnnXJvqMHXzi02xG10cpkjCXxiRu51DScbEa51bHhnumowv1ZZFthraJR2qCSElRzXa/kuySqS+eVUgppgpGNMCYUK40Ukr4opnOd8zvOW7HumceeqMvnqp7bUCgIS+lZrxJUWcQRo4wb2uYuKiNJOhcvMIvpo/7EFI0Cpkq6Uo7dMp8ptLR4s14UB3aWaUooZ0gh3zFqCvFiqszDbCZbrbqkLkcoNYXQNBVQxEzDVtqgJBQxkkZk4FaUW9a+eGmuBfmh4djZ5tb+8Ulm5eob8rYvuieP1Te1XLDi7G0YPdG3W6UUxhidLCvFSglCEKNEKXX06NHPfOYzBw8ehJV2ly5d+ulPf/r666+vVqsvvfTSDTfcUCwWf/rTn65atQr6Db7nPe/ZsmXLt7/97T/84Q+33nrr9PR0NpsFUG7evPlTn/pUV1dXKpWCaMzc0rzXW/rsvxujjLGDBw++/PLLURR1dnZecsklsH7ws88+izFOpVKbNm0qFAr9/f0HDx6cnZ0F6cgYA9oi6ALG2J49e44fP15fX9/U1ASYBgT7gZtqLMppg9WCi9uXX9Z1wcHn9xycnNly5dWGaf5+29as43zw6ht/ufXJiYnRbF06DFToRVopnrcLhVxjfS6fpm4UTQdBHCpmG5ZhkMAPQ0EpzaQzXlzDlCBCMGUKaaQk0koTna3LG9RwGosPP/u4UP74+HhdXd3IcE+MxEygBdXcsSI/qnoezdiYI7s1PVaaxqVSlMHSIJgadXaOlQwz49CQ2dlUS3trWZdOjPdZaRMLLJCkGOUz6fr6ehWpXH2MKSKc0RSry2VGS1OBDCVSJO9U3aokXFYCxs2Bnp7a1JE8t2ODnPWWixszhfntrZQTOVWKKwcO7zqwMNfAFQ7DADLPSGlmUImUlJIRJKR6+vHffOhDHxodHV27du3mzZt37tx5+PDhO+64wzCMt73tbUA/n5yc/M53vvPlL38ZfOiRkRGoY/M8b2RkJJPJLF682Lbt7u7u++677xe/+MWePXvmz58P6v4vsU8JMPGg6/H4+Dj4QBD5B8sStHlPTw+w+xYuXDg2NrZr166enp7m5ubGxkYhxKFDhw4cOAB8xOSwQNGyUnYcRtiLLl6+7m3z1nc/t/vcNWdfcdVVZiqFKLv0ync899QzO3a/eP6yM5lNf/X807xQpNwIhQgrtSxDUkoZhaXSNHbyjGLDMBTSNc+PQ+LkbDOTUtkspQwxjvDJQlOCNUE4CjXP5B/d+fvqTCVt2fn2+gOjw+l0mlTDGDFEsGWZgcGDamgig3E61YyZQSxGQlGzcO6Wq9971coLH/7+j3fu2z7RO3v2medff8P7nz3x/Ld+9X1iYkHIClrXXNeEIpU106NDIy1tHWW3mm8oZHKFDevWuEFt38CRp15+PhQBiXxT63BesTbo+uXYVA4K47r6pgsvvGDpmnXMQLO1SlrT+vrmR37966H+AdVEsXFyXQCkFLQxgzE5Ofmtb31reHj4U5/61Oc//3nQ/jfffPPjjz++ffv2d77znYk79d3vfvfaa6/dtGkTkISSjulxHG/evPmHP/wh59zzvDvvvPOBBx645557vve97yUBor/E2mXLsjKZTENDQ61Wm5iYaGtrGxoaAhosJJCSEtP29vZisZjJZIB9ApmMvXv3btu27YwzzgATaq7tIoSIsbYicV7Dwre0nDF1bDBbrL/qAzcHoUAWiaXglF10ycXFXHb34d2tmUKjnRmO/BQyGeFSxFEYRV6M804qn/ckM4lJuCEkIpgVi/l0IRUZYmq2zJiBqIlOLfZACKYEEWoMDgyISOTqiuWJyVrgZnKpMI4ytmlIFiBfa42QopQy2yRmJGlFGpFlOI5VYBGzkXX2wjWzZ/T//leP0SnJpnVRZ5tyRYtzjRWj/KYLrzlj8dLufYd3bt+RnkFLOlt1li5csjDLs1evuJhlzb0Dew/1dR+XszblTqiHKyUt7Hy6QHxVdatXX/7+FWevRQQhhSzH5oSffdHGCb86cuTQdHkqVuEft9BTBmNIqePHj7/wwgudnZ233357uVwGcwtKmkAoEEI8z2tvby+VSh//+MefeOKJpMmAYRh1dXVa65mZGXAw0un01Vdf/eCDDz711FOw8m+Sl/qLw6iUslqtLliwoFKpzM7Ozp8/f3x83DTNQqEwMzMDtXuw7NAzzzzT1tbW3Ny8ePFisDWjKEqn029/+9tt2/Y8D9JrSSmpYRjEMhYUGuXUxHxt9/tT77z5lonAyzmOh0JCuUTIRGjVilVCBLu699RlctPI1VWFhDItk2ukFELESOfzlnKYwBGzhVCaENOxRRwNjA2ktYOoJEwgYiittRZKSYkkwtjhZuBFUTmotzJKxinNZ6u1igqonaOMnkqlaMYIMQ1EVFtLzp+tVQI3bRXLQdg7OnG0b2jWpLTgPPXSzvAHP9BLMCIaS8m1Pv+si1YvW0Uq7Iff/JFtOzMTtZaOeSmr4GJjaLK6wLJQtjCM1ASTKGd4lRhhkUuleY0wggutzevPO1fIUCGDVCOeM12/5liptWevFaWpvr4+2zy5Ki7CWCMktaSEqkgODw/Pzs5u3ryZMZbL5V5++WUw0gzDyOfzV1xxBThPW7ZsGRkZ+c1vfvODH/xg48aNwDhRSlUqFchZAledMbZhwwYgp/u+D2Wbf4lyFChbURQ1NTVNT08PDQ21tbW5rrtw4ULgjEIe4swzz4QE/f79+/ft21dfXw8LICGEWltbs9nsxMREkpNI4iZa66rnNjkmz1q2LyPfwrzOxNpUJSRtxJWrQ2yYCNPAc+NqlLWKaqamKdYqMr2gkC7MW7Lu/E2XlgdGXYfwiCKFF+3qOTi5q0QqlrLn0XnNhVRjfcvLew8uXtixbs3ysZHjE6MnKIlqiCAlsWPaVjaXaSXUOtLdvXLJqoZUeufeQyORi9N1NO/YnqCCs2w6Z04PBSprszaFJvySYaV//YtfjHpHL7/0nao0S3UQWpXdhwdRYFKTCFQ9MtG9cvH8yaHugNRiFB/rOYhwpGya1vrxgYElK5e+XOvnsUAqRFjhXAYJFJZCRgvIJHZLi8hnPE41UkaOKaQM29BKc9NuW7Bo/9TRKNQ4FAwTRAlGiCOCNCIIc/Nk+wLHcarV6pNPPvmP//iPwBBtaWkZHBxM8tJ33333/v3777nnnq997WvgFkOUBrKj4IdUq1UIGgIM/hwJ+j9mj0I8rFAoNDY29vb2Hj9+PJVKNTU1DQ4O1mo1iJLC0q6tra0zMzPT09OHDx/eunWrlHLZsmXAyoMQFfj4wPcD1VMwUmEkWF22QoKxmeGx0aF581eF/qRpZ30kg1AaVHIvdF2v5nvlyqwMI8dxFNIi8gSjNJMNDGNKilogU8gKI1klWnLCTUNXIhShJpZaXNc2ZY9devbG91131UD37t3bn54e7xO+TGVT5Zqbb5j/jqtu8pH5wIM/ibWc39V+bHR6cLISCYliRXzJPZGJcTipmgutPKrhoMwl2f2Hw+uNxhtv+aCaCAlXPEXHZqfx44+N7Zj0I8mKqfHxycHB4f37DvwfN908PDxqRbq1qdXAplurlGemB43e8Vo/mXTnFSxXhP7kJCrSDM/hMEYVkYoQL/nZfAOSGmldilwLMWIaqhqWRyZ02Stw++Q6VVJqRgkmSErEWEdHR1tb2+7du48ePXr22WdfdtllP/nJT0ql0u23397U1ARLAMA7Xbt27Qc/+MHPfe5zX/jCF6C+PCkuT7jqmUxm69atpmkWi0WwRCcnJxsaGv7iMJp0JVFKFYvF7u7u3t5epVRDQwNYpRjjkZGREydO5HK5VatWFYvFJUuWMMb2798/NTUFigaSpXDzSc8SGKZgg1MTU/F4zRAxCvuPHj7nnFXIrnNjiSnPWZwpNDrcv3vv3v7hIV+JQjYzNTPNKWtqaJIS//yJJ47uO4z9aDaqYUk144dGhqRpWCknmCllzBTHjBNWX2ic39yeM+yMQnJs2JydaMYpFfs0VtlMVKSGy1KOmTl04piLokrVjTWJYskIzxqGmKkN7B4xq1xnDb9cldqVprXr4HaSb3nX5nMqh3pCLkjanKm41aOjUfeMbEghZbc3zTe5PW/+/Fs/+tHnfvv7at+IJWlNRnamPt9Rt2Ttcjqa/fn+pydHx+36XMO8liFZzqQKvMrkWMWrlA/s2nNuLs+yWSRQLp3BEpVGpvbt2zc7MUEIi+Y0/tUaYYyVEISzRYsWnXnmmf/5n//5yCOPLFq0aNmyZWecccazzz4LpEpCCBimwD26/fbbH3nkkZdffhmMVFDlEDoFRlG5XP72t79dq9VuuOEG8Kj+HID+z8SeIMML6h7KBRsaGiAdDO2+fN8/evQoOE/z588Pw3BmZoZzns1mIQkBS8glPJK5bS/9iucRdMybtu1UvjG994VtDfnipksvcQyOEYpr8Yljx7Zt/e2h/h6Py0gjL/TslGVyK4oiKohHgyPdJyb7h2IknFSWFzLlONIpZlhmVcYCCZpJty1dsr+nX9smT9nu/0Pdm0bZdZbngu837PnM59RcKpVUkiVr9IRsYYMHTAghENorueS2Q26TDk1gLZKQRcjYAUM6SbMS0p0VOrjxDXbWJSQEGjDXdhzbYIzxgCU02bJKU6nm4cxnz/ub+scn7VSLdFanLwRcP7SOTlWd2sO73/F5njcOWBp6JhZplEmJLYc6LASCEwAAIABJREFUBsPKT2NOSTeJC5FjIsOiphBScokl4oqnSTKKC9FajzCmSGKm0ghUKuGZL38h67TjOFCEJmCsLM5LKUmixNLgzLGXB2cWm/3ga08/9a3nnoO1XhEZdqFIDNo6P3vMX4tKPHUtYbp9Q/bZAAy8kUQ15Bg4NZL+iyeOkNH6rr0HpECm4YbN1vPfff7U7KtbyyW3XonPMz1DwUCYlIRczu/LpdJHP/rRc+fO/fEf//Fjjz127bXXrqysHDlyhFJ600036QJAzzB1r/43f/M33/Oe9+RLIzTC84knnvjJn/xJwzDm5+dffvnlbdu2/fmf/7nOWXVr/MexZtKPnQby2bbd6/UmJyfz9j5jbHJy8sCBA6+88srRo0cvXryYpqnv+6Ojo1u2bCGE6FQmH7Vptal/xpq4JrfNl9dXHGpf7022L6x85Yt/e+HMyxNbpzGg5vr66dMvrwct1HA9d+jE7DFi2ZZhK6H8flAq1Ke3THscmankWVYYqqtyYWk1GKgegJRERYLZrjM83Oh220HYNwwjyzimbhT0M6S8UiliykaEWHa/2V28eKm5vLq1XmRhLDn3LC8x8YANSMWc3D+DE+X0EQHkJxtWrCoVt1EuhMFCogJX8iI4vuVaDduiDSkhbvUe+dLDY9W6O9b49sOLr8ydJ/3YTVWlVg1T1hVskm1Ut1TDQWxjTIulzDRLDiUDhUwzRXKQRq+ePbPuD8ZefGnvjj2rQWtjcX5tbS2SrIGnmBEReVnvDgiSQhCCCSGaLnLdddd98YtffOihh/76r//6+PHjW7ZsOXTo0Lvf/e4777yTMeZ53sTERL1e1wCoe++999lnn33iiSe0ikm9Xt+5c2e32z19+jTnfPv27R/4wAfe//7359H/xzQf5Zzr3UKFQkHDn2u12rZt26SU09PTYRjqUee+fftKpdL6+nqv1xsaGtq9e/f4+HitVtO4UkJIqVSamZmxbTsf8es013RJLHkrTk+uLhIbhsYL7Wb3sW89ajkuwVQIMWBx6iCVRk3ug0NN1/W7fYpIpVJSGJ9dvFg33elrt4GQ55eXBm0/VaxQdKWUHAN2nfNnZx9c/c+IxxdnX77/M8t80Fz3GXBXOEZrkDIuo87gqae/3QsFkcLD6NWL53thgh1MAGGMsW1CxYaGt6ha9Xo1SrMwMWsJzQaob8e0UoRWbBHlKBwiCiVEbQ8zhJNwYWlRSklctaSg7XDC5EanaQqflsqRBWFntRI2w3PLZYrRGgtZvEGF5F5WMzHBgiqJWKe9MQiDztJyM+2ycAAAnNKNdZLZzKaGXsn3z71RQkCBVIpivHv37j/8wz/87d/+7X6/b9u2RmDqIHbrrbd+7Wtfm5mZKRQKOuP6y7/8y6WlpWq1Sim99dZbH3/8cS1Hp3mRIyMjGhKkwfY5BuDHLtZPTU3p7UTaFjXGGwA0KU/DERzH2bVr144dO/LhZw6P0sCZUqm0e/duDZvVV0cXW2HUNTAZn5zudNsv9Ze2lIZGJj2n5oYJpEnAhUxsuZ4MNuZ74OCxiZGN1R4xTdd2mFQdFnbTfl+6tlGrDldnz65GUnJL1YtlLfCZCi5q5WOXZm+75eb5cPXvHvn7eq0a9gcY46LttTtrlmUUusnXT8yObdlaalRx4nbCvjVcdkgaRVHo+4CpMtVARAyiRLiDNAZKQJA4YH4mjXplmNqUZFzIRKRZkoJUZqFkTA1TDzNKejLpEApFc2RkZMBkxfEGLHPKRWWSNE1RJEFylWFCEFJKmaSdxVaR9nmAI7/glZNOeylag6JhF0AoFPCYxUJQ5JdNjd0BW0M6dBMOaUFHXUI0Gg3XdXMFLs0QVkrdcMMNnPN2u621ZwBA89R15bBly5ZcxSNXJ9XlhHbDP6Y9fH2I2hx1vNZGpp8tjcG7qg+g8xuN69OKk3pwqp/mLMv0Bi3DMCiBNIziKIvDIPacdrhUTMQEWEo5QsgwjsKMZYbiDiFIJkE4PjTa6XUTljKhJwLgcx+HGxCurUJUGx7y++0wjhpWxXWcQT/4btx1avZLa+dKjt1t0NVsYNQKUZSWM4nLNS4zlMWDKOyxUiHjXSOKeYS5lCbyqGMZZqxYnCVIIeglotPDDJmeGV3s2B1cGB0qR1bYjDhC4Boc47jv+2FCphyrUcYpb/V75dqQsDMgtFQur/q+7Ie1WiOQKBDCKLrG2BDO0qRo47JXi1kcpC931xr1KoOQpdFQmQRxjBPlpxESzC0Upel4cVtKtFYYaFgdABCMBAjBOcEIXUEAax5OjgrVLEiNA9Yyv/V6XbOUtEHrb+mf1M1EnQzkiH2NPvkR9/A3AwG1Ceb6IhqRpd9PkkSfp07Ac5VanU3nQTxnuqRpqk02f1NDqKSUehNcxBQHZXsUQgKKKGR1O+uuRZqlEILYThUAxcgSUkgBLEjkkF8ZLrTbCcoIURQUISS1LMN2ESiWRHGlXPfj7vg2j4XdKAsKyA5CJIfKfWMQmJmFhlzkKNGSljXwEDGJ2Q/HZ6rWVKHZ7VmJGjZGFvmabHgDxzHXpRuk9rDZlRQij0bQ6CuRWD3slEgMftgvDVdZKIAJmzrMKJOyKWTIwgRzu2I3nFocJVIlNElWyMYQM31FzPrIgLUsy3YwiKFSWMpgVFFo4WQiWYlRU0o/luD2KY26vQYIRF1pWANDdUVYT7hQOGAUi0peuzAuKMXEsmTKdfGg+0ca8ZmXpxrbrn9AA0n1CJQCBQaOZSdZCAQJwEIo0zAUJFRvGABhmKAgAdAU1x+djV7FO9gsL50/Onmho5+tfC2s7iv9czvJsvTW6zzQ66CfI/lzAKLneXFiFwqF9eNLxVoxDjKexuWtY+1mK+ul1HAyLhWXmCjBBXBesq0sSZDnUEIEkhhhwZVSkhrYNA1sYK2jRqk56AelYsUy3f7qOiABBDmeWywWoxZLpSpUSn4Yj41NuUW3KnGcpp0gycKEBVHU77rby+Z4lfn+IO0b44Y95iLGDVrImhtGizcmSwbYVInh4enXXf/GyDs0VC0QKaNYzf7NF9O5lentE/PnL21sZFOVUTI1KkHZrpdJYUqJJe4110d3jq301gKRBmtrso4r5WFlFTpJp7ZrpFtsr5xeHydDk4bdUnGnhF2mBlEALnVdN44zBBIRkzBmWVbuOFLGZcaURNi2tV6i5kroIadmU+ZLH3OijkajCyQQRhiDCZfV2TFBLM24Yf+LduLgH5tYn9uojshai14jsfUwV59hDpXVRKicNKiRCvrXtR3ra5dTRHJuoFIoTVPHtCgoj5A+Yn2/B+GAFms4lVwoTEjKGSEEURklsRKEUkqJwTCjmCrBGVOGZVKKKKWgIMu4Z1jddr9WH6qUKzjjyXq/2VkZMrzaUMMEHrb6AsG2a3cp15ibm9tgIonSzCC27dq2xRzqjZWxEsnKOudcTUyIhimy1PYaxWEYKxtDo2PnFpZaYQsXq+PXXIdNo0BUMuiPlOyJoZcEfyGLOQFrplwxJRGIYtPiUmSC1RxbclIq2OuDbrXWkMutYaO40er4F7pj106tDodrSdOp4sq19f5s2+gi7Jl+J/Iq42WrkLKE+TFyDCAYRIoTrMeVIJRhGAgRSg1QmAMwxnIqhGmam8lq2nY1TVdnaFJKQbgU0lCGYEAUZllm2CYGcP4bVuzSH6pdXiXKn2eWWoVPpyM5xj4XI9cXQl+RHHWq/SulNAfL6AuXE/c0XJpHScpFcbTWbK1bjFgcXGqWh7awLhsMBtSwqOs0Oy1a8mzb9rMeFoCBKKUk48hGCunMRErASimCqZKgFIqDtMnb9TquNOpBJgad5ipEO7Zud0aNJPBTxlKkom4/7Q4Mr2g6jkFomqSxxMWbZtJBn11Ys4JseLSWOEZ/EKuYsWwFGsUkExd6FyK/43nmXLP1x/ffv3NotO54rZWV1W7r6MI54dobQZQymvTC6Znd64jIsI8KjmVZjG8woYSHY5lwwYdsG9qBx5G/HvfpIN4DRWzgOJImFHYOo1Vux3Dt8Mxyc7VIKWC3nYV9FqKK53ke4kyXOwCa4SdFmhJsMEKcK3cnz8ryKJ+TRjbLcGDAhBCsCLERABjUBABimf9NdfYP24NuLoA4551OR6c4o6Oj2k1GUdTr9crlcpZl1WpVg+qjKOp0OlLKer2umdpaD58QEoZhs9ksFouaCKtTJV17EUIKhkMoXWuugklLxLMScf3wtusnZtJYFGv1tX7nxOzpI2tdUxAhJLIMyJCWpciyzKBcKSVAZJxhRqUARBDFWPN4wk6XAMFQHBmtKcT87iCKkrJHDRtxaRoFm/d71LJTwZUAxyQONce3bW0pwhZ6vJPY08PWtmEUpWQ1pMJI67yHQyiB5Zq1rGSlSYFiLNjnnvgvJbCK2JrataO+a7yIBlnErMxQwN76E2+9KMLFs88pmSqJA9/HdmFxbZlOT7Iw+uX3vu8bf/tfzs9fpBlTq7HpQnG8GlMVDsIhs3Rgz8w2Wh+ihfiAQFJgDHODjW/Pn1ri/YwlQjBNaQSCkCbfZplTcAyMgyD4m7/5m/n5ecMw7rjjjjvuuMOyrFdfffXBBx+0LEtPmyqViia733LLLckgMW2LE7DID8y06L9DfM+NlTF29OhR3/dt277llls0Iub8+fMXLlzQusw333xzmqYnTpzY2NjodDpRFA0PDw8PD+/fv79cLodh+Oqrr66srARBUCqVPM+74YYbyuWyzk0v00UEz1hiFUuEMW8g3/Pmnx3m9txLJ3fs3U+wTYnaeetbb9l1/eMvfPPY7Peq+6+JRYQkIkC0M6YUG9JQSmqnLqVEgKQQpoWx56Zx1O+h6dpwtVLwO7FimBAgBKWKZCLLorBku8zAFBvCj5hiwlTWUk+FklVr8XQtKqNCxCahOG435uhipJKMWCO4RJIk7QX737jj59/xc/59R4N2tOOaHb/wvv/xeOfSmc+cN3vY5FgWccEt/nfX3zZ8YMfLx15ajwe1W8qJ4+y+fd+JpcXzF+ZXl+Y3ZNecLnodxpbCsUW7RQI1UmgoY2RJTk8Xd05t5X60rVEvFgtra2tE0rFDY09f/N7z86/YY5evIXAJJnYsh5oWKJhfXPzj++576KGHNPfo05/+9J/8yZ+8733vm5ub++QnP6n5SZpQnyTJ3Xffff/992+f3A4mdKFvQfk1YKPf33JijLVarSRJ2u12p9MZGhpK03Rpaanb7Sql6vU6AKysrJw8ebJWq+3du9cwjOPHjzebTdd1b7jhhrW1tZdfftm27T179pw7d25lZaVer+/bty9f7YAQkggcbFiDdNIqfPjnfpFuiDMnz7z1bfeMbt06NDoyNze3sriEe9Hbbnojsc2z/RWlLstj6KKVEEItKhEEvcAwLMEAIWkYRKpsetvWuYvzLJWcpUowUIRiixIEIIU03ILlY6QyYbhWtV5rBaFj2wniZhKHNoaGQ00U8kFsCzlawbKUunTEHkrbaTq3YUZ4+Pr9hT3Ts+uX6sXyUGHEqde+ffb4C4Nz4Qh2C1Y85wNXnbWNd9QntmyfbDa2vtpZvvZ15SXJEIkPje8d/w/T/8fn/3I1a1nTNdsp4SbPugHdWVWBmmnZrzemzJQGSXjz3l0Tu3dX67Vz52bHN9bdWoEgObextM6FrpmEEFJhhACk9Hv9l19++cEHHzx8+PDv/M7vrK2t/cqv/MrnPve59773vbogvv322z/xiU+YphkEwcc//vFvfOMbTz311PZf2J6oeHZw5pbyza8lG80JXLobValUms2mhmwlSeL7vud5OjeVUrZarSAIDh48qDek1Ot1DVPQm0zK5fLU1NR1111XrVaffvrpTqejJXfybUapEiLN9o1tvYZWyn1x5vi5//Q//E879u9VFJSA6yqN6/dd/+w//aPbXpoZHn91ZS6jSrPGdEYr4PIL3w8opYKBAmE7VuAHk+OjcxfOs0wkScIzhoEocUW1zyyFUQCcCaZMs2y5ThSHRbccsdgwsz5PTGJNMlkA3vXUvJ11O81VW4iNlnUhGg1da2xkwcNfOXeUn5nvmqlFpQ2t+Re/mo4ob1fJP91ujLt8IfSoc/o7R5783rN7p7csBU0ZmCsmKqSBoq7c0Q1X1t3hUtvOijFyLJyaVpDGu0njFlIdlwW8bcuNP3H48I59ynYSUDcM3Rqtrb9y9MhWp37rdTd9+fS3tbgGsQyhVMqSAibFanXbtm2f/OQnDx48+KY3vWltbW18fPzs2bNarE6Xrbfeeqt2Pfv27Xv66acbjYZinDsZL2Y/yLnPD9U0tYvSkSLvd7quOzIyMjs7u2fPnrW1tSiK9uzZMzs7q6E39Xq9XC6fPHmy3+9v27ZtfHz89ttvz3Wjpqam9AVK0zSO40qlovXMdDdESskRcSTfbtGf2H3DytHWDa/7ie1793DcJVBFvQRV7aaJd7/x1i3Hzy5cuPQItikOKGDgmICVCaYUJzaJM2E65SjtSSqAKRRbe4f2vufOe9efuWQW3DcffPP8/PwzF5/ZVxwbHx0/snQklOHPXPOWJxee7Kf9ncVt+2f2/9OFgT/wb7pm3yu92VJUun7bjdfd9brPHv2bDFaTbB1N1EdWFT+b+bHp76xlw0koB+faG6OZubU+tVjxL4nTIDKraTBarhaHWKczbnmsjrvD4pWlV2bnTvV6PWUYAcuQDV5qwEu0etfuKFzmJLEMkkLQAXsytfdFxphdIsP1m2648dDOA8qCjvLrwoOY2aMjjenp/Vm6Gjf/q2MTz86EgEwQmyCThlHsOdbua3ZfOzOjC4kvfOEL8/Pz73znOz3PC8PQcZznnnvuF3/xFwFgYWHh9OnT99xzzx133JGWJAVnr9r/AzQk/O9QMG1ewqeNdWhoKI7jOI5XV1cdxymXy5d7HwATExM33HDDyMjI/Pz8s88++8gjj5w8eVKLl+Q7EZeXl48ePVqtVsfGxnK6iE5JkzTaXh/dQkq8HWRIju3ZIU1kYlsBcEgVl0qk9Vpp4HcQiN07tiktVANKKaEVFalAWCLFgcdcJaLmlDxpzIxMFjgpKRNFPNzojRRqdbu0d/qaW687ZDJUIg6NxHXbrzUTtWN4y76pnThgU5WRuw+94aevuw03w/0T237+Le+o4WIRFV2z0m/FG+fXYj913ILreobAmAlkGHSoGMJAYEmgWAjLpaZX6lBTgCpgAaRaHi4Tb6Y8ZvrcTZH0Y+ZHQ+dbN+LynWM7777mwKRbKbuFWErpWCVhYA7Ysfoi7Yt0dNuUwCAA28gAJaVJYoDS+HB5pFEslnHALsu9GIRxRYG6riuyTErdikJf+MIXfvd3f7dSqXz84x/PSWmtVuvzn//83/7t3z7zzDPNZlMrQUCmLDBLpPQasNGr1p5u3jZpGIYWeZyfn19fX9fcbT1A0rj6ffv23XHHHTfeeOPU1FQcxydOnHj++ef7/b7+tMXFxWPHjsVxvHv37uHh4c1rFCmlDqEN06uCLf24Hw6Ko40MII6YUMwqusgAlxAEqud3UxbVCx4gdNlMpVSSI6kwUyRVdkqG7GoFPNWJeTu8bc8NN+++/m23vWmiUP/Avb908+6D62fnd49Nv/POnxxzq2Ys3/Oz7z64fW/Dqrz5ljvfcN3h8eLwdH3y7Xe81QOr4ZWK2F4/s+B18ERYmei54z1nWJbHq+Plaj3u+/7cOmolSZIssf6FYLHVbSIfCkmhzup1WaGSRCrxpGGnkrf6M43RUcsdMp0C4LJp1EZLhZpLXOQnA86ZUohxOYhTK5MUUD+NemnEQZVLVYyon0YWmCxOE8klACdwcX11o90qYjsXsdETSwQoTVODoiRJHn300V/7tV/Tlrp3717d7LNt+84778yybGNjY25u7jd+4zcefvjhD33oQyhDIIAo/BqI9d+/r1z7OT2o1cz6M2fOMMZGRkYopa7r6qx0cXGx1+vt2bPnuuuu08DEr33ta+fOnbvtttsAYGNj49SpU/1+/7bbbtuxY0cuH5AL7xQtpxv4XcFKNuq2W+tzF6fGbkDElogCkjxlpklFlFxYWjpz8dK5eBUIVfjKoQqJJcZSkURZA9nt+hXTKXvVTq/59S8+fOSp5185/rJdKtz3u/fFcVzzag/e/+DXv/T1+UvzSZL8b5/81IULF1orGw999nOO43TX24sX5v/Tf3z3hgr8fvepZ57+r08/utpfiFRsCqOcUUkNy0LcEWnoy3YXylQSk1u2oDYCZUtOHUwqBbdQSNLQ4uYpsfblhe9Sl3rbzLA8GkUBx8K1zTYP+glCOO6unWqZjGNolOs9Ekacl4rOoB8zZqAwXZ+9WLnpgGeVI5GaGFzLMgE6zd7c4qWF9XXTti4PQYQihChQjDPbthXA888//8EPfpAQ8vDDD7/pTW/Kdd/15hqEUK1Wq9Vqb3/72//qr/7qhRdeyESCmDKp9QO0LPrvUC3BpsXlnHPGWLVardVqJ0+eLJVKk5OT+bZ0DcJ/4YUXBoPB6173Okppv9/XKykIIa1W6/jx4+vr61u2bGk0Gr1eT0rZaDS0BoRm5CmWLSXBRdZHuIQJf+Xb39o1NVWbaEgFQAjFBBC88L0Tx+cuNNPEcAqUBQSQUkoqoYQECVgqlEq3J/prIaesa0ScsdOnz1ygFxzHWTp/odvt6UHL6uramTOzpVKpUCg88eRT7Xa7UChcml9ot9uWZQVB0O31ScUVSXruzKuMp1bRFt3QdWsmkz6LQjNBHq7YNjILQZZFUWo7ZZ+4KOgJFa3a3SXcK8RVupqyxUFoRkear3QLkhKXmVkc9VxskATCIlCBXOT1+lFG+qAMmREiIXJp3xRjDY8ts7TVeeWZ58artcKuyZAg2/NgEG8sL7z07NOXlucvBevriX9ZCFEpyyIpMANjTIxjp07/1m/91sLCwjve8Y7l5eUHHnjAdd13vetdeo/h8vLy888/3263CSGf+9znGGMHDx6kNkZUKcIR0NeSjW4eWuqhvOM4Wg9as0Db7XYQBJqTNT09febMmUuXLmlFp8XFRaXUnj17kiRZXFw8e/asbnZ85zvfybJsaGhILwTKdzjFQvgUjg/WBcLXTw1fuPjyY498efqaa6Z27iJA/F5/cXHx8ScfX4x6gQ3L3Q3sEaQwSAFSYQAkFUIIC+yvdSxBTNPo9PrlSkXaKE6SNA7rQ40wDDnnCgGl1PHcMI7iNMEYT05t8X2/0+smWWpYZqVWxRhnrX7BcZvtNnXtJGFA3EBKiqRHXGrhhEAvDQqOtWViCpQftDpQbLiClBrFTlEIxoJ2xx4ICxvVAsU0pR7pZV1JuFVAZc+DlA1QTEyTSWnZRsZJ2SmhQBGbmiZphp3Jya3rzYGp0rmFuce+9vXhG67Zdt213X7YurjYWl85t3BuA+I2SZVjaroIcFAAQgqCKSg4fvz48ePHTdP8zne+8/DDD+t7eu+998ZxLKV84YUXbr/9dg0PBYADBw587GMfMy0LACQo8uMf63ME02Z7NQxjZmZGA2TGxsZ27dql5aksy9q1a5fuj05MTLz+9a9fXV1tt9sY45mZmXq9vmfPHq0PuG3bNr2kVDtO/TrflYMxBkqEQoMkeTVbGJsocCtoHXmm8L0jyLW73W7QD/xBT9p0aP92JxNpOG9yooRUQiolEAAGQgBTRcxGfWVlRQlRLlW0XqHivFgosDTzHFffGMZYwfWk7WRZlmSJYVDOGca4Wq0kSZIkMQCYDEjVsMtOxDiWynI8IRhQSEC5RAlI20lfOF61Xi5mBA3icKUjacrLdcQwbATucgIhk7UiPrglHPK4AzxhECWZ7TRFmsmsQClPMylUwjMwAViaJjyMgzJ4EUbzRpjWuOTMlP21E0fJ4ln3W0+1+z0uOXHJGh/MxmsXwnVuCC23BACaz8QFp4AnJiY+/OEPT05OdjodvVFJcyJuvvnmj3zkIzt37lxfX9ebChFCP/MzPzM6OnplN7j6AVY66P87ZP/f2rHfDMbT9qrnmRrHhRDSwdGyLN2c093TXA692WyWSiWdv+qP0kr4GpKiLV7HXN1b1Wv12msLv/H5T31z7eSgt7GzMjJhDZUHxN7IBjJpdTu1coVlWR/SJRxs4EQ6WHZYvdFodVtKCGDKkpaLrOHycLLQHfT6RdsFKfqdbrlQNAyDZywVQquq681pWqifc26YVB+PblzoXTyu6wZK+UFvcstoHKUiUTLmnkmSyGeOa0Bm7W8sm3EYxMpxlOLb7IrtZ00epRPVCFF7PhhuJaws0wP1dLogJAMpbYxZGJfL5YhzYeBYhVknG66Org/W3SFLdeNG3x6caNYD2X7jZL8o6jFtdI19fGi7LAJCLAo6Kk08Mh+sN2myKHrMBsMkPztx25//6n0j9pAwgIGQcejaJYGAXIH5CiHiONZqt7oVnd9lLRij2Ts4r5bIj70fzReDbCbE5SgE3TfNt9rp93Nwjf7FRqORu2Fti5RSbZG6k5VzvnLNVCFER2REKFOp2DWPx/1LEdtCy8VRUhdKVtxVU8ytN0PgMUssy6aUcpEJIQzLjsPIkFhmTNhWJwmtQYRTDlQopQrFYpxlQEkquQLIOKOmEadJxhkmmAAVSnIhuUi1lL0ChAkVQgRhpJSs2wVHmAXX6abdBPNESk7pMDIDJWlHzEzW1E5zPloNCbuE16sujk0vizJ3IWpsJHbVjPYVmrtsO2FCcoSQQEp51krcxxhb1DITShBLog27QKI4K3ilxE8jCE3bdnupsswBH2AlZ1N/LjW4gFikQBCEJFDpIImVjYBShgAjE0CBYlwgRKhlFgFAgRJCGoahJY+0VqH2KTnMUmdrOYQIpNCuGAh5DeSjm8N97q1zmJJ+CrUMvja1zZhRDQDTAPvNGa32T9ocN0cA/UATQkYrDYvQNE2ZTEGZQeyvy8wHdN4fcAUJF5lUpm0RsEpWyQ/6GQGnVIhbaUHgqWLj9gOHaIYpUNY7AAAgAElEQVTOn7/0suzoOk83tvLWjJ6WacSaZqpo8LVu2eSlYZ5/A2AtBHSZjHEFsbUg+zu3z3z41z948203P/bck5/6uweW1cAYLnVQbHS51Uokhtb+Mtrq8WFkQEYQw0QpiUACKEUxIKSUSCOHYqAmoRamIuU0MY2EFkg15AI6aZokQqYDhuKIpYliEpccCUKlYSYo2OWCa9NMCYTpZXIEIVJyRRSWkmCCAOluSa51bFmWpoVor5Hj0XKM/Q/Qff7QbTSP71d1TPU0KC9xLsNtNimj5urmmzWjczPVv54DFnMnnWMZ/XaXZ8ywLRO7nIFMmc+jkPEBUZZhp2FMDYtJBEIVvRJP0gRzxhiSynNcFidBr08yJOJU/zn9sQhdNs3NUDR15UvHdw27zh+/zfMLje3Sj1Z++gpjPwgef/TxJx/5p1PnTnd7G95wubveoeVSoZk6YZY1jGCLmW0lSMak3Y20GjilWGGCTIoISCSEqKACyMTJgCc8agexH6gBUk1hFSyxGksWG1hQ11WmbRpWwS504wulcpWAkWVpqhhKuJTCFpa2tiu0MJNSkl92XebqJRmcc52A5brj+gT1NYnj2HBsfaFsarw2aqbNHjRHzudQRb2SR/eN8xucW6E+VQ1t1r+bm2NOsoMr0ua5ZTDGFMUcQ5bGwBQxLERIBoxQEzDBhoGUSpIYA/ixH2SRATj0A2Iapme3g/Y/nfiugc04YvaV4CWl1Dcs197XwhP6APJz0Y+ZRmZog9aLMjhnmm8NV+TSdTJdEUbU7D/xjWcCmZgFO4xDshSXLTP024oiNmagLY5bxyaWXCFl28SwKCZYYGASM4QF5rHIokRt+CpMlEAIwEgZKGJRzyy5PTN1sOEBAQsLywwzzsOIJlmpWoj9UFBkeg41iUKIYmQZl3cjAWNX1EBBMc6QsqmhNXJ1Gqrz/s2rcDDGOuIVCgWEEAJFCMGvCT96VRs/VxDPeUt6vKndZ45WzuXGc6FnXW9qyIjGQetCMk+AclaT/nBimwypSHFAAEBwKlQmWcpcriSLTYxBYQSqUC1yQzoj5cGlDmHMsx2/2yOADIQbtfrAiFmnkzNYdG/rikoe1seZP3s6Udb1XF5M5LwAISRCGEDvUZFSSiEkxtgEu9yoYo+20y44wMwIqKK2KlVdXjH4iMmrVFDBgiRjApRRj4tYKhFnWS9VsZSZlGGmotjGBZEiBVyZWBnATNGzE0ppOmoS2+GgUsmlIiShNR9VmRn7fiIwtsw4kx1/YFY86RiDtUU6cpNSCggxCFIAacooKMMygyAoFothGOpVTGEYaqWjfLNrzqfQyxg0gfYHO8H84c6ZNjtUHcc1VyTfJQJX1vPkANA8Vb2sSgCgR8baFvXqpm63q7v6mxmxl9H4UsYsk0oBtb0UVRke8iqF8UIpEJzLJEvXu+3F3sBnGQ9IY3LULLhBEBgSrhmZ+JnDdzeIF3WC7zz74lHcy+1SH/Bm2Xb9IidU5dVDmqbsiivSflcHQQ2s0WeqoTMdwf2NtTtvO3zv4XekBvv27HdXRT+2JEjFsUyViHwVcS4SbsdAOWJrG1JKkWYiybBUFFMbY0eRpIpk0UK2Y5Qtp2SZHuaWkhSbqc8oTxOmItEAd9ob2lkdnnRqBw8c+vYLz55fmuvJyGSqEyXYs6zpiTRNsywDGxOMEyWBc8t1BIBlWWfOnHn++ecnJib27ds3Pj4ehqE+O8/zjh49+swzzxw8ePCuu+66HA+lIoQAxq8NP3qVvXLO4zg+ffq0fufgwYPa+c3OzkZRxDnX2+40hHRlZaXX6yVJMj09Xa/XR0ZG9PbRXq/X7XZXVlaGh4fHxsZqtdrmOZZSyqHUIYRkgiTJOBm6YXzrrtGtbrGwszoOgC/MX1rpts4sXzzTXFyNurybuq7rGKYMk/Pnz3/+4rrsRCWnJATK6am549exW3t3rWuuyyCtnqDteHNwyJmrOsPWZqodrRDCcLFnOPNLCy8/cGytv9GGxJgoJ4ZyuRBCcEDKIIpiJAFLDIATLhRGiCJcoMQ1pI2JaxHH8oZtZZAMJEdKESSUjFkmM+EECQNkMTKhynugsTWr1nilSirnXnzlrTfe4d3xU8+deOGpU89d4p1OxqI0lqZkjMGVLNOxLABotpoPfOb+++67r1QqdTqdrVu3PvDAAwcOHNCLPXu93n333ffYY4/t3bv3s5/97Ote9zqlFDHMHzgGhP47GGhuo0mSnDlzRodFvR2Pcz4/P7+8vEwIqVQqjUZjdXX12LFjrVbLcRzP85577rmhoaHDhw+Pjo622+1vfvOb/X5fq5MeOHBg3759mjibCw2wOKKAbEyHrNLhrft/cuomHLCXX3mlPWJahtE5vzE2NlzfM2zPl/jcq6uLG5WhilcqhnGaUdRB3Kg7MUEMEXtwdZ2nXaYu4XV7QXvuPKvWhqj/1XmnNlM9btAE6zxphjSyGnVfJqnnjo3tw80NFomper0Pg8iSQIkJ2OYAkiWGzGzsORiZBJUMUneZp0KDh5ZCFrGijjLMWCiIucktWxCHSSUx8sosSDBHdaN2jbV1UlWdQsUcGb7zwN5eq+U3W7cfOLTv4J4Hn/7KY6dfcMcvQxwBIQWKEEIBJUF46tSpP/iDP6hUKn/2Z382Nzf3R3/0Rx/60IdOnTrV6/WKxeKJEyeefPJJADhx4sSxY8duuukm0zS5UAAoZalnWK+N/qgO3zlSpt/vawFf3/dzKf/BYKCnTdoC5ufnV1dX3/CGN+zatUtK+fzzzzebzcXFxdHR0VarFUXR4cOH9+/f/9RTT508eXLbtm3aRrVyhuM42HVDJAiT+92xn9991wtPvnDtTQd+/3/9ONAiClMK6PnvHXnsq//XQXcoKm2s+mtBpy+lqlQqlLq7qxNOSiqV6lqn8+ql0xqExTmP40QIYZqW9pT51h6tGqebD/lajJz9l+cDWvhdI6lzvoDllPq9YFulesvhm9aCtReM9WjEbhYjsDwMioLiIAZIX0dEEMh60SKUguJZCiIzkQKJRJKlwkMSUSSBECF5ghhGSnKBkYIs3Q0730R2lGjBqJZuvOGmvYduIpTjZDt23DNz8+n8+V+48W0bzfWXsmVT8oLjgkRcSUIBlCIEUce56667fvmXf/mnf/qnEUIPPfTQmTNndAmFEHr88ceTJDl8+PC5c+ceeuihd73rXZZl2cxWRXYGn7wRXvfa44rkuWOlUsEYr62tbd26dXl5mXOu5cb1dzVf+9KlS41Go1qt3nzzzc1m0/M8KeX27dtHRkY8z9OipFr+ScPCKaW65EyimMTprsbooYlr/f6gWK3dcdfdFrXbkV93CgDo5sOHXIK+841vbEkn6u1FZZOYsfn5+alyQwhRKlV17N68NUpH8LxdepmUIqVeZpI3nnIVuPwn9ed8/xcADAa98fGxcrXynRdebAUtXkK8lw03xleHQ4mQBCUwkgCApESIAIpkFBEKGHHFEJaWRC5DRNFMIYmAS8W5kFIhhBEgjGia+qXaKD4fG1VlFoz9N15/w803gWEoAGRjQLBteisL+mnavfn6G08eWdHlOZjIoESAlCwzbPvQoUNPPPGEnv898MAD6+vrhw4d0iVUq9X68pe/PDU19ZnPfOajH/3oV77ylaNHj951112BkfSgt8H7r4E507/Sk9JTxKWlpRtvvHFpaQljPDo6qveBCyH0HvMLFy70+33HcXbs2KFBUnqxX6VSabVaL774ohBi165d4+PjeUPgMhrfwOOFEu0G10/MvPTk9267+2210RGZpWXXBcYzxhlBew8cvHR6NjZhMfG/NftdSS+32Y8tHDveZ67rWcXi5k6nDt9ariPLMp2Y5p5Sn5SO/putMK8CNyfl+rtKKdsyoyReXt9YXV/pDtpm3eM+SRPJ9lqAkUCgMNI77EEBB3AsLB1gNlUWVUJkXEGqjEwqlRJiIAQEU4GQUqAEcCGUIA42atyqY5dlsjrcAIpBKo5h0OnWGw2TwHCtKpKheqtQNtzLcz4MXEhJhHkl7UaApJSPPfbYpz71qSRJPvaxj+kq9tixY2fPnv31X//1mZmZt7zlLY888sgjjzxy/fXXV0tVE0ZvsrzXWM101ZcGkSwsLLRaLd/3S6VSvmdRs0Nvv/32CxcurK6u9vv9b37zm6Ojo4cOHZqens43+uj2pN5lrxEqOs6apmkSbAuYrtQHq2uWSXft24cxYGxh4ICU6Vqcc5MYSEF3ZcNVdGZmphv6aZramXrjHYfLyuFcHD99etDubyYRaDPd3ETTg1n9LZ105nSD3Bbz15u7Ubq/KwUDkDuv3f0f/vv/+L3jR5998TtMoe5izxm4CiNEMSAEGAlQWIFSyq4RVFJQJaxMuWMwKlObJxbQSGAKCAiXCEkEEkmQSikERtQNJ6tTHpiZ6QwND2eMmaatgDieCwCciWqxNB9HnbUm5WpzaQtIASIgRCqEY9kXL1781V/91YWFhb/4i79485vf3Ov1HMf54he/CADLy8tf+cpXXnrpJdu2H3zwwd/7vd+DvjIJGnKKYL6W/agmLRmGMTs7G8fx9u3b9bRG+8LBYIAxPnToUJIkrVZrYWHh1VdfPXLkyPT0tK6RG43G61//+vPnz7/44osjIyPXXHONXverR8k8E4ZhEqL6fk8hGSdRnPAioVxwnHEuhGk5ivEwDM9dOH8x6SyhTnmoXqlUVC+0bXukNGIYZmswODHX0vJaOrjrAj9faKlTZ22R+Qgqd6g6Z82hXps0VNTmBxUhFIah7/t6xkMItW0bx6AQIAKKIgWAQQ+0IPIzbHDDi2nJoDWT1iitEOla3OMSsBBCZhpwRAgFhJEhTGJQpWiz067UtoBSGuoQiaTiFOIoMWyr5/eOHT+eZpnEl5vzoMC2TA6CJwm1HJcaJ0+evOeeey5cuPDpT3/6Ax/4AACUSqWzZ88++uijAPDVr371H/7hH+CKwNjnP//5X/rgL2CFRCILUFRSISUl4hgjLu3XjI1qJ9JoNMrl8vnz5y3LGh0d1Tq3eu/0iy++uL6+ftddd42NjY2Njbmuu7S0pAuOpaWllZWV3bt31+v14eFhxphuWuWZrpRSSqQc+3xz8ZrK5FJz5eh3X6xWasWhGsYGts20P3AtZ2Vl5cLCpW4WdlmELNTv99fX1yvIfG7tuZPcNE0r2+Q+cxvVtrh5PJs3vPRJbRYAzBNT3R/N09ncUhkThk2WLs2fOnFMYYEctBqskZrn7KwAQpIgRbCCKy1YANm2RRizOCKrAW4CKlBStc2SHQ0RYmDLoIqA1BRuxpnMqCSZbZ7bWKvzIZenp144cscb3kgLnodskMpx7DCNvnfq+PnlhRXaZZah28Bw5SGilIKU5+bnPvGJTywsLLzlLW/Ztm3bU0891e123/nOdz7++OP9fv+ee+55//vf3+/3G43Go48++sADDzz88MP3vO/nK2aFGUkGBDAoyTE2BYCB2GvGRrU8ULFYrFQqeglavV5fXV3NdRxc1+10Oi+99JLed6N1nGdmZrIsi6Lo7NmzURRt3779zJkzjuNUq1W4sqVcR16Ezblea16ErLM4Ptw4efTIrh27GkWnl8XDpVrRK80vLjz5j48ee+VEOwuSIhKxiNJYJgl3SmkquB9Zlm14ng7uupepD0y34nVWmo8MrmLA5qapR19Xrb7ME1aMMRPCMkwKSqQJIywiXBZhfN9kf5JJAEmQwlgiUEqBwkqp4qjHQiK7AD5VPhchAz8CzIwhw3BMUrSlh5WNOKUCBABmLBQGnVO9nVa1Hg5Ov3h0olSbPLjfpoQlmaJw/PTxo6+c6vPk7MZCt3JZLhSUkgoJEECI4vLIkSNf+tKXMMZHjx6999579Wneddddf/qnf1qtVu+99967775bn9TevXu/+tWvPvnkk5deWrrxxiFbEgNjhEBwkxCQDGJbvWZsNNe59DyvXC4Xi0XP83T01EL/OspfuHDB933twBqNxsGDBy3Lmp6evnjx4urqarPZDMNw586dMzMzuVwUxjhJEgSkz7Kz7VWrNjGEVdBs/+f/8/6f+Km7dx687tIr55Ig/NIjD8++chIjyUzoi9gEGB4eLhaLZszvuPbGLcWRLGPfev55f3mQu71cmzL/ynFYOjGFK8uhc/XDzXTqvKrLW6oAYBiWlGrLxOQvvefdqZF+/aUnzvFmVgCKiQIkEEgABBgAK1AIAS4MqIOg6hmsqvog1xPZylDEzYuhNHnshJkHvEpp3SVlgzqWQdTANllqz1/aoH46ZBf+8WuPFs+cHqvUZ7ZsPfLK8dML5zuDdjcchIpnUmjYOEMZNiwlVRpHllsoFosf+chHtHyznkR4ntfv99/2trfNzMy8/e1v17vCNJDy93//948cORL2NiyTKywZJAiQwIwQRyrhqML/b5v5t2Gcczl+nfxdhbW7CuyTu5/N0KSVlZVqtapx7PrZ1QWTlqPW2Oc0TcMw1CvCGo2GRi7qz0zTtNvt9nq9QqEwNDSkk0Ltwy7jnpaXP/zZ/+Xp7qshZTPeyC5VsZqDrNOVmQMY+SwdiDRxSJ+ItXjQzaLqlpJt2r3ltuWrEVIuKCq4Ehj3l7saUEcIsSzTsizd2Q2CUM8gNOZVH0AYhho7ghDSKGDHcXzf932fUkObZo6V0f81pNGoVSSSMU99iBMLRMHwWayKtkFNCShVTBQUGXfUMOUFWQwVxlhJxBECRExFSCykH6O5VCUMpZxwJEFxjJVjItdKpqVnmTjJvFgNJV61a8+Qieu2HDCqrB321vlgXQ0uxc0L/rpPJS06Pzd+85988H+uOXWGQCFpsAxRM0EYkkTv09I9DQ0h1Xapn0ONptCQqFz9+EczZ9Ip42anJa5MDP/FMf1Vk/q8Ih4fH9cfcnkkeIUdn+sGAoDrurZt6zi+uS7RAkOjo6ONRmOzpF7eM0cIdVUWWigy0XoWZt3VFMVDpuFOFrMACyVTRvsZa4b99cBnNvHGqoylveYaD5ghrTD1g4CVvAJQQ9cBeU6pnb2W4tczpMsINNvWd0Ufj4YD60fOMAzbthn750bVZkBqaEnG+kRJ26aIi36ryX1kFO2CPxCOlVFsC0E3JOm4aroix8pJiSskgUgKCmVM8ExRgzSKqFrgg1h2EjTIIBCQAAQZDoW5NGBDxaRhDypOWHD7FKHYp9GFFMmW31sNmi056JIkNBV3KNDLRwVKo1+u3EFQjm3rlkWOldES4/nUN79KORzsR2ajOdZYe9B8soe/Dz2QIy02d1vy/ksuxLpZ5zbHZOTFx1XJ3NULzSnV21Q19CZ/cgAADCIRCCUFy9pcIilXpSIUHFRinHGWxSyNIFWu4RU9t+gN1oI0Fa5lYYYrxXJ9tDg6NLq0thasBfr50VRdTeXRfzTHNevmtj4LIXiu0UUp1aKq+WHnnf8cbuLG0qMGMUmlVjZqo2Za6aKY25TJNHGQtKgdK2s1VJ2YpRh3KDlYYBZnVHKRWVIY2GBEDgizikLaEoqmFdtGgKHHeTfmsWCqIAdK+SGiaWyF3Ma+Z59H/fhMjzgYTBSSNMCMYcAIg+I54hEh2BxYdf2X59k64mvnko829C37IRnov8FGNVgwXwwFV+Tr/3UcyWbph/wO5Qvor0oPcr3Sze45b4NvThhybfbc3LXFZ1nmceQwcAQysUEJ5Up1kjCDjLCQIqwYT4KIUlqtVg1E/NWNOEgMbNRrjclC9c79h8ZKDZCIv/D8wumlq3gE+jjjONbrCjYbX5ZlUgq9d1CDKfVt03f0+5D5IIRADFzDGZsYm9kzE5ty/ez34oQ7Fa/nGMxCZs0mjqsm4+DceroWkeUN22bGlkI2YsUqy0BiLDgmSnDoRQgRbJjgmKpCVV0q35BxZrQlxNzIwMiUDJiMRej3mzKuFEayLM6SVBJBXGoYFuZIXdHRAHW1u8mRk5rNq08q3zu/GVqpL06ucvwjsFHNWbnML7sSrK+6B5s71Zsxzv/KmvLcGedIvO9nk16+fJsuGb6iCapr+c3S/1GacCkQxkAJV4CRUrZhmWbaTynFxDCxYopLIEoAj0KfKKtRr1NKTr1y6uKRk8FqZ3x0i+242uL14WVZ1uv1cjaINkr92rIsnZiGYQAAejm0FuTepDr7z6D9vOTqlhxi0o25ue+dPqWwYFQQG/uLbccuWZSRsQK5digZdxOngdy2tRKhM6uEDblWlVYKiRklWQaYm5blMY8jyKSKslghMCygNjaBlqeKSTvkG1HWTnmQEEyoZbtgZJIJJKljENuWRHEp8ZUg+f/Wh8nd52a/k0MXdJ6tXcm/8jn/Tj18rRGnZZRzs8jh8d9vfLkfumqXWT4/zH8GNkni545289dVqa0m1mg5Cd09zuklPhZ9YB3IMiJAYp5JmcSQCkvagR9p7Bk2jcyghBDuWHZ8OXPIsmSsOjxWGi7YxShmGeZ5ipKmqQaG2raNMdF/SM+3cuB9HEf6bnmeF8dxsVjUvdv8+cxf6HNxleGBie1CoiBWCSpSVMRdv+NQh8ZSrUZRoRuXENStUlooKxGEqr+4IdOgcM2Y1yhGKBYisZUMiQlYCZCSZyAzAEQAMKhlOTAdw5mynNGCCETaz8IwlYKgKFRIUUIxMZWJU5UlBDJ8peGArg6Gujms62OlVBRFWs1ZO4g80OXIoR+ljV5GWQMwxv7u7/7u7//+77VkveM4eRTOmWibBepz+M9mmHAuUZb33vP3r7LvPEPVmZ9GSSulwjCsVCqHDx9+73vfq0EqelJKEVZKcSm0EEFJEQtsE4GDnZBQrmTE0ijLlMPAQlIIzoRkjLFUIUlN4+A1B8eHtm6sd5594ptXZdhX6B9M3zP9ThzHSqkgCPRPOY6jG6jawWwGbueobX3WxTAtOfyn3v72O99+13fnXvnfv/LXi8Eqnhnvo4I7cPAgZP1UrYTWZIGUzWzS5lZZXmrK5VCxLtnRMBtGSlmWhomyiSIYIRMTrGyigHORsLQm7dRGbRSDEUPBrAvjRmd8T3XrAPrLzbVLzeVea4DKjltyMoDMD3EdX/Ed/4+ySYN1ZmdnT58+ffDgwampKe2bNL3n3Llzs7OzU1NTBw4c0EJlP8pYn9clhmEMDQ1t27ZteHhYW4w+tyzLkiTRh04IqVareYzOUUKMMd1j0lWXPtskSbTyh3ZOeZ2YG7GOufpi5eHGMAyt8pzvRdWCwk4kypLWiJ1ksRGJMfB2j2/dMTEetzK3VBQUnTw/e+r8LI2UjWmaEexaaRYjJSqVShzHG60OVV6z2ck7oABweTchAELIcWwtn5Ykic43dOJhWaau6Lvdrk7ZN9+tq7IXjHFk8OWwNbtybmJharm9KDEjBROIYnEXgJhMSD8hFBklJxmxOq5QBbdmWsXZMFgPA2gJUiRjBGNcVFhKITMpGEhMJLWYARKZGwgTDDRgxZBtIcUJo7pvfNehPTclflsdRCtB69ilM8eXzjX7kVmwiF35l/0oXI5g999///9N3JtH21mWd8P3+Mx7PvOcnJOEJIQxjAoyi6AMUsWWtg6t2lb7iaLVZbFd8n2tw9LWurQWnHmNqMhbkQoIiGWMBjKQhIwnOck5OeOen/3M9/T9ccM29av2pfKtnsUfWeEkJ/vZ177v6/pdv+Fb3/rWP/7jP7797W/XSB8hpNFofO1rX/vnf/7niy+++FOf+pQu0/9fzlEFGFQUvJLYh8uvuBpD79GH/y1KanGmisUixnjDhg0XXnjhxMSEYRgPP/zwT37yk2azWSqVulvE3t7e22+/3TAM0zS/9a1v/fznP9e495vf/OYbbrghy7JOp/PVr351dnZWy2HjONYE0+uvv75UKn3ta1/T4Fw31MH3/csuu0yXiN4jAwBMYnZstRI3bcFOM0evP+3K9YOrn3zwoVajKXDHK+Q32GNnbJ46Pn/s+cYxn3Ajk7bjZowlSZaxbOuBHTlrOme7UAhLq+eAkkKkSVIqldrttqDEsIwoigzDsB07DMMsybpzpKaW6uPE930IYWoREgkLUEqsRGaZ5K6StgIKW8JkT+17+qG5p0ObAsPwJCYLQSWqhFk7W1tSKbb2t40kCy9AuCeBtqEm3Myy0CGQq/roRclDLx5wo3JoZpAowKHKCASEYSbNjLmOaPhxjg6OR/gSb8ISRgmU9u04vPnCM+xMyFr2ttdcv+7oi/c++q+iL3cI+93RR0oJsIL6sOQsaLU//elP33nnnRqu7k76Sql9+/Z973vfi+P4wQcffP/7369rNAJ+HBoV99VsTAkEXCiJ4StgTYsMHDj0wj995bNZii2LdONRzjvvvDvvvHPt2rW7du266667dAnqk1VKuXnz5ltvvTWfz7///e+/++679aELAHj66aePHDny4Q9/eHFx8dFHH/35z3+ua7G7/t6wYUM+n7/rrru60WFdsdvq1avPO+88TXPW4CWTysLUStSwW7lszQWuNFZWVm5461sGVk14Ei/Xqj/4yf2HDh3IF9y8YTuIMZEojBRBEkMuFMRAIMkQEFJxISGEXEqMsZvPL9dq+XyepRmE0DIsKWVtpUYI8VwvTVNECWM8iuJyudzpBIRwQmiWZTRJIUQcMAgUhApBkCiWIYUYcouOWyDMSFssSUVo2qZXcBJMUkmFi4hJsAOToJPOJy5CmcVj5au8aU2VMgv41RY4Lr2kRCCVBKUEcCSwUjTjQEKFYSfOCHGLjKwtDxVoPujEg6Mjr7vgUqts5BRZtTz5i4O7xgdG3v57f/DFB7/rjjgvPdiXp1/FOWOiGYYf/b8+8L3vfS+fz5dKpU6nozE1jT8+99xzs7Ozp59++vz8/De/+c1zzjmnUCgQjivwVZ6cNEQmXxm5zmH1aiS48/Y/uW7btm0LCwtPPvnklVdeuWPHjnvuuUevBLMse8973nPgwIG5uTntXf+DH/ygp6fn8ccfv/POO9evX//MM88cPvQIPCMAACAASURBVHz4X/7lX+bn5z//+c9zzi3Lmpuby+fz3/72t/ft2zc3N7e0tDQ7O/u2t73tbW972/Ly8vbt2z/72c8SQt73vvfVarU9e/bcdtttmnKraxoAAAnO2tG64tDpxfHTe1c5yrzg/IvOv/SSscnJfH/PpnPP+9N3v3vjulOGS/2bxibZSkvT2QQEEiIOAAeKQcWRMgwLQkwMUykoFQQKQUy51DtMoBQkxDBNG0KsFHQcT3Lh2g6GiKWZbVoIQINQqABlGaFAGIpDTjAwEBIIxBgKRCQyFCCCKcAkUFAAFULZ9kRQUKktYQ7QHpOlSXq0aZ4ASGSJittemoxRtaoICg5sS3gkJocZqEOgTGSYBgCUcSyEIEgAmhP2mMhPWX1RPZjauP7iKy4ZWz1c7um1K6WJyakLz3vNSM/gZM/IaaNrzER10Wj48pWvq9ZxnHvvvffDH/5ws9n0PM8wjHa7bZrmwsLC17/+9cnJyQ9/+MObN2++9957W60WpRTCDqCv8l2PeGZ2gsYr49eBFNB52+F5a93GjRv7+vpe85rXXHbZZWmazszM6Bazp6fHMIxisTgyMjI0NKSTvfXRyDnX0rmRkZH3vve9W7Zs+dKXvtTlDbmuOzY2tm7duv7+/v7+/tHR0VKppG11N23apJtgCGGhUFi1apXjOLoh/pWwHYGC6TihvHzdObPPH5gaXLV+0waJaS1sGZ6XpfH4+Krf/7239Ti5nCLjxV7AOeASCqmEAi8DCxApk1AhBMWEYqKkjKNosLcPcKFnIJ3Z6nmebdvaNa5LOtHmR7phJYQgQDExIDUAhFQhW2JTUopNJAmUUKQcRJzEwmAKKcClTKhIDBnxUIDE6HWMvI07ANcJ5wQgKgD3VUeUYXmqLzdYSFiUHPXl8dBc4U4CIcQCQ44AAEAikgPWGCrmI5R1krPOP3dweCQNwohlnKuEi9GR8R6npFrJeRtPR1HW9R586QlgbNl2oVD46le/ev311+tMJr3gLRQKnPMDBw4cPXp006ZNf/iHf7h27dpcLvf973+/Xq9Lo/Kq1yihRmzRvlfGrwMe5OUsgC++sPPuu+9WSrVara9//euFQuGWW27RVha1Wu3hhx9utVo6wseyrAsuuOBP/uRPzjrrrLe85S0/+tGPrrnmmuHh4Te/+c0333zzOeecgzGOoqhSqezfv/+2224bGhrS1SylvO++++I4dhxHW5DqoU1XZHfw1PtJwzC44nnPK0UeSUTY7AwNDTOmgAFM24UIJVkmEVyzfv32J54sJq01o6uPH/glEUpIiCUACgEACMYmoQIknGecZ5RilQkEQBJ0bEokgpwry7IYY5xntm0hBJQS1DQyzgghhmVKoEzb0p8lrihSCAEIIJZCIoEMiCHDgKeUWMgygySACSMpoIgAkwqqMoBVK4qRzHuu1ZOPEyYyLJRjAMmySIpIUkAGc4i4sZuB6RBWQ5hlIHbQoM1dEzCGUgZYZlPDTQ3KwHD/0NDwaCzjgkkhNZAA2LSEUCN9Q1m7se/YrEkNjXwDrCSQEAMgJcDUsZ16tdrb28s5T9PU933dfYVhuGXLljiOp6amlpaWzjjjDM75N77xjT/7sz/LMsqU8kz4atYohnbMfeeVOJ9kIShXXAGSnbsf3voXT+gDo6en58tf/vIVV1yhE8Asy5qentajvR7/JyYmHMehlG7ZsuXLX/7yV77ylTiOv/CFL3zjG9/4y7/8yzvuuMM0TSFEEATT09OtVkvPHAAA3/c19SQIAv0hXl5e1lZ7GpnSHgQaEOAyi+NwzZrJY3Oz1LUK/b3EgIynNjHCIMgXCgoCICQ1zabfjpMEQoiQZipRIJUiEhkYmVi6GCQkIdyhJlTAdd3lxaW+Sg9yreXl5aJTNE0ziiIggMIKIcSyFGPMZWZYRstvFAoFN2cvLCzYpR6eJBYg2CQp5SmQRGGVZqZrAhemrmQEU2JR1wWOkSJpYBwLLHwgRRKbHFOAEORCIUIJZ4YgUkkhWRP7pAcbhTyURlZtsVobck6IYRJHQiCVyAzcCcNQpIga5WLeMUwTmcBCFACIAEBQQVAsFtM0XanXiGe+BOVCiBFWQEopEQYAgN7eXj3yUko9zysUCoyxer3+0EMPUUq/+MUvfu5zn9NVceLEiWeeeea6N16nRBuA4qs6M3FgWq9MZmq7abvtA2Ccf/5Nb/39q7Zs2bJ169YbbrjhTW96kx5ldHP97ne/+2/+5m80a0ZKqZtuKeX+/ftvvfXWW2+99ZFHHvnpT3/69a9//XOf+9xNN900OjoqhBgYGLjzzjvPP/987SSo8XDTNDVAq69UrTbRo6imd+hJnzHGRMZVttyqjjl9izMrzSzM814DUw6AZbpAgThJeRjuP3zo+Z07kuGcpEAQJAliBAMllIScQE4QyykhsJIyRkwASfLkis2Xb3/ueZvSkfF+pVS73R4c6XVd9/jx4wCh/pEBnTs1ODB06uCmrVu3DhWGVq+bjACMFhZzRBq97hJOYqIMrng1RdTiBRkVVZtBJGzD9pgB2qzjKqAALuCCAwgAlPEUcY6RUjKCQGGEpCKxYpKnNqaebaJJA9oOmFMoBuRoDDqC9BgqT7ADsyhbznxWHHVyXmul5hVLKc9MhKWQsYKmSaaPHNm9d289bCX4JXsYgHQ2OEQIAaUkkEIqKaV+/nq0hxA+99xzi4uLZ5111iWXXKIRlW3btj300EN33XXX5Zevd93Cq9yPalb4K/tDPDMMA1Kx/uzBd7zjHY8++ujk5ORXvvKVD33oQ7pQtGJzdHS0t7c3l8sNDQ1po8ZcLnfvvfdef/31n/nMZ8IwvOqqqz7zmc+cfvrpSqmuEwRCaHR0tK+vb3x8PJfLDQ8Pm6apLVwwxjrKVn+ydfyNxlk1+EopNQyScbb30IF2FiLPfvjxx2bnZ4GSBECepAAA0zZ/se2Xh44eyfdWFutVgSHHgCPAEUgRzKBKkcqw6MA0MkRiqhBl3ATSRu+/7S+RjQ2bvvH6azedcSqT2Rlnn/7G668dWzVquebVV1+1evWE5znnnrv59ts/zljquvYtt/x+ocfzTFy0cbHikGGbj1liyMjyrA6CyFO830l6jMBWTZSGmAMLJ5IDQiu5vpHiUMEpEgUtIG0DAdmBIOWQJUBITAA1lQBZO4gLQgzbdKxiUBvOB+BAFdYCSk2shFvOrSTtBKu+vr7p/Qfn5o4TagDBEcFKicPHZp585umG31hsVGPAXqpRoYQ2w4EQvLz/06w8zSvSSN8nPvEJCOFHPvKRz3/+85/97Gf/9m//9ktf+tLAwMCDDz64d6aTgb5XuR+FdgKV94rwUUByQiKeCRYwAECj0diyZcvFF1/8/e9//4ILLnjnO9+pAcunnnpq1apVemmpX+rVV1/d09NTq9U+85nPCCGmpqbm5+d37tzJOb/gggu6m/377rvv4MGDeq9j23alUrn88ss16KjTRfTiR1/xXRxKr6wyiFNMOi7e0zq2OTey9Nwv7js685obrh0dm7IQSecXdmz75UNP/HQmrTVwRh1DiczkgELYBpmFrQIwEQehKZGXKsaTCLjUFJxnVAnPDAhxTLPlkqTHERZiGLCyF7sOW8LAdqxSviOiAAQnWguJoZhlFEbG3Er/nDpYdG2jSI08S2lqkXzYrPYmTp0Lr2iZ1ZqdU+04EB0MSVHhSKJ4pY8sg5ZKQa8QElqRQpASjI3YDxTjXt6LotDx3CCKKlleeKgzxjJDWQC4sRMfy2Cj5ZxKl3BHjpb3hse9F4Rj5lZmq/L8C3ITQ0ljce7Qvu3PPTvdnDthBAskFimnXGVAAgoNDgBSCiMFlK0wACCKonPOOefaa6+tVCqEkCRJJicnr7zyyksvvVTj+VEUjY2N3XrrrU888URjbjkZ8438q5l989/hUwVBoEFs3/ebzWa5XMYY33bbbbfffvvHP/7x888/X9PSnnjiiUcffRQAUKlU6vV6b2/v/ffff9lll/3VX/3VF7/4xb/+67/Wlk8Ioc9//vPj4+NHjhxBCC0sLHz605/WdH1Ny3jXu951zjnn5PN5znmn09HT5ckryi6LCmOcYxAK2ciSBDWHevr7SnTxxJEDX7/TtnOSiyyNW36zlrY7VLRlWk9DgpAPOSDcRQRL1AIMI9xPDR/BFEHqmqmAhmnU084/b/lGaoE6Cx/9xROMpQHgu48dnJPhkZU5Cvm/PvvY4sq87LGemnmx+rDIKvbh9uLnvvnP80EzqtBsiKIeXvMgxxZIYU9PmR9LrRqMZtpJzlKK93MKq4kFeWedXVexAhmwTU7BsmgLHhKzlKRAAenaJW5Iv+2DNAugpaC1FHDFYmrZXiFX2VBZfHE+akZFqNQ+pobywbA6SDpi6UDJR+aJ0rJK8s+oan1lsbmyGFV9I6uDpM1jw8JaKggAUFJCpfSZpU0tPc+78cYbL7vsMr3FKBaL3/nOdyzLcl1XQ376AHrPe97zgQ98oNls5l/VAv1v1qjneW9961vHx8dPO+00TTEpFAof/OAHJyYmqtVqpVK54oorvvrVr+osGyFEPp9vt9sY49HR0Xw+//d///eXXnrpvn37Op1OT0/P6tWrX//61wMA+vr6PvnJTzLGkiTRtatX8xs2bNC0D8Mw3vCGN5RKpbPPPrtLdOoSA/SXq4gBaYhkNas70cKZuRGj3+Jp1qwd40AFWdIRcWKCDuCtNGMGtDliGCgEbYQhUL4BiY0IBClEgmApkWVSRkQs0p/v2pp5kGdZK2tTBJlHVljH71R9gxcK9HhzQZogBdKiYv/KbGIIi8oXDu5ySM7stTsm4FQwpHAmOn6Yy5t02IJhGB1uuBuHhBIWQNTGXqkc05oFFAQcI4JNA2KEAfGUOQyGVMLG8yMbNmyIWBolsW0aFkSipyfvGX59+fk9z+87NpM7pdeY8XGgwo6yTiSm8he9tJmDPQqW253lre1+y2zwsE7ZEo6aMm3FYSqyovsbRxzf93O5nFJKU84dx9GyXiml7/tanmCaZpZlhUIBQjgwMPA/yXs62Wtk06ZN69ev7xKWdS94yy236Fe1adOmTZs2ab08xjgIAr2I1yIQQsgll1xy1VVXaYsRjLGWH3ied91112ke08kMVI3b6Wtl/fr14+Pjevd4spK9yy2KsjQV3Ml5EUCzQU1mcVGZtkGpy4FJwkQ1ExnxrBVFSZY5ngujDEugFOBKAqkoxhThVHJCTWLCrJ1A10l4gi1cHO49dGgaA1Uu94iMZUQRz5I2TjCzERLN2Cw4QTsEfWXXNF3T4FGnr1zEoYKJiDpJAea4lICnLQLYkOtCTBcBnavaxwJeMNPe3LIHYjuWZgZsioWCmFNouJS6SNixeOfaKyeHRvvzfRtPPVUq1e60CYJKyiiGvf1Fzhtbx9e9b8s/LOOwdTgoAk8ZntFICG92JryobFNqI87bzcXFiDOLhBSupJGPMmAgbFqm5XTdMyFCAEoANBnyJU6mbt7Ay4bueuurzUe7EglNLdUg939gnf+P1KgGsbt7Tk1K77pw6UuZMdYlVeTzeT3ad61D9YjT3RF3O0uNdOqFm/6/2oldf7P+S1zX1Vvjk51C9B9HCKUuzZRAmSIIpCmb69SOZ0wg2Q9dHql2HKWSU2JKIChEloCpa5IwkZJzw1ACmHFGCMhK0kBYIJJhwlkqhYAE5AuezGJiWBlPJRO/ensISpLEMIlSolwpBe2O7zjjU6v27XwBOwZ1DA5ZRkxJUNBp2yFnirFmO/WM4irL5C6bmadBgZXMxJZAcYgtik0DKWQZEVNNkHEiE8QnJk95zZkXiijJQhmmWZSIfD4veTqQK4FQYeUOGz2xyqQDHMvkMTAEEAh0spT5EHaiIFSpor6DKUyyjKkMpEBaBYeaVgZlCsRvxBmzrMsoQghFUaRP024QcDewOUmSrs7pf/4c1SykLieya1moHRN0l901aGaMafhdM5u0o5UOSuu6IYOTMkWFEF3lnRYMdUUm3Q/xr3HAuvRhAAD2bNOwSAeoLMUcU9dhFktU7KeCC5FRqCQFEBOMoRSAS6u3yJerEAAjZwskpB8jgYlN40bIM5bz3CgKTItCwFuNpunmseKCcZMYGUC1lVpPwR0cGGgeX1AmSTlXUkmsTiwuDo2PVDZM+kHHrKYmQo5ttxmXASt28Bi3l6phZ0rGLnanimbGVDNJD8xtmBh91/VvE6aRyoRIETnwqWMHtkdLIOMSyFjxufri9ie32cRav/FUw7WgZbmuc2RhqZFFp/YNLLT8Nmdtv92HjVSBpIzMxFZhhBqMK9lMU2rbihjCJWmYUYhzpk0JjaMkAZy69m/qR7ucSf3MtfxBiyX1e6TfcQ0C/g/zR0/+6n5QNM3nZAdxPffprjmKIimlblh/xZvM5bqfRU1c16Fpeqt0sqxUP4WT1U5dLaJt212u6smZthBCHsUWxjnL6RAumBKJZCkjEMYJU0phSJGSaZIRBSkikeAeBrxoEwgoIlywxETYplTCEDImU4JMjDHEEBODMWFZlt9p5BAEAEoBgjjCjbaVswrlkuFLgJXIWD6Xn1k8MZfNjJ26VlgojepGLM2AR83Us8pj0u5TVolHL8iFOE1Q3stvHOL7lpylZLxg/uWVb8fUBYoBwWqiwZrfP5o8m7BYpsyv1fc1gs7yEnXLRdNw3TxmnALDcOEvd+/Z+8y2E8GMipUnKU5iYuVArzSwy+eAEUhhGszMMAFOyltZRoAyXUNBGHGeKgYp+i3e9TrQRx9A2gRYeyCEYei6blcbrJ+/3gP/fwnp/wM1CgCYn5+vVqulUknHx/u+X6lUNETfpfTqFejc3JxeBemXyjmvVCqNRkMp5bpuFEX6RNR+T9rKQW/DLcvSM7tecuj4H9M0dVlr3bDefHRZ4hBCT2HCpGBCGlQhyOKYKlzxCh2RZHEGJZASKIWoaSBCwiiGYShKNiKYLYaR3xEWZZ7BwthwLBCwKIltxwwj3yam63nHZ+cRIYiSOMos18nlCrV6FQTkwjPOvsCdpBANlHsWluYf6fx8NqpXj8zafYX0lMHs4AprtCJIjfGReZEsinTZllnCAVYRCFmuaFdyk6AvS+BxpfzllUrOHXatDgPLnaAtMuwaCZXH5mc2rz/98quvOH5o5tD0QQFBy29LLozAX7NqcnVPZftRjvdxixosagsHlVgMh/saCHizSX9iUgljnMWI92QGsEiKSCOLgE3sggeAEklGvP+8H1XqJTmyNnrWymx9czYaDd3F6kvMcRytTXh1C1TXqAH/I/X6vxaNML9WZfv2HjedXQgWNPVuZmZG/+sdx9F3QRiGjuPoyal7BGpYIEkSXXmGYSwtLZXL5S7jTnef3fxPy7JarZbruvpJaYp0l1zc29u7efPmLmMfQqiwcIr5VjMORUok6KW4zHIbS5Mir0g78ZvtKuX75o8RpgRJzByNq027bWepyuLMdV2JRVb36fgISjOlfECgkcuFPEs4h1RK4OMkb0CamVlox6Tj93KnYvcvb1849Zarjh4++uJzuweHR2658Q//14/vPdaq1dvL8MxBa6QXzbe8etAxVlqDJgApZqlImRUgI2cim9GEzfKsA+nd/8/XgBn2FDxgoaAI9mzbYRMDA7HJHlo4tPI8OLJl9/YjT2yTXIx2IC3leioVHjS3uY+s2XDqKhuWO7FPEuEpN4wlzq0EK6AXWgip2eys3lNsYrgmKIWqnSctGa8sLc60qy1PdUBacPIszRCEUgLNekqzlGIDIawRk7vvvvuee+75wAc+cPXVVyOE9uzZ84lPfOLkm/2ss8665pprzjzzTAwgwOrVzfPWmqRXBuEbFA0Pl04//XoA0yRRevNZqVS6kit9y0MI9Xyjt+q6W9X6NS0x7XQ6ruvq+1o3NEEQaCSfUqrhN90JCCFqtZreyOnG1LIs3Vd0RdVaUiMRJDY1qeHyrJSR9dbAa884O2p2ECLFAl6xatbEQF9P/8Gjh+qZn3COFMIAx51mZXAwjuMojqy8ncos5YlTcINO3FheggamlAZBaHk5mllpp9PfV170g4RHnIIkDU+dPFUkfO7ITDlXOHbg4KVTV61bu+bo8wv5ikdXQpgrZCMlviThYquQunLQ6RhqrDXcH8ogE1VXkkTmg4yIajM4dvqGcz1MUhb1FLzV+cHZxmFTINzhB1dmD/DGIRI10mUhxP6FerAkco5Le92a29NszS/Phq1UMdtuok4dZDTkzlBPEga4yV+z9twzJ84YHhpIWk0XEDpa2XP0UOEs62cvbH1k7oW+0XLcaJsj5q9aJh35ArBgEiC1e/fuj33sY8vLyzfeeKN+4IuLiw888EChUNAe8J7n3X///d/97nd/+MMfbtg4ilQBwFf3HFVKSoDwK8KeWLnHZVw8/ezWY0dnNB1BC0impqb0/b579+6RkZEzzjhDSzf1IZpl2dNPP3306NHumSqEyOVy69ev37Bhw4EDB/bt26c7Hq3pS9P09NNP37BhQ71e37p1q4al9BA2Ojp6yimnlMtl3afqACGEkOXYTb8ZtppjPT1nl8avnbxg6fhS2MqGRgfC2aWJXP+Jhfa1Z1+0utT78K5nW0m1YOfbtWZlcFAClYrUKxeCxgoY7KkM9R76xXPAyhdLpTiOXcs1TDtJWRJneeSm9WZfudI0reZSK296MA4tgi1EXtyxq1DKu6YZ+I1EJkHMCzXu98buyFBlsD+JmFgKIYJGnwVzznCpnBWNQNTbzQ7pJKMjw6+7+sprrrzSgEAEEfVsQ8I9T2+vLVenlw6nI7a9ZqS9Kh+XDcCYMVygJo6EYJADm3ba/uLuY3aSogiZviLIDA3GUl7h9mtGVl08fsa+HQfj+WrZsUZOO63ZSeyUrBoYuum1r7cP5H/8whNexXspn40qqHmGCAIAWq3Wd777vz760Y9qhV2n0zlZ+XnFFVf88Ic/bLfbQogPfOAD3/nOd3bu3Dl8at4BBfNVn5mUemWXPYEOhHD77p0H9h9aM7W6XC63Wq3p6Wm9hFi1ahUhZGVlRa/OTk7/0BogvYXXAJtGAMbHxy3L0iY5ExMTw8PDWZbpIi6Xy6VSqVartdvtgYGBwcFBvabfsWNHGIaXXHKJJudrwB9CGHYiE5GxUgn76VsueT2ejXFx8PU33jg6usqjDmi2//cjP9m2c9t5Z25cbtWO7FjgJjNtOwzDhMXEMqMocksVE5utesOq9Lqm01iuKy4AArRtDo6uWpybYTytLrT7psbdgZ6A8ywRcwtH61Hn4tdfVizmzz7nbOwajdi3S15oS+R5rNVJjy9Xhkft1WPz83OiEZUYWRxbgKAahKqWcRxHosPqdU6b+KlHfyzShDJednLz+/aGkc8dLDlEQQzTlGKECRIxcyUAiERR6uSdAAEHKZhERig6QdsFhluA1sgAizK7DQquQUPZUyxddPEl5190ESAAICCY3PPLbeGcf8n6s58/uIvZhlY+IgQhAFxICIESstPpPPDAAxdffHE+n7/vvvu0C4vu/g3DqNVqOgJPEyaLxaJpmhQ4hnx1r3pA/huZtjwzIFGzs8cAlJOTk6tWrQIADA8Pz87Oam6vjnx1XbdryqVFSIQQ3/cJIeecc47jON3+upt1WywW165dOzU1dXLUWFe3PjY2du655wIAFhYWlFL1el070usn9ZLrPjZRGA/b3pkbTl06Mm/7xh/d+r7UlhlAgANQLLz5lj9ACMwfn9kwODHklJeTyM27GWOu5VqGGYdRWguQnZZsa2X5uDRT17CNoh2kceBH41OroKFqR+YIMRbmV5yRvr6RoWhmMTTJY9ufPXPTaWSgOBe39j+7ze4t5e3UdvBAsTc4sdyYW15ZmHfGh5zRweT4MqiHto1aJdIi3MpQn2lFPXA5Xtj37M8Mt1YPmi4gMOKHQz8iYVYyDE4G3NJimjT9FgUQSCRrTdFGMk1BkQqDJT0UThRYRzFAPc+LoepErV5Umir0y4V0Diy89rqr151zJiAgkSoLk7xnn3HB+SlLwvqRM9dueKY+/bIxDDjZ3tG27Q9+8IPXXnvt3/3d3/34xz8uFAr6HNVl+uKLL15zzTUIoUajsXv37ltuueWmm27CKQYMAO/VPkdf6SBGDQgAHBoYbrX8bdu2TU9Pr169enx8fGJioou9x3Ecx3GSJF2vOf2DisViq9U6evSoxpv0709OTmoEGCFUrVZPtrzShCnDMPRGrhtT6ft+kiQ6MFyPX7rljeJsVe9gOLfYZ9gHdh2+5YZ3MSRbacsyywkQloWXV2qXXn7ZEw89BNPW5PB49cTBKIsZSy1ghmEymK+w1Lxg1Rnj48NbjrcbUcewTaUQ5zJr+Pue3zV22kRfX59f9eMgZI1IQMMuemnKdswe3DN3mAIihGjEfmGklxmSCRYLv9I/AKkxMzcbnZjv6+uzK8U2r2YHmb25YpYRkUFmZeE4DLPgMH1x7Gg1ABn18jRGlqHKY+WqUKDOAiCl4wDXASkgKHOoLWxKLJtLBAhMIFeQZUjaAz25odKivwJVRjgYyQ1UrDTjbPWmdYbrpgIgAj3PjqJMQZArlcdAsk5OPTq/p2smoKTWFACMQalUuvbaazWPB0IYBIEei/UvIITVajWKolarFcfx0aNHd+3aNXX62Xnz1W1HAQHgFQc+JVlkEHvdunWWnTt8aN/09PSxY8dGR0cHBwcnJyf1iqw72ZyckqhvcN/3t23bRgh5mc3OR0dH9djeaDTCMJyZmUmSRC+TbrjhhnK5rFH9+fl53/e7OMiaNWtyuZz+WV29IrIsHsVnjk/684vz1ZXcYD81UB+0giQwqaMAKPSVLQVKpfJ3vnt/aazSO9Lred6Rw9MmJQXTWdM7+v4PvnfdyOoTM0c3/9WpP3vhl9/76f2xSD3PU1xABRrH5leNrAIxNIElQ87SRnGkJ0CK5nDCWCS54ViQuAuLaeavugAAIABJREFU1XwprxRfPnGcjQ64lWKlp9SYX2KYeOVyq+TYHQwTmGWCUWC5VsG0JSdJHhYx4BRJljjYpkrxLEXARLGIZEiHigYxs6ABGp00SARFKQZ2io0Mw0UfHW8j31dcpQ5hOMUGyoLYKZijg/3YgFJyLlJXmRIwmUrHNTMAVk9Nzjz84qEX9rm2p8FpKYHS2eaSAQwMk2pOSTeGXQMveqI95ZRTvva1r5XL5SRJ7r777k984hOf+tSn/un7X0Mgn3vV5/pXimdZlgJAFIvFUqk8PjZUrVaPHTt2/Pjxubk5SqnOrAEnxSiCl93nNPaez+dPOeWUQqGQJInruppmrzdSlmWtXr16bGysG36n5/c4jjXXKQxDxpjrumvWrDnvvPO0f7b+cfrzkCHUWyq36tMWsiHGgOKoHTi2zBEHcKGQkhA0m82ZudlUsH0HDywb9Xborz1lzaHd+3s8L0fs1ZUhWY8PP7u3ruIw9EuFcqdTzTpRMZ9TKQv9MOoEowPDS0fmo05cLLlJJ7b7PeEHGZMJY0gI0zBHiiUeJ0Ig4cK56ZmRZHiwUIzNRpSELsxblHDZVlWGXQyIKZak0YipzCgHBgAmNQI/zBV6SRi2VxohsPl8MLnq1FrA2YpvJcDCrsmTiCk7n4sQxoZnh7wP5uOMLdWCqCzlKktIRi2Tpby50iiUXSi4CxGIFMpJBBVQgEOwsriyMrdkY5OHmTS1FRxABAEIhOKccwQoIi8NT5o4YhiGlo+HYVipVNauXRuGYU9Pz6WXXlooFJ566qmBCGEigP2q1qiADQydV9RBKGD7fnr06GFE2Pq1m4rF4rp166anpx977LG5ubkNGzZo4F1jQ1pYrH9HL9wIIVqFp6kkXcc2XZSDg4OrV6/Wj+OliGKldLGOj49feOGF2s21SwD7teAOkNQURtgrtVqt8bH8/hefnXrT72USGFj6PEGAWoDOLi/vOXE4IAmIIxoSFbK2Fa0/d/PawuAbJs5+8MEHh9ev3748u3B0GlEZVeftfidSPK7WL5o87aqL3vXM1m2srk4dP7P/NG/3nmcSv2XC0DaMdiYSgfoGJjBxl6uNqan1p5122pZ/v5/61OcBsggIDWThFKYqU2ZK44iCPemqcnl5YbEj+OpiHkeA2ThOm1bZmmPNjjCddr4Vx5DaPePDiSULkvswyvxAucQwSLXZyK8uhI2VzKuUzjyl/fgvHMNsp7Inyy3QZgKYlD4ulhba9fpK0DdAQE6FwIxE0guAUfd/+fgjW2d2zdgdYqCMQsAEtACDQAJlQgwUTAg0lcIYd3FA3YzqZ37ixIk77rhD1+vjjz/ebDbf8Y53pJgQrF5dD1IiWVlg33yFNADO5NLSytGZfQWvMjo6qu9fPVl3JyEd7gZe9tEFJ/lzd5kKejbSXaxlWb/mxPKrZLCX7Zx0Nf8WhmIxXznaXNm7crDsuAVp7Xr62X6397zLX8c4IAo7gMY1/9lHn9i7d1/kqQ5BKVcmQvPzs4vNldhZvqi45vfecL3X13/+aWfO7D9w4MiLcw+2qs0lTmCRWI5hn3f6OS9s2735Nee86y03rxzZ/1MVV1eOCBjCDOChQWgVrnrjW8fWbvzxw49tf2F3GjIeM5ExwbgUAkilAJBAAQCEqzoiRiZcaS56eQtjMjc//7pTN0Bkpw0JQzDg9aYUFCxjPmiaju0gGfi1iBKZJ/nhkpxeUs203yTtZjIyMLK2f2I0RNMiSRJOec6KoZ1zqvP1md7O/JHFNdbwo9/93yB84/pzTxedTm8h12k0//2xR58/uDukMgD8RLNKKqT7zCGGACGgYLcNZYyVSqWTM6vy+fzOnTsPHjyoNzhJklx++eUf//jHu36GJ5tb/a41ahAiUU6CNgKF/+NzFJbL7tTUmkZz6ZFHHimVSl1AXguU4zjGGL/44oszMzO6laGUrl69et26dYQQDXbu2LFDsxBM0xweHt6wYQNjrNFoPP/889PT03qEyrJseHj4zDPP1H+n9r3/7cSFoBMtsnRv1ux3wRmF4tKhhfvuu+e5/Tt6BibyjpvU24f37p1dPI49O6LhSrNjlwtJqw0hkZ0IW/CCzeevGhxpBJFJ0OlnbPKKzgO/eGL34qzhOZ5lJ03/hV0vLi2tSCkJBjwI7CyFy0s5UyqJMj8xSrhIqYwzJeX8UrXa7mRRIpmUjEvGf5VCBlSKmdeb93KW4bOoGlx+5VU3XX5FMnNiqjL0hv4c5SlJ+LMvHng6aA6XSGNl5dSNp1i8PQfSZqftyswcMfutwvDA4PGCgUw8meufGus5sHpob202rrYDBk3GoGtNk6CviIfitDG3eO+We0q7fnlqb+9ibeXgzOFm6mc2WIjbR/xFkrM0SRIojeG/7MoNFADQ87x3vvOdmzdvPu+88zS558ILL/zBD37guq5+B7Wn9tDQUNdI/tdMhH7HMiVCKQyoBF6acSGATfh/+n0d1rRsQiEVymApsUxjYmIU4s3TB49psGloaGhiYmJyclITR8bGxrTUtZvnrkfCfD6vz8KXgiwA0MsnpVShUBgYGNBIJ3jZ3lL7O3ieNzo66nleF7H/Td5XQkLDtAOoarUTdtmaHCqkNX/++adsex9QqtmsZzwjOWtRteabddezlB95DLqFfKhEGMSPPf74N7d/JWXK67NWlpYbgX+0U8+buSzjSRpJT7U6AQOQYbno1xLCBBEhT7y8IySUXCkDRlncqi4EaSYJAqYpGMMSQAV0O6P90oRSAkDDMCzPDWvLlulwpo4fX85H0jl17Gh9kRJRdDwxMVQ11EotwpKccuqmN21cryAYyJUK0DQlbkXRiUa9Z+M6whlrN2bnj7ZkJCi0iZ1WI4NiZzi/XG1iXJiOlnsGJo9Xjx3avbiPgURl9bST2oAhdCRYqvOg4PS+pK+HujDVyVxhDSyOjY11iU65XE7T0rs3pF7ZNxqNUql0sqHsq6RdxkKBTEphGCYEBID/3AglR8sSACEBRia2gBBAyHhsbGhidErXmR769L9vbGxsaGioG/Z68teFF17Y9eDsOrDpYt24ceOaNWt0u9M159b9az6fHx4e7rJFf4s5m2lbMspshhos21Y9tkIq47aXp9CP6qFIsxIOoDzRnAniAANR4sYpo6dQrmaW5hudFnMLP3zwgeahuam1p4xBu768sOR3YM42kcFSJqGMsthfWl48dqxTb4Z+hxpGBGBimD4iSZqZbiGBNIhTQmRtcWH6hT1r1p2iJEQEY0whhAgRAKDgSgpgYdcwnJVqk0VRTrrH5xaHrF67ER/aeWedx06lVA/bBxvzC4EfN4MJWHr8iWdNZPqL1XBg4MjhoxHnXm8/cK2RditeWvbb1bCAViI/gypHDIAYW5b1lXllW9PJclXA2caxUs51AvsEMKGBEpPXWadRjTo4gyZlUdIdPWEXI4UQg5d8OXUX1+X1nhxBob8hjmMIoY7B/rXS1PPG7+LyTAAQEEApAMtSCCQ1f9NNShFESSaYUpYNMQYKIoIIUPhkL9yub2qXG9p1e9RjfreU9UPRH1/9bd3i6zJK9ffr1E1CiE5utm37t5yjCUsi388Ts2MX/E54wF+sM+Jlqp96KVLVIKxmYZrGjmGvLY1fc87F15x/VbjSWAyat3/1n7Dnyg4LZWp5xsKxQ+VKr7CMuThqNptWznby+SYPn/r3x3ryTthsfP+791Rs88jx5aUOa0HMo0y2W8SQ7OdPY8M5MTML03jp6OGs11SYSAQlABAjhbRzJSTKSBOWEZkfrNSP11dvWnfL2/743/7pG45ntVaCh/71386++HxkYmzDYrng+WR0bPWOnXsevv9f129cd2zhxFKtUXQLRbs4ZMiFg0e4jV/7p28t9PYk9VochAghl+S9NC2YhQDGDGQzcTvGErXqqHeoUasxkeC8lZhQEmRQggHWGW5du7wulN/1du32l12xaFdM4nmeNow52SnxZJ/435H1TFgmMLINDAH+bQvRlCcGtSwLJ0mWMWlQgpHBhSIIaGhdQ0LdYDjNEdHqze5r6zL0wH/0Dj6ZvK3LV0tp9fd3RyVNAAO/1XcYKqnzqriUBjEd14jCuCnTapIIxuPAp8WCbeVVKxsaHf7Yu/9q6yM/by9UL77sonM2PLl9ep9jm+16jWfhGetWHV2uHZ87ofr6cuViqlg7DXzFZpPo3NPO31Of3fH01orlQcVaWaeQlaAft/yIWo6cmQOEjI6P5jYMVavLGYdcEQEVV0C9/MYhhHiW+O04v74/CgNzzIMV+t1/3RI3F33U6Z0YL82NeKU8TBsxzwZG+xsHaps2n77/yWeGLdsLwrLgMU96lDvu2WOUn3be2Z2cWxgc5AxYggIKO5AFrO3Ylt+uKQRjybxiOUEwhSKsLeRct2BagUilzAAyEDEosV6qwpN2jpKxBMI8NXRwsOM4+q3UtB79C8MwdPOmY1S7ZrTgZcPrk/MpfwcvHewIDqQCACVSdQjO/QaukwqiJsGmZRkKSCYyghyCgBBcCwY0JVn/czU4/5JxCOfd/BB9LnaLuGuA031J+sV3P7jddkc/Fy2T1WPTb7o7CATKJKFSScRygpgJb0UhsEDAJbXsou2oRMTNeKI40uf1H9p7bHlx5Zmf/myhXu8plpBUjmlOjA5sXD35hvPW//uOnXuXV2IgISKGYVkeBYqzyfKz7ZmoEdCyHTORZZznXN5T4azBTEtAFMex25MHDmv5rSTHc1GmFGRScCUBQBAqCBECWIiwd2KoAX0BA1pwdh/bk+6eXyfzh3pptn9H/2DvkfpS1JOl5ew4nLc25A7MHV6aPToFTe9YlUY+DuOss7iy0iwUiO2VqoWCbLTTMMOJBEQqSymQCQOnMgMC5ajFAx4bFDpFLAIoVeR3lIGcshcBmSRJ3sq9NDN1D1ClsiyLhGg0F8bGxnTutb7xO51OkiTlclmzSTQZzTRNLcrTb6U2mu1qJzHGPT09v8NdjwB+Cc6yELCA+k3nE6AotEwlGWGcGDbLQCSVgxgwLawAyGCGgIAIGBYB4FcG2/qo194BWiJiWVYQBNpZpCvOki9/aaqe/jb9avUtryM7ujYEGtjv8qN1rWdZBoDhMWw1QkCytujElV4qTSNkIcgKrlmbW3TLZWBaDRlsO/DLr34vhgvtI4uH9z91LCxSLMICLBwN5bFqeyloLcyvsHpoUM/MqYSrzonITCG6BKlGZtWQiyhwWYA71DJ7CuTESoYJgUANVHoVhQwk+aFiWEsgJ4z7Ji17RqUuDkFJKa4EopWnMGoFUFk0RCCVe7MjcBU4ZgWomOedpAE6SsBYcVwYEDxNAPjJc/+GccYmWMkrCVVotwu26TSitFW0AUaGaR0+9DzL2tAlaaqMmOSoV1uq5wdKkUxbWadU6kmbPk6JlBHpqTQ6ETAswLnpWohLxWIYZakSCgFTISm5QjCT4rO3f3Lr87+44447LrvsMv0m1uv1m266qaen5x/+4R++8pWv7N69e2VlhXPuOE5fX99b3vKWm266Sd+ln/rUp7Zu3RrHse7oVg/1X3vDdTf/0e9jiJBEAL8CahT5P2SUSBSaFuoEsUtc0wSC1wWDDnWAHWiWCxYYQRMAJCSQSFFKwzDUawkAgNYVaIGBNr/VPWg3oUJ3AhoQNQyjGxhn27b22pVS6orUO3pdoN0tf7cZsC0jZhnNu5RlQmE+Wx/zKiFrFYBr1zlRnvLFcrMpihWzr+/x3c8NKqcyMbCY+YcXZvsKPYbjNtrtnTtfWFw5GAfCHhpJLRyxwHBIEjVYJJJWH+TKLTo8if2wWRqslMuVVr1DsJFxBiEGEEZRFHaSMukZ6h/qdBoSQSUZFwISjEyKqEEISVAGpMqnwI4gTEBogkQiBqDdhrIusigEqSAEE4yYyCzDfC4+5iJacd2jjQU/Dr18kcqIQWZ2oiTObNeJ0yyySZoy07M551HHL/RXwih0XQfyTFbbU+U+CgghqBN0Su5ghHkzTJO4aRbzyKFacyaEUlwg8lJCRrlc3rlz5w9+8IPXve51+vh45JFHnnjiide+9rWVSmX79u2PPvroqlWrNmzYUK1Wf/SjHz3++OO+77/3ve9N03Tv3r1PPvnk5OTk6tWrG43G93702CPb9x4N4vf82Z/kMXVemU/Jf9EqvGSzk4HEBpXcy9sojAacly7bIgAAAkBwVzUKEtkioPilL33pnnvuiaKIUjo4OPjpT3968+bNjz322Ec/+lE9BnZZ+lLKa6655oMf/ODNN99crVY1E7TVahUKhXa7vWXLltNOO+3P//zPn3vuOcaYFndPTEzcfPPN1113XTfyQfcGaRj1jw0uv7AzVfEQzI/l+4vYOfe6N46YJZkyAdRjzz61OzvSjOJ9M9OjwyPzrXihGSRY+kpYSTy0ceIv3vP+BIL67AnYS81SYVd1enplBVHMcrHbl8vhPM7BIGnFqlMcLFcGengskoQpCLDxkkm+4zh5p2g5TpLGKZAKKpnyLE2hVFACmTLMAIMKAUQRtgyEoGIGEkASAe0aFItZUvVxqgr5vFJKtlumacemYhAvsmVIEbaNerMKIc7ZDkRSchFFfhjGjuuClBlKGQD7rgkMkrUzg6nJylABGWefctr6yXVIqFwxlwD2s+1P76sdO5rUlEEixJVSGCEpBIIQY6SA9Dxv83nnIoSefPLJI0eOTE1NIYS2bNkCAHjf+96nHzil9JOf/OS11167srKye/fuP/3TP7399tsvv/zywcFBhFChULj11lv/+I//uNlsHty+/w/+8A/+6fb/+4aLr+jdtP6V6ZD/S5KT/s8GlVdQ+Kh4xx13fOxjHztx4sTIyAjnfNu2bbfccsvs7KwOhdHEpR07dkxPT+uRS+8znnrqqZmZGc2moZRWq1Vt3V2v11988cUjR45EUbS4uLhr16577rnntttu27t3bxiGut/Va7pyocCEwJQWqb3W7bt84rR3XHLd8u6Z49sOHnh6T3XviRvOv+q9N/7RVO+IEOLQ/LFF3pkNm22RCYQ4A6EfKCG3/+J5Sxntlcby/ALGcGh8pDjU500OlydHQCCDIIhkVBguDU4MZ1zU6i1qWNgwMcZCSq27KnoFkInWchMp5CJqc2AlwBSIZoCEwkkU7DAWJx3BWhQ0TBgBAEPl1DmZj72GLHVwT2YNgvyE2Xt639RlG889i44MtshY5vWHZr4JxmChL6Zorh02IkMZrJ1akqBYFUyPCmBB4jhO68TCQK4y4lZG7fLb33gz9rOZnfsrRp5EYPqX+84Z3fjuN9w8TPLhSo1nSZakGjwhFAMAMskRxueee+6FF144Nze3Z88eSuny8vK2bdsGBwevueYajLHjOJpvbprm1NTUW9/61o0bN9br9enp6e6OsFKp5PP50dHRs64/a8Nr10RhdfHwYcxeMfb06n+1k33a++/hhx+enJyEEF599dW7d+9++OGH3/Oe9zz22GO5XO6b3/zmhz70ocsvv/yuu+7Shrp79+7VBrnf/va3N23apPki3WWpvmu+/OUvX3TRRa7rfuQjH/nCF77wwx/+8LbbbtOf6ZcQACgNhHsNF2X0vJH1m0trH3/g36+89upLLr60mCvOHjt+/wM/xha4+Q03dB64Z6a5FKismPc6YWDaznB5aOf27cNO5bob37gU1mZ31o/OTQcWDz3eWQkcbDIAAynjLOgf7RscGWzWmiuLdYoMRQBiJM1iKQQHwG80m9UaZ5JSqkJmMoRjBlWIm0xQIVLlRMIIlKqnIBOSI6CwMBCmirAU1LErAIKWyETc7jDL7O+tDA0Pn7ph88FD+1etGT8wd+SRrU+FSQQFcPL5hHJgWkkUmqYhEDJcIxMoYZmTqpH+UV73R8fH3vGWP9j686fefP1NF1xwATGcZrtxyRVXPvjQA51q5y9+748+/+NvZthECBGE9aXKpciyzLCMUqX0pje96Wc/+9mTTz554403PvTQQ2EYvvGNb6SU1v7f9t48yI7yvBd+3qX37rPNcmY0kmak0WgXaBBgdgwCgy0bXxvwRxZcfOY6XHOTKmcjuY7jOHiJnfqcD1wkgG/IlxtM4pvFxmxmkYnByItAGrQLtM9Imjlz5uy997vcP97R0WBILtQXF65b7lKdOjpqdZ/T/fTzPsvv+f3m5tS8JOdcTQSFYTg+Pr5z5849e/ZcfvnlXWGtIAhM0+xN9ctHN+7cuv2lXdvf+9EPGO/E8H4uNlrS1w4MDGRZdvfdd//u7/7ueeed9+ijj6riRZIkSglEMYm6rlssFpXXjKIoCAIl7hvHcaPRUEFqsVhsNBoqx7dt23VdhNDy5csVzFbNRqt6shAiFswGNCiM5YuXrykP/+DJF2688ZYrb/ggB4YQWTy24vbfuONHP3pp77H9569YU9s+19Rwo9V0XRc07dT0yUuXrRzpH/zu9x93cjoD2T9Y0FAUo7aIkOEVqDQXWTp1F+kObdVbzUpLpkhaKNNYNhtrGtUsKwzDLGJIAkuYZqIcWAWJozDUENMSnHDgktkp0rVcFjM95E7ABDYCB3MDDEko1mXKQcgEBMtEyDptvxVFwcXnXzk+Pn705PHJkydt14lZ5ngmRLyH6VAPiymxNT2RImp1rJwTJZHrFVg7KpjeVe+5dM/Lu27YcsNFl10ukGjFoVfqRQDvv/6Dz3//6ZlKbeOSlT+e2meUNCFEmmaGpqlCTSa5BviKK64ol8tPPPHEH/zBHzz11FNhGN5xxx3KNFVNVG3dqn6apr7vd+WNlIAMIaRpFabMXGA5mesYaQh67l220ZS1b7/99hMnTjz99NOPP/64ZVm33XbbTTfddPXVV3eBpErTttFopGlaKBQAYHBwUNO0I0eObNy4UaGbm83m6Ojoyy+/rIZiGWMvvfRSu90+ePDgAw88YBjGpk2bukw+8yhSxPsMd31uYMPQ2In9h6+67v1XfuiDUcIsEyKW6IZpS+ecNeuqtRlyhI0NLNlWO97X0+NHYeS3PK/UYJ25Q5UGiYOKcCzXyrnH69Um7pBe21vSk9MLWjsmDj49Oz07WTOlYyIrlQm1NYJwzvMwRVG7TQR4tpfwiHI8OrKs6ItqtQpUl5YRU0go5CRKJcl4aojUwwRrlk41JpieJqlucJGYhl7MG9Q0GBLtZj2sdg5P7PrYB7cMlXv3Hdid1FuC83y/U8rnhvJlxphm0PLw0PbdO45UT2qalkOkFQUW4GKuoCHD0e3RZSs0zZRI6BrU2y3dNPr7B0aGRjrHOmsGl59oVuf1Mueb9BJjggCrluHmzZvVPN2uXbvK5fKmTZuUqBqlVBXFVTXQMIyjR49ijNeuXauOpvCWahYjj3H76CSEYlXfUkDWu7/WG3rjAx/4wHXXXXfvvfc++eSTx44du//++x977LG/+Zu/2bx5s8JDqbhN4VEUvWi73Var9vj4eC6XU2WBvr4+VRno6ekJw/BP/uRPlHMtFApXX331pz71KfWwKnoCwzBinkGS9WLTCLM0iNaddy6TgEwKWaQTzAXXdTo4MmL9WFvcP8AMOIiDrBNyIUzPjXha8Ws8iXHRbVlOLUh6NRmgrNDjFcrFtF47NXucUGO2WQWMPFKSPnAs7B4LWXJwsCyQYDwhhCRx3Kk3MceDA+VivuRmUV3Us4QhLiVBWZJlMRaMJxZLDAK2SUyHaTr2AyNKZ4OAcunkPJzRLE0QRQWwDIqxY/7Z//v/XHLVJW5PXp8xSqVS1GiPnXvurTfdCghxxIdXjU596U8ORdWZqIkdXXBp6BrS6I4dO95/+ealI8tZFFNbBy5cQye6CRL6i33oEEgpNI4F4wSQrmsqaqKmBlKCxEqGwHGcz372s2EY/s7v/E4ul1PJg0pV2+22wq3v379/YmLCtu3x8fGubqWaMm+327v3/WD3y08vzVtXXnp5Q9OK77qNHp7Jju7e2tPT8+lPf/r3fu/39u3b9+Uvf/mf//mf77///ve9733dZpLitlUVJVV+i+N43bp1P/jBD5TMYVdpJUkSRWx2++23n3vuubZtDw8Pb9iwIZfLqU6pakoBgIsMnAlHNzvt4NiJSSERIZCkAEInlEQilYwZRCv39+15et/JrJXJuNTf4/LY99sMZSdxbNg6gTjVU2aKGVbPLfEGin1+K27WEmn2lhqdIW1ACMjCzDaR15vvHR44OHmkbrWTdhTMNXEmLGpiBBzJuXbT23vEXro0FlkUB4VcfsXAwKEjh0NIkGZAkuU0DyVi2WCxXqvGPKqGcwJJYjopjdpxPDy8rHJ6WnKRaYZ/8kSf6+5+/l8rzWlMpV50BnrKr+87smfV6++56AKQ2cMP/X+N6QokYBlelIKgMTVoEPvULJIwZnMd2uvFACRhxLaCKM1pOjX0oycnT2it1ESmafKMgQ4gwDJMBpwgrGBQN91000MPPXT48GFCyK//+q8rNk+ly4gxfuCBB3bu3Dk5OfnMM89EUfSVr3xlaGioC2z/5je/+dOf/nRubu7RRx/FGH/1q3f3DRQdId7R7MfPxUbr07WPfOQjjuP84z/+43vf+941a9Zce+21f//3f7+wn6Ta9CqOVA2MLnyk0WiUy2U1xqQ6GV3g9y233HLppZdyzjudjkKRdousCgEopEw0MsV9Q6ZG3puaPD62ap1GIEoiSU1KdYNA9cTkT17eXmnUGjKMRJAYBiKit7eXCSaEzOfz1WpVIziLo2Kh19KNudk6C5iNaRxGZeStWb0m7+ZPHj1R7utbu2nD9ye24UY0xxosjGkGhtRklMR+hDEmLq7Hc2kcmbqhG9S0rEOHDtmuEwTBmtHhwcFBU9OPHDk0efTQ+nVr+vr6Op3Ojj37Ts/MWKbZ39PbmKvFcWxoRqPV7M9Zrml3Gp2507MBYcf9Q7mlqz5+8y2rVq9fPFBmLL3ykstOzJ7ad/wYxUQnIBKuUfA85+TM9KGTxzIskIQkYbZOgyjxP9u5AAAgAElEQVS1LB0EHDy4v1avzpJGrEcAINEbmuEIECAQQixbtuzGG2/cunVrqVRasWKF53nNZpMQsn79+hMnThw5cuTIkSOGYYyPj2/evPmTn/yk67q1Wm3NmjX79+8/cuTIgQMHGGNXXHHFNddcc9ttt3mepzi/3mUbXdq39vrrr//2t7/92c9+9pJLLgnD8Lvf/S4A3HDDDV3mKmWaYRgqB6l0jjnnBw4c+MM//MNCocAYC4LA87wtW7Zs2rRJlavUJJMQQoWwXc5BlUJijAGj6czfF1YH8qXy0vLE9pfXr9xQXr5Uei4HkABxGL28Y/vEwT1CRwywxXS/3YmyCDUx1rAUqNHqaFiL4qbn5TI/a3ZaiEnCJeZcJ3j9so2/9Yk7Vy4dbVVrSRg99dL3Tx8+HTZjpIm85lHJtYSvHlu7fuXqOIwmJiYiJBQsJox8xbI2N1sZHBzcuGLptddeixDae2BJu90eHh5mmVi+fPnqnROPPf7kkcnjOtU6gc8FaESzbbuv1Jv3CgCy6BayLJitNkK30+MVy709UavT7NR78oUeN0cRMCFYlrpAolanicweyz7ZqPzwxz88Z9N4efGQALCpHnaCp599+pmnHzMHXQ3Ffrt2FgWCurCSs9xet91228c+9jHXdT3PUwBnKaUaBFWDa47j2LY9ODio7kU+n7/jjjtuvvlmhSh1HKe/v98wDFUBeEcG+vOy0YFF3uc///lyufzXf/3X27Zt03W9XC5/+ctf/rVf+zVVUVLQ7rGxsaGhoe7MEyFkdHR0cnLy7/7u77rAkSiKVq5cedlll61atSqOY0VZqhKvhaLO3RFTIkkg2bGk2QlEzjQP7t775GPfLg0PjS1fhQhpt9vHjx7e9pNt034jNHErTjLBOBcaoVmSuFpBsKxxqrJkcHHSieK2COKU6LaVc32/6RraunWrL7/wusGREbdQQFxAoTCxb9+p+px0HdHpYJNgIR3d+MA17/svn/jP7XrjwfsfeOQfH9UobjU7lmMr+t+NGzfe+JEP4+rUnld+SgiZnqkIQH4+l6Ts+a2Hr77m/SbRnnr2uRMzp1zb4QJarbZlWWGUHDp+AptI6iRqR5CJyunK//gfDwvxUBJGDFh5aHAmaGZJgk2CQdieG0ZRNWwuWzPS9MMHHrr/4t0XLlk8nGDEGGs0aocPHWxm7SyO9raPhyUqEYgzfnQBZGkeSL969eouDKoL/F23bp3Kh1QjWjUO+Rmd5qGhIaVloLAZXabIhQ3wd9NGGW5t2LDhi1/84u233644cJYuXaoAoMoiFX31+vXrFcWDGuNau3btww8/rMJQ1RFVhBH5fJ4Q8qUvfYkxNjw8rNb07pVaONUkpUyCSNfNBInXK5OL+tyBPvfV13dVX3lhbNGo6dic89eOHZlu13xTzsbtVhZpWNM0AwtOuI7ayWKneNHaMVez4/JSiXGQZofmZk62q25/cdFAXyP0d+15derY0aW95UOv7i2VStPTp5I4w46BdBrGkclRvq9/6bIR13Fd2xnfdN5TzzxvGBYCEqcJpXpfn/PxX/9VjGTrdBJ0WhmXMzMzGRdDS5Y6jnvs2LHDrx1cMbrs4osunHr00SAICNUV2qOeBLXGnJ4zEpSlknuFPEZ0Yt8eymLbtAzLfO3IoZ6RIcMwQsk0HZ1u13XLNCjySSYoa4eNnbt2PPfs95BlSyRNzyIOlT3W7uqxKVEz9LJQaz0AoAWQDTlvrwojoiZCVVTWBUx29duVy1Q7qERW2bSa161Wq4VCQcV4XYfyrtqoQJJnjuNs2rRJObkoihRYRFlSmqa2bV9wwQUKzjwvagEwPj7eRUu9GQHdnTX1fb+7XnQBjipaQBhrmGABzdTf1ziJ3SWIZTJPD0y/rmkaUG0qqAS6CImoRz7ScZamGOPQD3rtnJGJy855zx//198N6+1tE69IJF85sOvIzKRm6YVyKUjSUwdfF1G1r1hwiN6uzEkuhGmUTKveialDJJeUaoZjUcMI0gQJ2b9oUU8xP3Vq2jBdNT/54Q9/2LaM2enpdsQGhpfNVWul/jSMEt12LC+38fwLhocWG469eu2qTVPjO3fvq9UaVNOzjEcojqgIRZyIVFCcsayTMUe31q1au2LFCsO2Hn/me4ZpAkvCJESaQSwDdGrmc/smD5ekNtiXizSZFTXdoJgi4WonglqtGtVpkl+yuBUFEoEEUHw1Z3H4EgCBgth1Z8jUXxXiR0FOuxg05UpVH1GVRVUqLKXs6+vr0iG+U6jez6f2BDmkAQD4vq8wH6re1GWyVNWi7vydaiMtRGsrrJOKdRR4tvsEdwMaFYN2ua5VtKDlPCEEMA46PeTPVNsdj9HFvWVuBoLxNIYWjQOWBWEshLAyjWuEIGToBsYEAOqN1sHXj5icLF00tn/fqycOHTI1GF48WGnOdU7W+o2iWygwgl+bnix4Nk8YaKRQLM1VppMwMEEDyViaWYZp6jYGPDC45NJLLvruY08gigYGBtM0wRgmJiZWjCzt27CxVqu1MqHnSjHym0E0MrYGEBIy27nr1clTp3TTsG07CCKWcUDScAyU05gmSRZbmSE6Ccsy27Mr9dmBaCDmGWCEDc11csTO6QWHAGmFPgc5W6/WMzFNqeu6pm2bmIVhkDHoENYGLikSrcChVMC8DqU4O8kE3e6deqOKMApUqTjjlbPsGp/aszto2QU7p2mq3LBS2FI7v8s2iiDJMqymsZTGl7LCLtezSupVNNmFOC0UrFcoPtd11c6qStVV3lbmq0pOitO0++A20yhNM8SEZhmZBc0ExUHaqByTkCKBgiilup2xDATvyxVYO4iQDAPfdd0oiR03X2nU/ubvH77qgivypcVztZamaYZOjp4+HsSpLg0I+AlcD6Kwf1HPtN8BIgXEQSfqUOZqBmEIJRKERAAdP6CISg6D/eVSqXR6tiYxwwCU0g/d8IHdO185XW0sWTLMqHH69On1o6s6nU7f4KLV69cnzdkgjXfu3T1TmZudndV1k2WcEBJ0/Gbmg0OEZBClBsMIULvRzJeLzXarUq01Wq3Yom2aRDGknTlP6hmSfhpTg+Z7c41mLdazJK7iJPPyXoxEQiT2LNMwotnG0uFRABAIxILMXs01qRuhXExXAr3b/1SOpquHq4YiF4LW1ScKyNZlbXpHBvrzslEAXSMo8mPDIBrRUpkAhEJKjB2ADGMkgVMqADIBEiOHMyTk/JreLUwoehwFi+4OjShgfxflpOIEhdtXLWOCJEJgm17WbGpeXiMkjGeprms+ERSkSTIW6pqmYcOPY6FTLlLTtTPOiISg4y9dNfibv3J7v5sn2PrA1e85eOL13/niZ05UaogAzZHYzvKeZ7raNOt4PU7YbGdRaNquQSATiHEGWMsECKCu6z355BNHjh7av+tAO0wAoODZnU5nyciypSvWzNQ7hU5n08ZxOvFq1A5HhpZMz80uWTYCGIxCafGSkb7egXYnNjWdS4kwICJ126KVlsGQNLUOgUaSWAwW9fT29A5MV6qDg4OdwM8QThgNm5GZs7mpJ1FkYB0J2Wr5ADpwausmFQSksB0EMk2aEc1btu36SUdDBHGBBGAErU7H9VwAECCxBMWl1WXn7M6aq2RIteOVaSqv0cX1dgGTyqcoML/KsdQR3k0bFVhwFlm5FKATJWBofUkMuqlWEi2JOaU0Y7FpGlHY0bRY12wsqZoO9TxP0evl83nOucqcVGygDLGrQ6LsuHtFkiSxbdtsgkyyKAmJpWVRJ8uwZpg6SERI5HeIZ9mO3ZmtcyCuU4jipBsbMcYQ1nzf/+G2l0jIK5UaIoAd6vt+HMd6Ti/39gEAQXSgb4iBwIAiu4OFZCDrfhtHPIrbIk0IyMZcde/uXS//aNvExMTM9Jzq0ypatanJydcOHtQoHVw24kfh6NgKPwzqzcall1+m7h8G6RVy519wXpTEr7zyCqa64zhhFEdBNDQwCEL4PGq2Ase2deBTx0805hpJEk2fPF1rN4uLy8LGlmPXg8ACaRJNIVc1QECICLMkC1LXZkEEUuqOTQ2dIRbhRBkZpfNAza4BEYKUIapYS90I1cRWt0b1QtXFV/VsBfZVwYCCUijQMAAoZi61qL77fhQDwXQeamoZAABnOCYwAGgawRgIMeOIGbobxQHGSAqqzFE9sko7VUG/lINUaaPKH9WPVAFANw+bRzSmUPRyGQiOGBh6XrNkrRPO1TyjOFQqV+u1Ttgo9w1iQLPNttSIY5hhGILgFGPG0v379x/80W6aynyuZ7Y2i2zwaWYYhlMsJEnWqNWpJHGchmGoAY79IEmSFITm2st6B3DEgnajUZt7+qknfmQ+v3vHxPTp00Cs/v5+iokfRq7r1udqfrszMDCQy7n9vb0HDx687Kori729gnMmeBCFMmlJyYvFgu+3U8Zs3QSEAWCwVD5n9WrG09lOIzl2sF5r9ud71qw5B4HGklQzNaTjWJM7ju5nnOumxrLEthwqkAaahomhq9uAQgNRMy9QChwAYdso1CSVKtCSwLmgBOtU4yCAA8ZEqZ3Pzs7Ozs6+/PLLjuOMj4+PjY11xYUnJiY8z3vve98bx7ECCW3durW/v3/VqlWVSmX37t2qI+W6rmEYAwMDY2NjC6tR7+Ja/++bcJpmwu+k9957nxCsMjvJRVzuX7p+/fpLL7106dKlGOOTJ0/ed999ruv+9m//dhAEf/mXf+n7frVaNQxDCZCOjo4qYkFVolNvFKtUOwwyxLFhiLpvcTJWXLx81QWEGykIfyioVGcnT56shx1pEkFwHEZICt0wIEo554wIHWDl2GpMLbeQPz59lPPYtiydGnP1BkuYRzQ95HEzlUIWqZkgUg2bkmbTsxVdYGqbAoldr+/FiWBxQhyjXQsqlYrSCYqiqFmrO6a1YsUoYIjjuKevL18scsbqzUZfX1+OeEJnQRCcmDr+6quvIoQwJb7vG4axdNHQr9z8sf379379oQfCLBCScc5XrhwbW7aWsVTXacDj/SeP7jzxWpRGJGcjzoiEfqe4YdlYOdcjuQiCwHatTsu3HB0ky5uO6+RoyZ6Ye31f7TAGUAk4SLU6ZxhTNfb59a9//etf/3qXR1thnD/zmc8MDAzs3Lnzwx/+MKX0W9/61o033iilfPbZZ6+//vqPfvSj//Iv/7Jjx46bbrpJLXRRFCkOpc985jN33HHHL0I8+u+aKIp1Hdp+5f77/7I61xgc6EUkmT5dlVJu2bLla1/72qpVq6amph544AHG2G233TY7O3v33XcDwPDwcBRFqne/ePFiIcSNN97YXUpUpsVNHCNhWZYeha6wLl+yZk1usc7BkEaYJrg0kPUsf80+MnHitam4FQEgCYAQyxICIl8oLfKG5vzTQZw0mw0nZ2qm4RlkLvODej2O45ybX2oVlo2MykzMTc7kPI8T+XplctqvCQO4hoQGHZb6QYAZWNQM48iyTNudF5SqVqsvvPBCb29vHMfnX/weKZEAJBEGBJTqnEuCMTbtUyend+/eO3X6lK7ZiiTLsMzpUzMnTkyVy+VCoTA7287l85pGv/3odyz9WUppoZjrJFEbZZlkSMNMcBMjlsRezlg3sqpEnZnT00nYch398vGrqs3ZU1Mn3cwogWsX81Wz9xifVKmPdobPGyFEMUmi9OGHH/7CF77Q19f3x3/8x6Ojo/v377/33nsfeOCBYrF41113qYZfs9m87777rrjiir6+Ptd1HcdREoeKWubcc8/91V/9VSnl5OTkN77xjbvuumvRokVbtmxRcWo33/rFstFmu23ZhIuoWMqxDH/jG/+9t88Lgugf/uEfHnroocWLF99zzz2aNj9hY1mWCms2bNjwyCOPMMYajcazzz771a9+9b777lMSAqr8oZaPTIre3pI8HBqt6EPj15znjmJfRCxbvWS55dhNvzNXrxVGvUKh9K+HJl6vTGqOm6axRLJYLJpg1mq16elKj1HsGxyq1SvtdhsVtDANswxrupHGWamYu3Dd+NUXX9mq1DvN1tZtPzhVr9q6zTRCMZY2YnGUpZxQxHDmo4RFIpfP+76PEOSLhWan/b1nn0mSJBFsfHz89PT0ocOH0zQdW7GCZ4wA2rHzx9/5zndee+2QoTuIUM65aZtxHAPw0bGxemO22WnbOS9lWSsKlgz2tZudJIsglAxJYlLHsGOZcI3yLCJERwCN6bnJmddZmvX296xbvXbjxgvrcZvu2rV/++6JiQODaxcHQ6gjGAAgIQEDcAl4vnQ/ffLUgw8+mGXZV77ylVtvvVWRzWzatOm5554bHh5WQhpKyejFF1/81re+9clPfjLLsiAIlPaLyihWrlx51113qZh15cqVn/70p//qr/5qy5YtKrr9GamtXxQbLXiLBQoYm8YYhGBXXnmFl6NpKgcGBp544onvf//71WpVaTlQOp+yKDze2NiYKlukafrggw8qhFi5XFYtONV8cqlmc2n52ar+5ef3Lqvtnj7vgsvO33x1uafAM4GFPPDqnq3/+kyflj9/ZM3U1FSEo3ze0w3sGFZ9as4ItMVLllzzvuuo4U6dPNp8uTbTroApdV03TQcYVKtVv+VvWL1eW6PPnjj11NZnq9VaB4VRO3Y9p1TIa7bB3EwwyRLu6bRs59xcLkxix3EIIBXGPPXM06crMxdddNF/+uhHJk6deurJJ2/66I1FL3dw3/4Xtr20ffuOKE0KhVLGWRylVCNZlmmmtXzF6Nz2qmFb1bBOTZrP5eKEW0WdpYhLVuzrCaSYaVQixCToJhG2ZVNMatV62g4uu+yyy6+5cs0567IwWWwvH143NjI8+t1H/mcn9pnUOE4wzMuuCs4BS0ywlPL111/fs2fP+9///s2bN6teiWVZH/zgB9Xwp4oE0jS98MILDxw48KUvfUnNkCievS4wjxCiVDqklNddd51hGD/5yU9UI6o7R/kLZ6OtGnglx9CdKIrCyCcUpSyk1Ovr61u6dOmrr756+PDhZcuWdbXwFOnukSNHvva1r/m+7/v+tm3bms3mrbfe6nmeqmt0xZxyhpnD+nnLVq0oD7LZFmXo+g9+2LdJVXKCZN6ga8c3WobxyoEdc7tbS/O9J1i7VCq12rWZmRkepUN9K3g1e+EHPzw6Nb1xfJ2u61kzc3rcSPBOp5O3c4KQ41OTP9n+StoMeJrNztU1y9QxMjKaJWmnUVfj2hrRecopNaihB3FENOp5XqVSsS2LUtr2Oztf3rlnz74f/finS4aXzkzPfuHzX7j4PRedOjFpF/JLloxU5mYNw9A4D8I5HoemaeYLhd179v3tIw+3Ql8z9AxxrGuSpUgDz3Wr1VrCU4GRpmnFfK7m+0ymAmQcpbEWD5QH33vNtavOWRXxzDKoH7Vzlnv1VVdUXju0bccPkk7Y6xjdVt984R2ACzE9Pa1pmud5pVKJUvpP//RP3/zmN1UCVC6X77nnnsWLFwPARRdddPnll99zzz2f//znP/GJT3QL+N16i3I3GONyuazKpdVqtbe3923y3L8LNppwcAEQlkkSFfO5oNnuW5QXAnzfV0wBqjulpJgsyzp9+rRSrv/sZz+rak/r1q373ve+t2HDBjVZyhhT/lVK2QJjtKe/c4Qsz/XunJz7lf/7zkSwPM8AzIhxSUDqMLx+9Y/3veIi88KR9WF0MPTbcSMEXwzYveDHabux/9DrSLIdL02aBcfSjTBIiavrVHCIXN0Dv/UPD97brsx1orCwbOiyC8e37Z2osggTkmVCcomlZCJEQqY8bCE9ZzmIibDW9rAZtkLbdROcYV3LFwpRFB3cf6BSqdTr9SeefbpUKtHqdBRFIstixjHGBdtTdXLemP7y3f8tJeBYZsoCJtgxvwYGzVM9ywKR0+d4RzLJCJedjo1RlOGSU7z+gmvrR6YLheLwspE0TQmWLYodq5BxHhMYOWfDMy9ttd1itXWaAiAupBSY0pglmk64FIOLBy3LqlQq6l7Mzc1NTEzUarUwDEdGRlTJUznOu+6666WXXnrkkUeWLFlCKQ2CQBGYqUJhl2hbSW1JKXO5nIpH306O/y7YaE8/YBTFcWCa5snKnK6bILDqGB07diyXy3meV6/XPc9T9M2lUikIgqGhoRdffPGZZ56588476/U653xoaIhzbpqmAuOon0pEkqRpauC5TkcyrmNkuEYiIuChbuoZT5KYObYjpZyaOT3TrndQ2Gy2LaIZnp0JOTq2/NzNK0UnMk0TNDQbtV/Y+8rumaOMp5pONYJRzjzWms2avgjiII3N6czTBsyc0+NSKSVwAUIiKUGoP4LUKbU0kLatm8BAEEkMglMEWDZa9U4wT53ORCYSXm/KMGj19/c7jjs3N9fuBKZpel4eE+KTEFHIMCRIcCk5SI4FAj7XaWCMqaEbGgUAEIAACMb5XosRvu/wXtzIRkdHBRJpmjqu43JEWEoAISBZo0HjmEbxoOedlVjHQDEFkBrVhoeHx8bGXnjhhQMHDlxyySUf//jHr7/++k6nMz4+3tfXp2yUcx6GYU9Pzx/90R/dcsstf/ZnfwYACjn5MwQ7uq5v37691WqtXLmyK2H8C+pHw6hq2sg0TdN0Na2TcQCkRVE0Ozt77Nix0dHRc845p9Fo+L6vopZWq2VZFqV0+fLlt912W6VS+dM//dMvfvGLo6OjY2Nj3Qq/gq2wju/zNHGs4/VK0OK1E1N4/YoWT4uaJoBRDKZtQBafPDk5OXMq0pHPYsvxsiyLgg5CZmVu+gQTrqQZA6ZDQ6YdERvFnOWZIs3SKJrNWlmS6CZyiq6I6RwL52on23GYKa0DIZAEEBIDgJBSSoebJJOMpQIyKUTIY5IlPg9Slig4qa7rhmHoeY0QggiYhqPlTS5lhNMYx5jSjvTTMOUuJ5JKhBLCUym54BIjkNL0LAmAMU6Bcc4FSEypYVCr5LYbfq0952ZatTbTajUGhgZaQcfSHIIJIghA1po1w9CiNIpxvJB4jGCSiljH+sjIyIUXXnjo0KHf/M3f/Iu/+Ivzzz/fMIw///M/F0LUajUAyOVylFKlbLh58+YPfehDjz/+eJIkKpFSa32WZVNTU57n7d279/7770+S5Pd///e7zOXdsswvlo26tgUAGFnNRodz/sgjD/eVcwdfO/S3f/u3SZL8xm/8RqFQOHTokBBC6U537U9xOt95553bt29/7rnn7r///q9+9atdFlYFqGnG/slG9RQLdUD9nju1b//sqhWFFUMYcBQGruVAmr360+2HDh8EQ0gDWCXWCyZCSLPM/mJvznUDv50GqWF71UZ7hoehjImtU4MKJG3qTQd1IYSGCYlj1ZtFYRSGoW6ZwIUQAoTECAkAJCUAMMp9GWUyjrJQcmCIGcTITAGYA6UYIUlIDEzwFAlEJdU0MlU/nbJMEmn0ukTXMySFjkMtpRRRXSOYGEKnkkqEEAGhmM4QkhiBmo83DV3Xp5uNQkoM1+g1CzxO52aqg4sWmcTKNEoQZJzve+3Ajtf26T15loeY1+YhE4BAAGDgnDPJDNP83Oc+d+rUqRdffPGqq67q7e2dm5srlUqlUum3fuu3VA9JNaKVZvvdd9/9/PPPh2HYHVzWNO2xxx57/vnnOeeKR/bmm2++5ZZbusbwvzXQd8dGOacINMHMxUMjYXjwjz73B1EY9Pb1CyE+97nP3XnnnSpSKZfL7Xbb931N0/L5vJoaVUz4n/rUp1599dUHH3xwy5YtakBKmWkURZZjVYLW/srpRV5ppH/w8KHd5rP0nOzigfJajZhxnBx+bd+2n/6kk3SQA5X2dE9PXztsY43qpt4MWr5uO4Y+c2ralSyUKRhIpCIIAsx1zzR6S8WUeCorUgGGZZgUY8G4ZEIIIblQ05UIISxBSilihBFK4wS4AAFYgq7rrhBpFBFCuoGampbRNC1ljHNJiW1aBtYoF0LXNcMwUNxUqA6M57XQBZIYY8uxFYaOc56wLE6TOI5bgR9HieX260hzqEE4evG55ysz1b5y/+DoaK3ZOHr8yIs/2vbyj3+yYmQxCB1zPK99g5HIJKKIEMIypun6wMDAI4888thjjz311FO7du26/PLLL7jgghtuuGHFihXNZrO/v//WW29dt26dij5Xrlx57733bt26dfXq1QihRYsW3XzzzUEQ5PN5AOjt7b366qu3bNnSJVF8m0BSxCR/y38gb1u+hIN4R/uzDCiFZiP54Uv/GoTtIGzk8zlDdy+88MK+vj7lF4Mg2Lp1K0Joy5YtYRg+9thjhULhqquuUsFNGIYTExMTExObNm26+OKLu0rMtm3XK1NfeeK/f2vvcwSJK8treyoyhx3NsQPfKvYWMsGCqBmKzrHW1JFwZsqfldJKOQMALMGhdLjQ12u4zA87UWznPOKYR6vTJ9s1QRARYCGa6vOwcwIIISS5iKKIYqIhouCFSJwh4JSKRA4hhASTnHMkJEHzsCCZpSoZUoF4F/aVZZxSijDORMalEAgAIwAhQFJKNW0ejinE/F3LsgwIxhgjghXhIBOcMZYRfdTpG88vLiYkakYJ572LFgHBGseZ3+4Enbl2M2m0N25Ymy7R99DKTcuv/cQtt5vEFZlEBhLAsjQziJGyzDAMJW+nbk3XsNRirRpIC8VxFlqe8qZdol1Vsa9Wq57nqbZ2dxzt37NR8c517v4NPN7bRpwIwAiEAEAsjHyCNcuaxyUojIKK37uqVmo1Ue8VMUSxWFQlJ8VPpg7bbrdzudypwwce2Pbthw9unYlro07PpvxwmbuNU3M0kQxDTKRZzHVEfLBy4kRQa8lIE9S27TRJ0jh1LZsgLDNmmmacJjqmFOFauxkDN11HZhJxoeesJIo1hLMkpRgDxlESG7ZFsnmE7zzY50zvhEokEBBAWcallBiQZFxKZJl6lzdB3TnVUtKpgTHmkjHOkY4105BSRklIsUYIIRrFGARILqUEAQgZhCKEmBRZlgkpsSYid/MAAAWJSURBVDavF5BIsZi6lw2tdAMe1NpI053e4tT0TMGwTRDEwNSyTElLBe+k3t4pT/2Xtb/yf33oFkfPAwepgQDGMmZQM07OqgYrMS2FilS1JKURpwZFFLpUgSQVpkTdSlWlV8gKhFA3AFWJxNvjJGP/QUv4244aMM7CKMIYm4bmODYCPQg4IZlpmuqRVZGlkmtSi4JqE1NKFcmlKoV2dcjVPqr/5llmFicCJCrZ+6ePtluNDe6SvKH3mXHTb3PL82X68sGDlTQ0yj2QcaobrcA3DMuyjHYQIo0ST2+EPlgUosAmBs05rkYkgkhGGsXtKKCYWLrOM0Z13XBtFhFOMNU0LITkHCni+zM2amIihJAAPEkEkwQTSTkAJIwRQqhGu05UgbU1rAkEFAkqJRAJCAEBzy3GYYIIQRoFQgALdGb2iHOh67pJCGUsE1yecRWShcSQAWsbmCwa7a91Wm1WLyxxOeJI1xkSCWEI0aYed1wWIaxw9Sqvl/Nid6KL9VS+QIHT5xPfMLRtu4sERQipDKkr36ooS1WnUKWGyu8oRS7P89RU+tsxUyT/g/zoL8j22sy+7zz72I/2v9yGIOSJSJgpdMkkxjjLsiRNkyxlUgBGlFJECDUcuWDrsmVTJruEMHCGSf2sm8RYLdPdNVoy3j1IF3+OEDLZ/Lh298jzT3Qiu8ys3TVUSqnrtOtTCSEK3I4QarH51JuQhczIUtPJfPCwYAMAJyNEgqMZjmUjhMI4ClnKEVgaRQhRQjSNmLphWrqlG5TiK86/Yf36cwr5QsaYRg0ABUInGL/79/T/NBsV7fbR6eNt1gGHBGnIEqYBZTEzdZ2pqUUpJAJ5Bj1u8nn/r65D9zXFciFPdtd8/60YX0WfXTG07hggBdT9v93xGIRQKs4ev3sKKSVCZ8Uq1NyBms2QmUBo4WMzr83SLTF2rXP+IaEEMk4BGZoOABlnDCTSKQiOpAIjg4YJ1bBGKMZYI4VyfxkAuBAEa1KeVWj4pY3+R28dCZCBRQFzEBlgCgiDRJBywAgQAoQAnx0kB/mmQFq5KC7m36hXOZ8BvYFgo/shACAMUsLCi6nOBQv2OfshCHjD4RcUPc6qyXTHiKWUmMv5/3vGQOdPh98YY3VPRKQUAjEBCANCIAVQ/IaTSQDJz36CJAAwzqVAmqZxLrux1ru+Ufg/a8s8xDOdSC5TkTKhGUA0GnNhEIIQQng+meFnHE9G0MKEr/vGOKs9AF1b+VmDWvChepELLP7MidDCA6Mz5ApEdJnnQcqzB8ZAlEtGqsAq1feElJDu2aTEACCBv4XSazdX40hwRICe2YMIDgifVQcDAJD47C/UuJCCM0kpgQWKhL/0oz8HNzp/7bkOBAEIQBxkAsI6WxpDauhRvZryre9EhhDAG9S0lHUJEN336G0UM/D/zjd0r/+/bxNvymzPKKwCfsuiCnlTsUWeOd+ZstgbN8kXfAGsyilvv135Sxt9BxsDLjnHZ8SvVCSICeGMvdHdzMeFWCxgPFhwKSTBb74yZ5vab7awf+P7EITfvBBLKTlBbz6pChNV8Npd5RFCBBPIxILdFn5n8jM/av4Zo3xhkHqWKoerh1gFMLj7hFIBXcaXbkXznZI1/NJG36aRMsBISCEFUvUpgiQi9A0ObcEv5uit7wF5R1dl4Wr9/7eeLH4mEp23LYHe7EQBABB5iy8DAHj+vgqp6rX4TW4VLzyQZAzOjIsoooNfrvU/r01mKdL0FEQmgSJMAIBLKRhSo3ndVf6M+9Q5eUu7SfHPxp9nAtO3DP/ewvDUCTL51nvqrJvj/+zxORcIIUwQAAguVTEhJV3hpDNFhAURyM9eBJAWE4DfkCRJIUAIhAmA7HpQ2Q2qMXQZF7v1tV/60V9uv9ze1va/AExvpRF+MU00AAAAAElFTkSuQmCC;" parent="1" vertex="1">
          <mxGeometry x="285" y="376" width="225" height="178" as="geometry" />
        </mxCell>
        <mxCell id="Lx8svp4eKI0U0BjnMGVL-11" value="" style="group" parent="1" vertex="1" connectable="0">
          <mxGeometry x="645" y="374" width="70" height="70" as="geometry" />
        </mxCell>
        <mxCell id="Lx8svp4eKI0U0BjnMGVL-12" value="M" style="verticalLabelPosition=middle;shadow=0;dashed=0;align=center;html=1;verticalAlign=middle;strokeWidth=1;shape=ellipse;aspect=fixed;fontSize=35;" parent="Lx8svp4eKI0U0BjnMGVL-11" vertex="1">
          <mxGeometry x="19" width="51" height="51" as="geometry" />
        </mxCell>
        <mxCell id="Lx8svp4eKI0U0BjnMGVL-13" value="" style="pointerEvents=1;verticalLabelPosition=bottom;shadow=0;dashed=0;align=center;html=1;verticalAlign=top;shape=mxgraph.electrical.inductors.inductor_3;" parent="Lx8svp4eKI0U0BjnMGVL-11" vertex="1">
          <mxGeometry x="20" y="62" width="50" height="8" as="geometry" />
        </mxCell>
        <mxCell id="Lx8svp4eKI0U0BjnMGVL-14" value="" style="pointerEvents=1;verticalLabelPosition=bottom;shadow=0;dashed=0;align=center;html=1;verticalAlign=top;shape=mxgraph.electrical.inductors.inductor_3;rotation=90;" parent="Lx8svp4eKI0U0BjnMGVL-11" vertex="1">
          <mxGeometry x="-21" y="21" width="50" height="8" as="geometry" />
        </mxCell>
        <mxCell id="Lx8svp4eKI0U0BjnMGVL-15" value="" style="endArrow=none;html=1;rounded=0;entryX=1;entryY=1;entryDx=0;entryDy=0;entryPerimeter=0;exitX=1;exitY=0.5;exitDx=0;exitDy=0;strokeColor=#FF0000;" parent="1" source="Lx8svp4eKI0U0BjnMGVL-9" target="Lx8svp4eKI0U0BjnMGVL-14" edge="1">
          <mxGeometry width="50" height="50" relative="1" as="geometry">
            <mxPoint x="522" y="460" as="sourcePoint" />
            <mxPoint x="655" y="384" as="targetPoint" />
            <Array as="points">
              <mxPoint x="615" y="465" />
              <mxPoint x="645" y="465" />
            </Array>
          </mxGeometry>
        </mxCell>
        <mxCell id="Lx8svp4eKI0U0BjnMGVL-16" value="" style="endArrow=none;html=1;rounded=0;entryX=0;entryY=1;entryDx=0;entryDy=0;entryPerimeter=0;exitX=1;exitY=0.5;exitDx=0;exitDy=0;strokeColor=#000000;" parent="1" target="Lx8svp4eKI0U0BjnMGVL-13" edge="1">
          <mxGeometry width="50" height="50" relative="1" as="geometry">
            <mxPoint x="510" y="483.5" as="sourcePoint" />
            <mxPoint x="645" y="442.5" as="targetPoint" />
            <Array as="points">
              <mxPoint x="615" y="483.5" />
              <mxPoint x="665" y="484" />
            </Array>
          </mxGeometry>
        </mxCell>
        <mxCell id="Lx8svp4eKI0U0BjnMGVL-17" value="" style="endArrow=none;html=1;rounded=0;entryX=1;entryY=1;entryDx=0;entryDy=0;entryPerimeter=0;exitX=1;exitY=0.5;exitDx=0;exitDy=0;strokeColor=#009900;" parent="1" edge="1">
          <mxGeometry width="50" height="50" relative="1" as="geometry">
            <mxPoint x="510" y="501.5" as="sourcePoint" />
            <mxPoint x="715" y="444" as="targetPoint" />
            <Array as="points">
              <mxPoint x="615" y="501.5" />
              <mxPoint x="715" y="501" />
            </Array>
          </mxGeometry>
        </mxCell>
        <mxCell id="Lx8svp4eKI0U0BjnMGVL-18" value="RPi-GPIO11" style="rounded=1;whiteSpace=wrap;html=1;fillColor=#dae8fc;strokeColor=#6c8ebf;fontSize=10;" parent="1" vertex="1">
          <mxGeometry x="138" y="409" width="88" height="16" as="geometry" />
        </mxCell>
        <mxCell id="Lx8svp4eKI0U0BjnMGVL-19" value="RPi-GPIO9" style="rounded=1;whiteSpace=wrap;html=1;fillColor=#dae8fc;strokeColor=#6c8ebf;fontSize=10;" parent="1" vertex="1">
          <mxGeometry x="138" y="512" width="88" height="16" as="geometry" />
        </mxCell>
        <mxCell id="Lx8svp4eKI0U0BjnMGVL-20" value="RPi-GPIO10" style="rounded=1;whiteSpace=wrap;html=1;fillColor=#dae8fc;strokeColor=#6c8ebf;fontSize=10;arcSize=26;" parent="1" vertex="1">
          <mxGeometry x="138" y="532" width="88" height="16" as="geometry" />
        </mxCell>
        <mxCell id="Lx8svp4eKI0U0BjnMGVL-21" value="" style="endArrow=none;html=1;rounded=0;endFill=0;strokeColor=#007FFF;entryX=-0.006;entryY=0.23;entryDx=0;entryDy=0;exitX=1;exitY=0.5;exitDx=0;exitDy=0;entryPerimeter=0;" parent="1" source="Lx8svp4eKI0U0BjnMGVL-18" target="Lx8svp4eKI0U0BjnMGVL-9" edge="1">
          <mxGeometry width="50" height="50" relative="1" as="geometry">
            <mxPoint x="226" y="416" as="sourcePoint" />
            <mxPoint x="292" y="417" as="targetPoint" />
          </mxGeometry>
        </mxCell>
        <mxCell id="Lx8svp4eKI0U0BjnMGVL-22" value="" style="endArrow=none;html=1;rounded=0;endFill=0;strokeColor=#007FFF;exitX=1;exitY=0.5;exitDx=0;exitDy=0;entryX=-0.003;entryY=0.81;entryDx=0;entryDy=0;entryPerimeter=0;" parent="1" source="Lx8svp4eKI0U0BjnMGVL-19" target="Lx8svp4eKI0U0BjnMGVL-9" edge="1">
          <mxGeometry width="50" height="50" relative="1" as="geometry">
            <mxPoint x="227" y="516.86" as="sourcePoint" />
            <mxPoint x="285" y="516.86" as="targetPoint" />
          </mxGeometry>
        </mxCell>
        <mxCell id="Lx8svp4eKI0U0BjnMGVL-23" value="" style="endArrow=none;html=1;rounded=0;endFill=0;strokeColor=#007FFF;exitX=1;exitY=0.5;exitDx=0;exitDy=0;" parent="1" source="Lx8svp4eKI0U0BjnMGVL-20" edge="1">
          <mxGeometry width="50" height="50" relative="1" as="geometry">
            <mxPoint x="236" y="530" as="sourcePoint" />
            <mxPoint x="284" y="540" as="targetPoint" />
          </mxGeometry>
        </mxCell>
        <mxCell id="Lx8svp4eKI0U0BjnMGVL-24" value="" style="endArrow=none;html=1;rounded=0;endFill=0;strokeColor=#007FFF;exitX=-0.006;exitY=0.714;exitDx=0;exitDy=0;entryX=-0.002;entryY=0.599;entryDx=0;entryDy=0;entryPerimeter=0;exitPerimeter=0;" parent="1" edge="1">
          <mxGeometry width="50" height="50" relative="1" as="geometry">
            <mxPoint x="284.09999999999997" y="506.4720000000001" as="sourcePoint" />
            <mxPoint x="284.99999999999994" y="486.00200000000007" as="targetPoint" />
            <Array as="points">
              <mxPoint x="254.45" y="506.38" />
              <mxPoint x="254.45" y="486.38" />
            </Array>
          </mxGeometry>
        </mxCell>
        <mxCell id="Lx8svp4eKI0U0BjnMGVL-27" value="Z limit switch&lt;br&gt;(normaly closed)" style="text;html=1;align=center;verticalAlign=middle;resizable=0;points=[];autosize=1;strokeColor=none;fillColor=none;" parent="1" vertex="1">
          <mxGeometry x="349.2" y="596" width="107" height="41" as="geometry" />
        </mxCell>
        <mxCell id="Lx8svp4eKI0U0BjnMGVL-28" value="RPi-GPIO10" style="rounded=1;whiteSpace=wrap;html=1;fillColor=#dae8fc;strokeColor=#6c8ebf;fontSize=10;arcSize=26;" parent="1" vertex="1">
          <mxGeometry x="247" y="643" width="88" height="16" as="geometry" />
        </mxCell>
        <mxCell id="Lx8svp4eKI0U0BjnMGVL-29" value="" style="endArrow=none;html=1;rounded=0;endFill=0;strokeColor=#007FFF;exitX=1;exitY=0.5;exitDx=0;exitDy=0;entryX=0;entryY=0.16;entryDx=0;entryDy=0;" parent="1" source="Lx8svp4eKI0U0BjnMGVL-28" target="ayAZ7UuWGTsfEoH7-hEO-30" edge="1">
          <mxGeometry width="50" height="50" relative="1" as="geometry">
            <mxPoint x="311" y="641" as="sourcePoint" />
            <mxPoint x="359" y="651" as="targetPoint" />
          </mxGeometry>
        </mxCell>
        <mxCell id="Lx8svp4eKI0U0BjnMGVL-30" value="" style="endArrow=none;html=1;rounded=0;exitX=1;exitY=0.16;exitDx=0;exitDy=0;endFill=0;entryX=0;entryY=0.5;entryDx=0;entryDy=0;" parent="1" source="ayAZ7UuWGTsfEoH7-hEO-30" target="Lx8svp4eKI0U0BjnMGVL-31" edge="1">
          <mxGeometry width="50" height="50" relative="1" as="geometry">
            <mxPoint x="441" y="651" as="sourcePoint" />
            <mxPoint x="567" y="610" as="targetPoint" />
          </mxGeometry>
        </mxCell>
        <mxCell id="Lx8svp4eKI0U0BjnMGVL-31" value="RPi-GPIO-GND" style="rounded=1;whiteSpace=wrap;html=1;fillColor=#bac8d3;strokeColor=#23445d;fontSize=10;" parent="1" vertex="1">
          <mxGeometry x="473" y="644" width="89" height="14" as="geometry" />
        </mxCell>
      </root>
    </mxGraphModel>
  </diagram>
</mxfile>
